<svg xmlns="http://www.w3.org/2000/svg" viewBox="0 0 100 16.718" aria-labelledby="art-svg-artifact"><title id="art-svg-artifact">Artifact</title><path d="M27.206 16.5h-3.021l-2.758-3.92a8.941 8.941 0 0 1-1.165.072h-1.594v3.848h-2.544v-16.167h4.138c4.447 0 6.9 2.449 6.9 6.183a5.566 5.566 0 0 1-3.234 5.4zm-7.04-6.04c3.116 0 4.376-1.475 4.376-3.948 0-2.449-1.284-3.924-4.376-3.924h-1.5v7.872zM32.723 2.592h-4.8v-2.259h12.148v2.259h-4.8v13.908h-2.548zM42.473.333h2.545v16.167h-2.545zM49.084.333h10.084v2.259h-7.539v6.708h6.871v2.26h-6.871v4.94h-2.545v-16.167zM72.794 8.419a8.12 8.12 0 0 1 8.252-8.3 7.414 7.414 0 0 1 6.469 3.139l-1.95 1.379a5.208 5.208 0 0 0-4.59-2.211c-3.21 0-5.541 2.568-5.541 5.993 0 3.495 2.378 5.992 5.636 5.992a5.732 5.732 0 0 0 4.852-2.354l1.978 1.356a7.936 7.936 0 0 1-6.92 3.305 8.061 8.061 0 0 1-8.186-8.299zM92.652 2.592h-4.8v-2.259h12.148v2.259h-4.8v13.908h-2.548v-13.908zM2.117 17.289"/><path d="M11.7 16.504h2.64l-7.111-16.504h-.142l-7.087 16.504h2.497l4.637-10.915 4.566 10.915zM70.392 16.504h2.64l-7.11-16.504h-.143l-7.087 16.504h2.497l4.637-10.915 4.566 10.915z"/></svg>