<?xml version="1.0" encoding="utf-8"?>
<svg version="1.1" xmlns="http://www.w3.org/2000/svg" width="235px" height="130px" viewBox="0 0 134 74">
	<def>
		<style>
			.spiral {
				fill: none;
				stroke: #ba4699;
				stroke-width: 0.3;
				stroke-miterlimit: 10;
			}
			.text {
				fill: #ffffff;
			}
		</style>
	</def>
	<g class="spiral">
		<path d="M59.222,42.868 c0,0-1.867-6.863-2.433-12.459s0.102-10.312,2.172-11.295c1.937-0.92,5.653,0.738,10.095,5.819 c4.442,5.081,8.13,10.028,8.13,10.028s7.423,9.879,5.199,13.868s-12.824-0.819-15.368-2.055c-2.544-1.235-9.423-4.39-13.286-7.372 c-3.863-2.982-6.148-5.876-5.547-7.698c0.601-1.821,3.672-3.001,8.626-3.749s10.818-0.462,13.666-0.348 c2.848,0.113,5.099,0.44,7.714,0.943s7.448,1.559,8.045,4.137c0.598,2.579-2.364,5.312-6.163,7.606 c-3.799,2.294-6.624,3.845-9.158,4.979c-2.534,1.134-8.05,3.196-9.922,3.667c-1.872,0.47-7.287,1.716-9.249-0.353 s0.68-7.235,2.223-9.574c1.542-2.339,3.924-5.704,5.829-7.866c1.906-2.162,5.128-5.883,7.853-8.085 c2.725-2.202,5.979-4.84,8.582-3.773c2.603,1.067,2.064,8.305,1.868,9.655c-0.196,1.35-0.853,5.991-1.827,9.525 c-0.974,3.535-2.517,8.331-3.81,10.9c-1.293,2.569-2.706,7.023-5.775,6.989c-2.835-0.031-4.538-4.547-5.586-7.191 C60.052,46.523,59.222,42.868,59.222,42.868z"/>

		<path d="M80.047,19.454 c-3.298,9.377-13.092,17.636-13.092,17.636s-2.469-12.568,0.829-21.945s7.727-13.2,11.113-12.011S83.345,10.078,80.047,19.454z"/>
		<path d="M54.756,18.748 c2.846,9.523,12.235,18.241,12.235,18.241s3.066-12.436,0.219-21.959C64.364,5.506,60.122,1.476,56.683,2.503 C53.244,3.529,51.91,9.225,54.756,18.748z"/>
		<path d="M46.371,29.402 c7.903,6.032,20.626,7.569,20.626,7.569S62.164,25.109,54.26,19.077s-13.706-6.801-15.884-3.95 C36.198,17.978,38.468,23.37,46.371,29.402z"/>
		<path d="M45.864,42.949 c9.942,0.237,21.138-5.993,21.138-5.993s-10.887-6.757-20.828-6.994c-9.942-0.237-15.088,2.549-15.174,6.136 S35.923,42.712,45.864,42.949z"/>
		<path d="M53.404,54.287 C61.586,48.638,66.98,37.02,66.98,37.02s-12.781,0.929-20.964,6.577s-10.707,10.926-8.667,13.878S45.221,59.935,53.404,54.287z"/>
		<path d="M66.162,58.933 c3.298-9.377,0.829-21.945,0.829-21.945s-9.794,8.26-13.092,17.636s-2.237,15.129,1.15,16.319 C58.435,72.134,62.864,68.31,66.162,58.933z"/>
		<path d="M79.215,55.261 C76.369,45.738,66.98,37.02,66.98,37.02s-3.066,12.436-0.219,21.959c2.846,9.523,7.088,13.554,10.527,12.527 C80.727,70.479,82.062,64.784,79.215,55.261z"/>
		<path d="M87.629,44.525 c-7.903-6.032-20.626-7.569-20.626-7.569S71.836,48.818,79.74,54.85s13.706,6.801,15.884,3.95 C97.802,55.949,95.532,50.557,87.629,44.525z"/>
		<path d="M88.136,30.978 c-9.942-0.237-21.138,5.993-21.138,5.993s10.887,6.757,20.828,6.994s15.088-2.549,15.174-6.136 C103.085,34.244,98.077,31.215,88.136,30.978z"/>
		<path d="M80.568,19.722 c-8.182,5.648-13.577,17.267-13.577,17.267s12.781-0.929,20.964-6.577s10.707-10.926,8.667-13.878 C94.582,13.582,88.75,14.074,80.568,19.722z"/>

		<path d="M84.764,24.244 c-5.991,7.933-17.833,12.829-17.833,12.829s1.467-12.724,7.458-20.656c5.991-7.933,11.373-10.231,14.238-8.07 C91.493,10.508,90.755,16.311,84.764,24.244z"/>
		<path d="M60.882,15.894 c-0.182,9.937,6.114,21.093,6.114,21.093s6.7-10.918,6.882-20.855S71.244,1.066,67.655,1.001S61.064,5.956,60.882,15.894z"/>
		<path d="M49.656,23.499 c5.697,8.146,17.351,13.473,17.351,13.473s-1-12.769-6.698-20.915S49.319,5.417,46.377,7.472 C43.435,9.527,43.959,15.353,49.656,23.499z"/>
		<path d="M45.056,36.252 c9.4,3.244,21.961,0.706,21.961,0.706s-8.319-9.743-17.719-12.986s-15.15-2.151-16.321,1.24 C31.806,28.603,35.656,33.009,45.056,36.252z"/>
		<path d="M48.794,49.343 c9.512-2.898,18.182-12.33,18.182-12.33s-12.46-2.995-21.972-0.097s-13.522,7.16-12.475,10.591 C33.576,50.939,39.282,52.241,48.794,49.343z"/>
		<path d="M59.538,57.643 c5.991-7.933,7.458-20.656,7.458-20.656s-11.842,4.897-17.833,12.829S42.435,63.552,45.3,65.713S53.547,65.576,59.538,57.643z"/>
		<path d="M73.09,58.106 c0.182-9.937-6.114-21.093-6.114-21.093s-6.7,10.918-6.882,20.855c-0.182,9.937,2.635,15.065,6.223,15.131 C69.906,73.065,72.908,68.044,73.09,58.106z"/>
		<path d="M84.369,50.431 c-5.697-8.146-17.351-13.473-17.351-13.473s1,12.769,6.698,20.915c5.697,8.146,10.991,10.64,13.933,8.585 C90.59,64.404,90.066,58.578,84.369,50.431z"/>
		<path d="M88.968,37.678 c-9.4-3.244-21.961-0.706-21.961-0.706s8.319,9.743,17.719,12.986s15.15,2.151,16.321-1.24 C102.219,45.328,98.368,40.922,88.968,37.678z"/>
		<path d="M85.179,24.657 c-9.512,2.898-18.182,12.33-18.182,12.33s12.46,2.995,21.972,0.097s13.522-7.16,12.475-10.591S94.691,21.759,85.179,24.657z"/>
	</g>

	<g class="text">
		<path d="M29.899,34.273h-6.231v8.044h-0.936V21.841h8.834c4.329,0,6.377,3.159,6.406,6.26c0.029,3.452-2.048,6.377-6.845,6.172 l7.459,8.044H37.33L29.899,34.273z M31.333,33.366c3.832,0,5.704-2.106,5.704-5.265c0-2.691-1.843-5.353-5.47-5.353h-7.898v10.618 H31.333z"/>
		<path d="M39.815,21.841h16.294v0.907h-7.694v19.57h-0.936v-19.57h-7.664V21.841z"/>
		<path d="M60.418,42.317V21.841h0.937v20.476H60.418z"/>
		<path d="M66.608,21.841h13.336v0.907h-12.4v8.922h9.219v0.907h-9.219v9.77h-0.937V21.841z"/>
		<path d="M115.584,39.421c-2.018,2.047-4.739,3.072-7.372,3.072c-6.728,0-10.413-4.739-10.443-10.297 c-0.088-5.499,3.51-10.589,10.443-10.589c2.662,0,5.353,0.995,7.372,3.042l-0.643,0.614c-1.872-1.872-4.301-2.75-6.728-2.75 c-6.231,0-9.536,4.388-9.507,9.653c0.059,5.148,3.393,9.419,9.507,9.419c2.428,0,4.856-0.936,6.699-2.75L115.584,39.421z"/>
		<path d="M117.261,21.841h16.294v0.907h-7.694v19.57h-0.936v-19.57h-7.664V21.841z"/>
		<polygon points="9.741,21.82 0,42.317 1.111,42.317 9.741,23.756 18.37,42.317 19.482,42.317"/>
		<polygon points="87.237,21.82 77.496,42.317 78.608,42.317 87.237,23.756 95.866,42.317 96.978,42.317"/>

		<path d="M26.468,55.032c-0.466,0.459-1.067,0.673-1.72,0.673c-1.681,0-2.393-1.158-2.399-2.335 c-0.006-1.183,0.763-2.386,2.399-2.386c0.614,0,1.196,0.233,1.662,0.692l-0.569,0.55c-0.297-0.291-0.699-0.427-1.093-0.427 c-1.093,0-1.565,0.815-1.558,1.571c0.006,0.75,0.44,1.533,1.558,1.533c0.394,0,0.841-0.162,1.138-0.46L26.468,55.032z"/>
		<path d="M36.445,53.363c-0.013,1.17-0.731,2.341-2.322,2.341c-1.591,0-2.328-1.145-2.328-2.335c0-1.429,1.035-2.386,2.347-2.386 C35.689,50.997,36.458,52.187,36.445,53.363z M34.124,54.922c1.067,0,1.468-0.802,1.481-1.545c0.013-0.756-0.42-1.597-1.461-1.616 c-0.963,0-1.532,0.724-1.507,1.623C32.656,54.127,33.057,54.922,34.124,54.922z"/>
		<path d="M45.388,54.12v-3.045h0.854v4.527H45.55l-2.406-3.014v3.014h-0.853v-4.527h0.692L45.388,54.12z"/>
		<path d="M52.359,55.601v-4.52h3.253v0.821h-2.399v1.235h1.855v0.789h-1.855v1.675H52.359z"/>
		<path d="M64.846,55.601h-3.388c0-1.507,0-3.02,0-4.527h3.388v0.827h-2.541v1.041h2.451v0.796h-2.451v1.021h2.541V55.601z"/>
		<path d="M74.811,55.601h-0.976l-1.313-1.513h-0.867v1.513h-0.854v-4.533c0.718,0,1.436,0.007,2.154,0.007 c1.067,0.006,1.629,0.717,1.629,1.5c0,0.621-0.284,1.248-1.144,1.422l1.371,1.546V55.601z M71.655,51.87v1.449h1.3 c0.543,0,0.776-0.362,0.776-0.724c0-0.362-0.239-0.725-0.776-0.725H71.655z"/>
		<path d="M83.941,55.601h-3.389c0-1.507,0-3.02,0-4.527h3.389v0.827H81.4v1.041h2.451v0.796H81.4v1.021h2.541V55.601z"/>
		<path d="M92.994,54.12v-3.045h0.854v4.527h-0.692l-2.406-3.014v3.014h-0.853v-4.527h0.692L92.994,54.12z"/>
		<path d="M103.826,55.032c-0.465,0.459-1.067,0.673-1.72,0.673c-1.681,0-2.393-1.158-2.399-2.335 c-0.007-1.183,0.763-2.386,2.399-2.386c0.614,0,1.196,0.233,1.662,0.692l-0.569,0.55c-0.297-0.291-0.698-0.427-1.093-0.427 c-1.093,0-1.565,0.815-1.558,1.571c0.006,0.75,0.44,1.533,1.558,1.533c0.394,0,0.841-0.162,1.138-0.46L103.826,55.032z"/>
		<path d="M112.924,55.601h-3.388c0-1.507,0-3.02,0-4.527h3.388v0.827h-2.541v1.041h2.451v0.796h-2.451v1.021h2.541V55.601z"/>
	</g>
</svg>
