<?xml version="1.0" encoding="utf-8"?>
<svg version="1.1" xmlns="http://www.w3.org/2000/svg" width="235px" height="130px" viewBox="0 0 134 74">
	<def>
		<style>
			.spiral {
				fill: none;
				stroke: #ba4699;
				stroke-width: 0.325;
				stroke-miterlimit: 10;
			}
			.text {
				fill: #ffffff;
			}
		</style>
	</def>
	<g class="spiral">
		<path d="M81.609,43.13 c-7.504-4.107-14.633-6.144-14.633-6.144s1.96,6.471,6.343,14.533c4.592,8.447,9.224,11.629,9.224,11.629 c2.984,2.189,7.196,1.942,9.891-0.758c2.708-2.713,2.94-6.953,0.713-9.937C93.148,52.453,90.112,47.783,81.609,43.13z"/>
		<path d="M82.738,35.021 c-8.552,0.197-15.743,1.997-15.743,1.997s4.932,4.624,12.758,9.414c8.199,5.019,13.801,5.458,13.801,5.458 c3.679,0.404,7.202-1.917,8.187-5.603c0.99-3.704-0.93-7.492-4.35-8.962C97.391,37.325,92.428,34.798,82.738,35.021z"/>
		<path d="M79.591,27.412 c-7.308,4.447-12.636,9.603-12.636,9.603s6.583,1.537,15.755,1.772c9.609,0.246,14.68-2.176,14.68-2.176 c3.388-1.49,5.279-5.262,4.289-8.947c-0.994-3.702-4.55-6.023-8.247-5.586C93.432,22.079,87.872,22.373,79.591,27.412z"/>
		<path d="M73.146,22.38 c-4.106,7.506-6.142,14.636-6.142,14.636s6.469-1.961,14.53-6.345c8.445-4.593,11.626-9.226,11.626-9.226 c2.189-2.985,1.941-7.197-0.758-9.894c-2.712-2.709-6.951-2.94-9.934-0.713C82.466,10.839,77.797,13.875,73.146,22.38z"/>
		<path d="M65.013,21.267 c0.197,8.554,1.997,15.747,1.997,15.747s4.622-4.934,9.412-12.761c5.018-8.201,5.456-13.804,5.456-13.804 c0.404-3.68-1.916-7.204-5.602-8.189c-3.703-0.99-7.49,0.93-8.96,4.351C67.316,6.611,64.79,11.575,65.013,21.267z"/>
		<path d="M57.391,24.366 c4.446,7.31,9.601,12.639,9.601,12.639s1.537-6.584,1.772-15.759c0.246-9.612-2.175-14.684-2.175-14.684 c-1.49-3.388-5.261-5.28-8.945-4.29c-3.702,0.995-6.021,4.551-5.585,8.249C52.059,10.522,52.353,16.084,57.391,24.366z"/>
		<path d="M52.345,30.877 c7.504,4.107,14.633,6.144,14.633,6.144s-1.96-6.471-6.343-14.533c-4.592-8.447-9.224-11.629-9.224-11.629 c-2.984-2.189-7.196-1.942-9.891,0.758c-2.708,2.713-2.94,6.953-0.713,9.937C40.807,21.554,43.842,26.224,52.345,30.877z"/>
		<path d="M51.262,38.996 c8.552-0.197,15.743-1.997,15.743-1.997s-4.932-4.624-12.758-9.414c-8.199-5.019-13.801-5.458-13.801-5.458 c-3.679-0.404-7.202,1.917-8.187,5.603c-0.989,3.704,0.93,7.492,4.35,8.962C36.609,36.693,41.572,39.219,51.262,38.996z"/>
		<path d="M54.36,46.55 c7.308-4.447,12.636-9.603,12.636-9.603s-6.583-1.537-15.755-1.772c-9.609-0.246-14.68,2.176-14.68,2.176 c-3.388,1.49-5.279,5.262-4.289,8.947c0.995,3.702,4.55,6.023,8.247,5.586C40.519,51.883,46.08,51.589,54.36,46.55z"/>
		<path d="M60.894,51.785 c4.106-7.506,6.142-14.636,6.142-14.636s-6.469,1.961-14.53,6.345c-8.445,4.593-11.626,9.226-11.626,9.226 c-2.189,2.985-1.941,7.197,0.758,9.894c2.712,2.709,6.951,2.94,9.934,0.713C51.573,63.327,56.242,60.291,60.894,51.785z"/>
		<path d="M68.966,52.733 c-0.197-8.554-1.997-15.747-1.997-15.747s-4.622,4.934-9.412,12.761c-5.018,8.201-5.456,13.804-5.456,13.804 c-0.404,3.68,1.916,7.204,5.602,8.189c3.703,0.99,7.49-0.93,8.96-4.351C66.663,67.389,69.189,62.425,68.966,52.733z"/>
		<path d="M76.593,49.634 c-4.446-7.31-9.601-12.639-9.601-12.639s-1.537,6.584-1.772,15.759c-0.246,9.612,2.175,14.684,2.175,14.684 c1.49,3.388,5.261,5.28,8.945,4.29c3.702-0.995,6.021-4.551,5.585-8.249C81.925,63.479,81.631,57.916,76.593,49.634z"/>

		<path d="M55.714,37.573 c4.805-2.775,11.281-0.554,11.281-0.554s-1.315,6.72-6.12,9.495c-4.805,2.775-11.281,0.554-11.281,0.554 S50.908,40.348,55.714,37.573z"/>
		<path d="M57.502,43.14 c2.774-4.806,9.492-6.122,9.492-6.122s2.22,6.477-0.554,11.283c-2.774,4.807-9.492,6.122-9.492,6.122S54.728,47.947,57.502,43.14 z"/>
		<path d="M61.834,47.067c0-5.55,5.16-10.049,5.16-10.049 s5.16,4.499,5.16,10.049c0,5.55-5.16,10.049-5.16,10.049S61.834,52.617,61.834,47.067z"/>
		<path d="M67.548,48.302 c-2.774-4.806-0.554-11.283-0.554-11.283s6.718,1.315,9.492,6.122c2.775,4.806,0.554,11.284,0.554,11.284 S70.323,53.108,67.548,48.302z"/>
		<path d="M73.115,46.513 c-4.805-2.775-6.12-9.495-6.12-9.495s6.475-2.221,11.281,0.554c4.805,2.775,6.12,9.495,6.12,9.495S77.92,49.288,73.115,46.513z"/>
		<path d="M77.041,42.18 c-5.548,0-10.046-5.162-10.046-5.162s4.498-5.162,10.046-5.162c5.548,0,10.046,5.162,10.046,5.162S82.589,42.18,77.041,42.18z"/>
		<path d="M78.275,36.464 c-4.805,2.775-11.28,0.554-11.28,0.554s1.315-6.72,6.12-9.495c4.805-2.775,11.281-0.554,11.281-0.554S83.08,33.689,78.275,36.464 z"/>
		<path d="M76.486,30.897 c-2.774,4.806-9.492,6.122-9.492,6.122s-2.22-6.477,0.554-11.284c2.774-4.807,9.492-6.122,9.492-6.122 S79.261,26.09,76.486,30.897z"/>
		<path d="M72.155,26.97c0,5.55-5.16,10.049-5.16,10.049 s-5.16-4.499-5.161-10.049c0-5.55,5.161-10.049,5.161-10.049S72.155,21.419,72.155,26.97z"/>
		<path d="M66.44,25.735 c2.774,4.806,0.554,11.283,0.554,11.283s-6.718-1.315-9.492-6.122c-2.775-4.806-0.554-11.284-0.554-11.284 S63.666,20.929,66.44,25.735z"/>
		<path d="M60.874,27.524 c4.805,2.775,6.12,9.495,6.12,9.495s-6.475,2.22-11.281-0.554c-4.806-2.775-6.12-9.495-6.12-9.495S56.069,24.749,60.874,27.524z"/>
		<path d="M56.948,31.857 c5.548,0,10.046,5.162,10.046,5.162s-4.498,5.161-10.046,5.162c-5.549,0-10.047-5.162-10.047-5.162S51.399,31.857,56.948,31.857z"/>
	</g>

	<g class="text">
		<path d="M29.899,34.273h-6.231v8.044h-0.936V21.841h8.834c4.329,0,6.377,3.159,6.406,6.26c0.029,3.452-2.048,6.377-6.845,6.172 l7.459,8.044H37.33L29.899,34.273z M31.333,33.366c3.832,0,5.704-2.106,5.704-5.265c0-2.691-1.843-5.353-5.47-5.353h-7.898v10.618 H31.333z"/>
		<path d="M39.815,21.841h16.294v0.907h-7.694v19.57h-0.936v-19.57h-7.664V21.841z"/>
		<path d="M60.418,42.317V21.841h0.937v20.476H60.418z"/>
		<path d="M66.608,21.841h13.336v0.907h-12.4v8.922h9.219v0.907h-9.219v9.77h-0.937V21.841z"/>
		<path d="M115.584,39.421c-2.018,2.047-4.739,3.072-7.372,3.072c-6.728,0-10.413-4.739-10.443-10.297 c-0.088-5.499,3.51-10.589,10.443-10.589c2.662,0,5.353,0.995,7.372,3.042l-0.643,0.614c-1.872-1.872-4.301-2.75-6.728-2.75 c-6.231,0-9.536,4.388-9.507,9.653c0.059,5.148,3.393,9.419,9.507,9.419c2.428,0,4.856-0.936,6.699-2.75L115.584,39.421z"/>
		<path d="M117.261,21.841h16.294v0.907h-7.694v19.57h-0.936v-19.57h-7.664V21.841z"/>
		<polygon points="9.741,21.82 0,42.317 1.111,42.317 9.741,23.756 18.37,42.317 19.482,42.317"/>
		<polygon points="87.237,21.82 77.496,42.317 78.608,42.317 87.237,23.756 95.866,42.317 96.978,42.317"/>

		<path d="M26.468,55.032c-0.466,0.459-1.067,0.673-1.72,0.673c-1.681,0-2.393-1.158-2.399-2.335 c-0.006-1.183,0.763-2.386,2.399-2.386c0.614,0,1.196,0.233,1.662,0.692l-0.569,0.55c-0.297-0.291-0.699-0.427-1.093-0.427 c-1.093,0-1.565,0.815-1.558,1.571c0.006,0.75,0.44,1.533,1.558,1.533c0.394,0,0.841-0.162,1.138-0.46L26.468,55.032z"/>
		<path d="M36.445,53.363c-0.013,1.17-0.731,2.341-2.322,2.341c-1.591,0-2.328-1.145-2.328-2.335c0-1.429,1.035-2.386,2.347-2.386 C35.689,50.997,36.458,52.187,36.445,53.363z M34.124,54.922c1.067,0,1.468-0.802,1.481-1.545c0.013-0.756-0.42-1.597-1.461-1.616 c-0.963,0-1.532,0.724-1.507,1.623C32.656,54.127,33.057,54.922,34.124,54.922z"/>
		<path d="M45.388,54.12v-3.045h0.854v4.527H45.55l-2.406-3.014v3.014h-0.853v-4.527h0.692L45.388,54.12z"/>
		<path d="M52.359,55.601v-4.52h3.253v0.821h-2.399v1.235h1.855v0.789h-1.855v1.675H52.359z"/>
		<path d="M64.846,55.601h-3.388c0-1.507,0-3.02,0-4.527h3.388v0.827h-2.541v1.041h2.451v0.796h-2.451v1.021h2.541V55.601z"/>
		<path d="M74.811,55.601h-0.976l-1.313-1.513h-0.867v1.513h-0.854v-4.533c0.718,0,1.436,0.007,2.154,0.007 c1.067,0.006,1.629,0.717,1.629,1.5c0,0.621-0.284,1.248-1.144,1.422l1.371,1.546V55.601z M71.655,51.87v1.449h1.3 c0.543,0,0.776-0.362,0.776-0.724c0-0.362-0.239-0.725-0.776-0.725H71.655z"/>
		<path d="M83.941,55.601h-3.389c0-1.507,0-3.02,0-4.527h3.389v0.827H81.4v1.041h2.451v0.796H81.4v1.021h2.541V55.601z"/>
		<path d="M92.994,54.12v-3.045h0.854v4.527h-0.692l-2.406-3.014v3.014h-0.853v-4.527h0.692L92.994,54.12z"/>
		<path d="M103.826,55.032c-0.465,0.459-1.067,0.673-1.72,0.673c-1.681,0-2.393-1.158-2.399-2.335 c-0.007-1.183,0.763-2.386,2.399-2.386c0.614,0,1.196,0.233,1.662,0.692l-0.569,0.55c-0.297-0.291-0.698-0.427-1.093-0.427 c-1.093,0-1.565,0.815-1.558,1.571c0.006,0.75,0.44,1.533,1.558,1.533c0.394,0,0.841-0.162,1.138-0.46L103.826,55.032z"/>
		<path d="M112.924,55.601h-3.388c0-1.507,0-3.02,0-4.527h3.388v0.827h-2.541v1.041h2.451v0.796h-2.451v1.021h2.541V55.601z"/>
	</g>
</svg>
