<?xml version="1.0" encoding="utf-8"?>
<svg version="1.1" xmlns="http://www.w3.org/2000/svg" width="235px" height="130px" viewBox="0 0 134 74">
	<def>
		<style>
			.spiral {
				fill: none;
				stroke: #ba4699;
				stroke-width: 0.3;
				stroke-miterlimit: 10;
			}
			.text {
				fill: #ffffff;
			}
		</style>
	</def>
	<g class="spiral">
		<path d="M46.789,37.993C55.398,33.022,67,37,67,37 s-2.357,12.036-10.966,17.007C47.425,58.977,35.823,55,35.823,55S38.18,42.963,46.789,37.993z"/>
		<path d="M49.993,47.965C54.964,39.356,67,37,67,37 s3.978,11.602-0.993,20.211C61.037,65.821,49,68.177,49,68.177S45.022,56.575,49.993,47.965z"/>
		<path d="M57.755,55C57.754,45.059,67,37,67,37 s9.245,8.059,9.246,18c0,9.942-9.246,18-9.246,18S57.754,64.941,57.755,55z"/>
		<path d="M67.993,57.211C63.023,48.602,67,37,67,37 s12.036,2.356,17.007,10.965S85,68.177,85,68.177S72.964,65.821,67.993,57.211z"/>
		<path d="M77.966,54.007C69.357,49.036,67,37,67,37 s11.602-3.978,20.211,0.993C95.821,42.963,98.177,55,98.177,55S86.575,58.977,77.966,54.007z"/>
		<path d="M85,46.246C75.059,46.246,67,37,67,37 s8.058-9.246,18-9.246C94.941,27.754,103,37,103,37S94.941,46.246,85,46.246z"/>
		<path d="M87.211,36.007C78.602,40.977,67,37,67,37 s2.356-12.036,10.966-17.007C86.575,15.022,98.177,19,98.177,19S95.82,31.036,87.211,36.007z"/>
		<path d="M84.007,26.035C79.037,34.644,67,37,67,37 s-3.978-11.602,0.993-20.211C72.963,8.179,85,5.823,85,5.823S88.977,17.425,84.007,26.035z"/>
		<path d="M76.246,19C76.246,28.941,67,37,67,37 s-9.246-8.059-9.246-18c0-9.941,9.246-18,9.246-18S76.246,9.059,76.246,19z"/>
		<path d="M66.008,16.789C70.978,25.398,67,37,67,37 s-12.037-2.356-17.007-10.966c-4.971-8.609-0.993-20.212-0.993-20.212S61.037,8.179,66.008,16.789z"/>
		<path d="M56.035,19.993C64.644,24.963,67,37,67,37 s-11.602,3.977-20.211-0.993C38.179,31.037,35.824,19,35.824,19S47.425,15.023,56.035,19.993z"/>
		<path d="M49.001,27.754c9.941,0,18,9.246,18,9.246 s-8.059,9.245-18,9.246C39.059,46.246,31,37,31,37S39.059,27.754,49.001,27.754z"/>
		<path d="M56.444,37.519C60.94,34.922,67,37,67,37 s-1.231,6.287-5.727,8.883c-4.497,2.596-10.556,0.519-10.556,0.519S51.947,40.115,56.444,37.519z"/>
		<path d="M58.117,42.727C60.713,38.231,67,37,67,37 s2.078,6.06-0.519,10.556c-2.596,4.497-8.883,5.728-8.883,5.728S55.521,47.224,58.117,42.727z"/>
		<path d="M62.171,46.401C62.171,41.209,67,37,67,37 s4.829,4.209,4.829,9.401c0,5.192-4.829,9.402-4.829,9.402S62.171,51.594,62.171,46.401z"/>
		<path d="M67.519,47.556C64.923,43.06,67,37,67,37 s6.286,1.231,8.883,5.727s0.519,10.557,0.519,10.557S70.115,52.053,67.519,47.556z"/>
		<path d="M72.728,45.883C68.231,43.287,67,37,67,37 s6.06-2.078,10.556,0.519c4.497,2.596,5.727,8.883,5.727,8.883S77.224,48.479,72.728,45.883z"/>
		<path d="M76.401,41.829C71.209,41.829,67,37,67,37 s4.209-4.829,9.401-4.829c5.192,0,9.401,4.829,9.401,4.829S81.594,41.829,76.401,41.829z"/>
		<path d="M77.556,36.481C73.06,39.077,67,37,67,37 s1.231-6.287,5.727-8.883c4.496-2.596,10.556-0.518,10.556-0.518S82.053,33.885,77.556,36.481z"/>
		<path d="M75.883,31.273C73.287,35.769,67,37,67,37 s-2.078-6.06,0.518-10.556c2.596-4.497,8.883-5.727,8.883-5.727S78.479,26.776,75.883,31.273z"/>
		<path d="M71.829,27.599C71.829,32.791,67,37,67,37 s-4.829-4.209-4.829-9.401c0-5.192,4.829-9.401,4.829-9.401S71.829,22.406,71.829,27.599z"/>
		<path d="M66.482,26.444C69.078,30.94,67,37,67,37 s-6.287-1.231-8.883-5.727c-2.596-4.497-0.518-10.557-0.518-10.557S63.885,21.947,66.482,26.444z"/>
		<path d="M61.273,28.117C65.769,30.713,67,37,67,37 s-6.06,2.077-10.556-0.519c-4.497-2.596-5.727-8.883-5.727-8.883S56.776,25.521,61.273,28.117z"/>
		<path d="M57.599,32.171C62.791,32.171,67,37,67,37 s-4.209,4.829-9.401,4.829c-5.193,0-9.402-4.829-9.402-4.829S52.407,32.171,57.599,32.171z"/>
	</g>

	<g class="text">
		<path d="M29.899,34.273h-6.231v8.044h-0.936V21.841h8.834c4.329,0,6.377,3.159,6.406,6.26c0.029,3.452-2.048,6.377-6.845,6.172 l7.459,8.044H37.33L29.899,34.273z M31.333,33.366c3.832,0,5.704-2.106,5.704-5.265c0-2.691-1.843-5.353-5.47-5.353h-7.898v10.618 H31.333z"/>
		<path d="M39.815,21.841h16.294v0.907h-7.694v19.57h-0.936v-19.57h-7.664V21.841z"/>
		<path d="M60.418,42.317V21.841h0.937v20.476H60.418z"/>
		<path d="M66.608,21.841h13.336v0.907h-12.4v8.922h9.219v0.907h-9.219v9.77h-0.937V21.841z"/>
		<path d="M115.584,39.421c-2.018,2.047-4.739,3.072-7.372,3.072c-6.728,0-10.413-4.739-10.443-10.297 c-0.088-5.499,3.51-10.589,10.443-10.589c2.662,0,5.353,0.995,7.372,3.042l-0.643,0.614c-1.872-1.872-4.301-2.75-6.728-2.75 c-6.231,0-9.536,4.388-9.507,9.653c0.059,5.148,3.393,9.419,9.507,9.419c2.428,0,4.856-0.936,6.699-2.75L115.584,39.421z"/>
		<path d="M117.261,21.841h16.294v0.907h-7.694v19.57h-0.936v-19.57h-7.664V21.841z"/>
		<polygon points="9.741,21.82 0,42.317 1.111,42.317 9.741,23.756 18.37,42.317 19.482,42.317"/>
		<polygon points="87.237,21.82 77.496,42.317 78.608,42.317 87.237,23.756 95.866,42.317 96.978,42.317"/>

		<path d="M26.468,55.032c-0.466,0.459-1.067,0.673-1.72,0.673c-1.681,0-2.393-1.158-2.399-2.335 c-0.006-1.183,0.763-2.386,2.399-2.386c0.614,0,1.196,0.233,1.662,0.692l-0.569,0.55c-0.297-0.291-0.699-0.427-1.093-0.427 c-1.093,0-1.565,0.815-1.558,1.571c0.006,0.75,0.44,1.533,1.558,1.533c0.394,0,0.841-0.162,1.138-0.46L26.468,55.032z"/>
		<path d="M36.445,53.363c-0.013,1.17-0.731,2.341-2.322,2.341c-1.591,0-2.328-1.145-2.328-2.335c0-1.429,1.035-2.386,2.347-2.386 C35.689,50.997,36.458,52.187,36.445,53.363z M34.124,54.922c1.067,0,1.468-0.802,1.481-1.545c0.013-0.756-0.42-1.597-1.461-1.616 c-0.963,0-1.532,0.724-1.507,1.623C32.656,54.127,33.057,54.922,34.124,54.922z"/>
		<path d="M45.388,54.12v-3.045h0.854v4.527H45.55l-2.406-3.014v3.014h-0.853v-4.527h0.692L45.388,54.12z"/>
		<path d="M52.359,55.601v-4.52h3.253v0.821h-2.399v1.235h1.855v0.789h-1.855v1.675H52.359z"/>
		<path d="M64.846,55.601h-3.388c0-1.507,0-3.02,0-4.527h3.388v0.827h-2.541v1.041h2.451v0.796h-2.451v1.021h2.541V55.601z"/>
		<path d="M74.811,55.601h-0.976l-1.313-1.513h-0.867v1.513h-0.854v-4.533c0.718,0,1.436,0.007,2.154,0.007 c1.067,0.006,1.629,0.717,1.629,1.5c0,0.621-0.284,1.248-1.144,1.422l1.371,1.546V55.601z M71.655,51.87v1.449h1.3 c0.543,0,0.776-0.362,0.776-0.724c0-0.362-0.239-0.725-0.776-0.725H71.655z"/>
		<path d="M83.941,55.601h-3.389c0-1.507,0-3.02,0-4.527h3.389v0.827H81.4v1.041h2.451v0.796H81.4v1.021h2.541V55.601z"/>
		<path d="M92.994,54.12v-3.045h0.854v4.527h-0.692l-2.406-3.014v3.014h-0.853v-4.527h0.692L92.994,54.12z"/>
		<path d="M103.826,55.032c-0.465,0.459-1.067,0.673-1.72,0.673c-1.681,0-2.393-1.158-2.399-2.335 c-0.007-1.183,0.763-2.386,2.399-2.386c0.614,0,1.196,0.233,1.662,0.692l-0.569,0.55c-0.297-0.291-0.698-0.427-1.093-0.427 c-1.093,0-1.565,0.815-1.558,1.571c0.006,0.75,0.44,1.533,1.558,1.533c0.394,0,0.841-0.162,1.138-0.46L103.826,55.032z"/>
		<path d="M112.924,55.601h-3.388c0-1.507,0-3.02,0-4.527h3.388v0.827h-2.541v1.041h2.451v0.796h-2.451v1.021h2.541V55.601z"/>
	</g>
</svg>
