<?xml version="1.0" encoding="utf-8"?>
<!-- Generator: Adobe Illustrator 17.0.2, SVG Export Plug-In . SVG Version: 6.00 Build 0)  -->
<!DOCTYPE svg PUBLIC "-//W3C//DTD SVG 1.1//EN" "http://www.w3.org/Graphics/SVG/1.1/DTD/svg11.dtd">
<svg version="1.1" id="Layer_1" xmlns="http://www.w3.org/2000/svg" xmlns:xlink="http://www.w3.org/1999/xlink" x="0px" y="0px"
	 width="100px" height="100px" viewBox="0 0 100 100" enable-background="new 0 0 100 100" xml:space="preserve">
<title>circles</title>
<def>
	<style type="text/css">
			.lines {
				fill: none;
				stroke: #ffffff;
				stroke-width: .5;
			}
	</style>
</def>
<g>
	<circle cx="-41.62" cy="30" r="20"/>
	<circle cx="-21.62" cy="50" r="20"/>
	<circle cx="-41.62" cy="70" r="20"/>
	<circle cx="-61.62" cy="50" r="20"/>
	<circle cx="-56.62" cy="35" r="20"/>
	<circle cx="-26.62" cy="35" r="20"/>
	<circle cx="-26.62" cy="65" r="20"/>
	<circle cx="-56.62" cy="65" r="20"/>
</g>
<g class="lines">
		<path d="M27.757,51.186c9.558-5.519,22.44-1.102,22.44-1.102
			s-2.616,13.364-12.175,18.883c-9.559,5.518-22.44,1.102-22.44,1.102S18.198,56.704,27.757,51.186z"/>
		<path d="M31.314,62.258c5.518-9.559,18.882-12.175,18.882-12.175
			s4.417,12.882-1.102,22.44c-5.519,9.559-18.883,12.176-18.883,12.176S25.795,71.817,31.314,62.258z"/>
		<path d="M39.932,70.068c-0.001-11.037,10.265-19.985,10.265-19.985
			s10.265,8.947,10.266,19.985c0,11.038-10.266,19.985-10.266,19.985S39.931,81.106,39.932,70.068z"/>
		<path d="M51.299,72.523c-5.519-9.558-1.102-22.44-1.102-22.44
			S63.56,52.7,69.079,62.258c5.519,9.559,1.102,22.441,1.102,22.441S56.818,82.082,51.299,72.523z"/>
		<path d="M62.372,68.966c-9.559-5.519-12.175-18.882-12.175-18.882
			s12.881-4.416,22.44,1.102c9.559,5.518,12.174,18.883,12.174,18.883S71.93,74.485,62.372,68.966z"/>
		<path d="M70.182,60.349c-11.037,0-19.985-10.265-19.985-10.265
			s8.947-10.266,19.985-10.266c11.037-0.001,19.985,10.266,19.985,10.266S81.219,60.349,70.182,60.349z"/>
		<path d="M72.637,48.981c-9.559,5.518-22.44,1.102-22.44,1.102
			s2.616-13.364,12.175-18.883c9.558-5.52,22.44-1.102,22.44-1.102S82.195,43.462,72.637,48.981z"/>
		<path d="M69.079,37.908c-5.518,9.559-18.882,12.175-18.882,12.175
			s-4.416-12.882,1.102-22.44c5.518-9.559,18.883-12.175,18.883-12.175S74.598,28.35,69.079,37.908z"/>
		<path d="M60.462,30.098c0.001,11.037-10.265,19.985-10.265,19.985
			s-10.265-8.948-10.266-19.985c0-11.038,10.266-19.985,10.266-19.985S60.462,19.061,60.462,30.098z"/>
		<path d="M49.095,27.643c5.519,9.558,1.102,22.44,1.102,22.44
			s-13.364-2.616-18.883-12.175c-5.519-9.559-1.102-22.441-1.102-22.441S43.575,18.084,49.095,27.643z"/>
		<path d="M38.022,31.201c9.558,5.518,12.174,18.883,12.174,18.883
			s-12.881,4.416-22.44-1.102c-9.56-5.519-12.175-18.883-12.175-18.883S28.463,25.682,38.022,31.201z"/>
		<path d="M30.212,39.818c11.037,0,19.985,10.266,19.985,10.266
			s-8.947,10.265-19.985,10.265c-11.038,0-19.986-10.266-19.986-10.266S19.174,39.818,30.212,39.818z"/>
		<path d="M38.476,50.659c4.992-2.882,11.72-0.576,11.72-0.576
			s-1.367,6.98-6.359,9.862c-4.993,2.882-11.721,0.576-11.721,0.576S33.483,53.541,38.476,50.659z"/>
		<path d="M40.334,56.442c2.882-4.993,9.862-6.359,9.862-6.359
			s2.307,6.728-0.576,11.72c-2.883,4.993-9.862,6.359-9.862,6.359S37.452,61.435,40.334,56.442z"/>
		<path d="M44.835,60.522c0-5.765,5.361-10.438,5.361-10.438
			s5.362,4.673,5.362,10.438c0,5.765-5.362,10.438-5.362,10.438S44.835,66.287,44.835,60.522z"/>
		<path d="M50.772,61.804c-2.882-4.992-0.576-11.72-0.576-11.72
			s6.98,1.366,9.862,6.359c2.883,4.993,0.576,11.721,0.576,11.721S53.655,66.796,50.772,61.804z"/>
		<path d="M56.556,59.946c-4.992-2.882-6.359-9.862-6.359-9.862
			s6.728-2.307,11.721,0.576c4.993,2.882,6.359,9.862,6.359,9.862S61.548,62.828,56.556,59.946z"/>
		<path d="M60.635,55.445c-5.765,0-10.438-5.362-10.438-5.362
			s4.673-5.362,10.438-5.362c5.765,0,10.438,5.362,10.438,5.362S66.4,55.445,60.635,55.445z"/>
		<path d="M61.917,49.508c-4.993,2.882-11.72,0.576-11.72,0.576
			s1.366-6.98,6.359-9.863c4.992-2.883,11.721-0.575,11.721-0.575S66.91,46.625,61.917,49.508z"/>
		<path d="M60.059,43.724c-2.882,4.993-9.862,6.359-9.862,6.359
			s-2.307-6.728,0.576-11.721c2.882-4.993,9.862-6.359,9.862-6.359S62.941,38.732,60.059,43.724z"/>
		<path d="M55.558,39.645c0,5.765-5.362,10.438-5.362,10.438
			s-5.361-4.673-5.362-10.438c0-5.765,5.362-10.438,5.362-10.438S55.558,33.88,55.558,39.645z"/>
		<path d="M49.621,38.363c2.883,4.992,0.576,11.721,0.576,11.721
			s-6.98-1.367-9.862-6.359c-2.883-4.993-0.576-11.721-0.576-11.721S46.738,33.37,49.621,38.363z"/>
		<path d="M43.838,40.221c4.992,2.882,6.359,9.862,6.359,9.862
			s-6.728,2.306-11.72-0.576c-4.993-2.882-6.359-9.863-6.359-9.863S38.845,37.339,43.838,40.221z"/>
		<path d="M39.759,44.722c5.765,0,10.438,5.362,10.438,5.362
			s-4.673,5.361-10.438,5.362c-5.765,0-10.439-5.362-10.439-5.362S33.994,44.722,39.759,44.722z"/>
</g>
</svg>
