<?xml version="1.0" encoding="utf-8"?>
<!-- Generator: Adobe Illustrator 17.0.2, SVG Export Plug-In . SVG Version: 6.00 Build 0)  -->
<!DOCTYPE svg PUBLIC "-//W3C//DTD SVG 1.1//EN" "http://www.w3.org/Graphics/SVG/1.1/DTD/svg11.dtd">
<svg version="1.1" id="Layer_1" xmlns="http://www.w3.org/2000/svg" xmlns:xlink="http://www.w3.org/1999/xlink" x="0px" y="0px"
	 width="81px" height="81px" viewBox="0 0 81 81" enable-background="new 0 0 81 81" xml:space="preserve">
<g>
	<g>
		<path fill="#CF4193" d="M29.583,38.741v0.3c5.161,0,9.555,1.259,10.635,1.595c-0.43,1.895-3.407,13.611-12.115,18.639
			c-3.18,1.836-7.071,2.767-11.564,2.767c-5.162,0-9.555-1.258-10.635-1.594c0.43-1.895,3.407-13.612,12.115-18.64
			c3.18-1.836,7.071-2.767,11.564-2.767V38.741 M29.583,38.741c-3.78,0-7.996,0.661-11.714,2.807
			C8.2,47.131,5.553,60.65,5.553,60.65s4.935,1.692,10.986,1.692c3.78,0,7.996-0.661,11.714-2.807
			c9.669-5.583,12.316-19.102,12.316-19.102S35.633,38.741,29.583,38.741L29.583,38.741z"/>
	</g>
	<g>
		<path fill="#CF4193" d="M40.367,40.784c0.575,1.858,3.853,13.496-1.172,22.198c-5.025,8.703-16.742,11.684-18.639,12.116
			c-0.575-1.859-3.853-13.497,1.173-22.2C26.753,44.196,38.47,41.216,40.367,40.784 M40.569,40.433c0,0-13.519,2.646-19.101,12.316
			c-5.583,9.669-1.115,22.701-1.115,22.701s13.519-2.647,19.101-12.317C45.037,53.464,40.569,40.433,40.569,40.433L40.569,40.433z"
			/>
	</g>
	<g>
		<path fill="#CF4193" d="M40.569,40.838c1.427,1.321,10.084,9.756,10.084,19.811c0,10.05-8.658,18.49-10.085,19.811
			c-1.427-1.321-10.084-9.756-10.084-19.811C30.485,50.601,39.142,42.161,40.569,40.838 M40.569,40.433
			c0,0-10.384,9.052-10.384,20.216c-0.001,11.166,10.384,20.217,10.384,20.217s10.384-9.051,10.384-20.217
			C50.953,49.484,40.569,40.433,40.569,40.433L40.569,40.433z"/>
	</g>
	<g>
		<path fill="#CF4193" d="M40.772,40.784c1.896,0.431,13.611,3.407,18.639,12.115c5.025,8.703,1.747,20.341,1.172,22.2
			c-1.896-0.431-13.611-3.408-18.639-12.116C36.92,54.28,40.197,42.643,40.772,40.784 M40.569,40.433c0,0-4.467,13.031,1.115,22.699
			c5.583,9.67,19.101,12.317,19.101,12.317s4.468-13.031-1.115-22.701C54.087,43.079,40.569,40.433,40.569,40.433L40.569,40.433z"/>
	</g>
	<g>
		<path fill="#CF4193" d="M51.557,38.741v0.3c4.492,0,8.382,0.931,11.563,2.767c8.703,5.024,11.683,16.743,12.114,18.639
			c-1.08,0.336-5.474,1.595-10.635,1.595c-4.493,0-8.383-0.931-11.564-2.767c-8.703-5.025-11.684-16.743-12.115-18.639
			c1.08-0.336,5.47-1.594,10.635-1.595L51.557,38.741 M51.556,38.741c-6.05,0-10.986,1.692-10.986,1.692s2.647,13.518,12.316,19.101
			c3.719,2.147,7.933,2.807,11.714,2.807c6.05,0,10.986-1.692,10.986-1.692S72.939,47.13,63.27,41.548
			C59.551,39.401,55.336,38.741,51.556,38.741L51.556,38.741z"/>
	</g>
	<g>
		<path fill="#CF4193" d="M60.787,30.349c10.049,0,18.489,8.659,19.81,10.085c-1.321,1.427-9.756,10.084-19.811,10.084
			c-10.05,0-18.49-8.658-19.811-10.084C42.296,39.006,50.73,30.349,60.787,30.349 M60.786,30.049
			c-11.166,0-20.216,10.384-20.216,10.384s9.051,10.384,20.216,10.384c11.165,0,20.216-10.384,20.216-10.384
			S71.951,30.048,60.786,30.049L60.786,30.049z"/>
	</g>
	<g>
		<path fill="#CF4193" d="M64.598,18.824c5.161,0,9.556,1.259,10.636,1.595c-0.431,1.895-3.407,13.611-12.115,18.639
			c-3.18,1.836-7.071,2.767-11.564,2.767c-5.161,0-9.554-1.258-10.635-1.594c0.431-1.896,3.411-13.614,12.115-18.639
			C56.215,19.755,60.106,18.824,64.598,18.824 M64.598,18.524c-3.78,0-7.995,0.661-11.713,2.808
			c-9.67,5.583-12.316,19.101-12.316,19.101s4.935,1.692,10.986,1.692c3.78,0,7.996-0.661,11.714-2.807
			c9.669-5.583,12.316-19.101,12.316-19.101S70.649,18.524,64.598,18.524L64.598,18.524z"/>
	</g>
	<g>
		<path fill="#CF4193" d="M60.583,5.768c0.575,1.858,3.852,13.496-1.173,22.199c-5.024,8.703-16.741,11.683-18.638,12.115
			c-0.575-1.858-3.852-13.496,1.172-22.199C46.968,9.18,58.686,6.2,60.583,5.768 M60.786,5.417c0,0-13.519,2.646-19.101,12.316
			c-5.582,9.669-1.115,22.7-1.115,22.7s13.519-2.647,19.101-12.316C65.253,18.448,60.786,5.417,60.786,5.417L60.786,5.417z"/>
	</g>
	<g>
		<path fill="#CF4193" d="M40.57,0.405c1.427,1.322,10.083,9.762,10.083,19.811c0.001,10.049-8.657,18.489-10.084,19.811
			c-1.427-1.322-10.084-9.762-10.084-19.811C30.485,10.167,39.143,1.727,40.57,0.405 M40.57,0c0,0-10.385,9.051-10.385,20.217
			c0.001,11.165,10.384,20.217,10.384,20.217s10.384-9.052,10.384-20.216C50.953,9.051,40.57,0,40.57,0L40.57,0z"/>
	</g>
	<g>
		<path fill="#CF4193" d="M20.556,5.767c1.896,0.431,13.611,3.408,18.639,12.116c5.025,8.702,1.747,20.34,1.172,22.199
			c-1.897-0.431-13.614-3.412-18.639-12.115C16.703,19.264,19.981,7.625,20.556,5.767 M20.353,5.416c0,0-4.468,13.031,1.115,22.701
			c5.582,9.669,19.101,12.316,19.101,12.316s4.468-13.031-1.115-22.7C33.871,8.064,20.353,5.416,20.353,5.416L20.353,5.416z"/>
	</g>
	<g>
		<path fill="#CF4193" d="M16.539,18.524v0.3c4.493,0,8.384,0.931,11.565,2.767c8.703,5.024,11.683,16.743,12.114,18.639
			c-1.08,0.336-5.474,1.594-10.635,1.594c-4.493,0-8.384-0.931-11.564-2.767C9.315,34.033,6.336,22.314,5.905,20.418
			c1.079-0.336,5.469-1.594,10.634-1.594V18.524 M16.539,18.524c-6.05,0-10.985,1.692-10.985,1.692s2.645,13.519,12.316,19.102
			c3.719,2.147,7.934,2.807,11.714,2.807c6.05,0,10.986-1.692,10.986-1.692s-2.647-13.519-12.315-19.101
			C24.535,19.185,20.319,18.524,16.539,18.524L16.539,18.524z"/>
	</g>
	<g>
		<path fill="#CF4193" d="M20.353,30.349c10.049,0,18.489,8.658,19.811,10.085c-1.321,1.427-9.756,10.084-19.811,10.084
			c-10.05,0-18.49-8.658-19.812-10.085C1.864,39.006,10.304,30.349,20.353,30.349 M20.353,30.049
			c-11.165,0-20.217,10.384-20.217,10.384s9.051,10.385,20.217,10.385c11.165-0.001,20.216-10.384,20.216-10.384
			S31.518,30.049,20.353,30.049L20.353,30.049z"/>
	</g>
</g>
<g>
	<g>
		<path fill="#CF4193" d="M34.831,39.549v0.3c2.506,0,4.664,0.573,5.385,0.788c-0.31,1.291-1.901,7.014-6.229,9.513
			c-1.639,0.946-3.647,1.426-5.968,1.426c-2.506,0-4.663-0.573-5.385-0.787c0.31-1.291,1.901-7.014,6.229-9.513
			c1.639-0.946,3.647-1.426,5.968-1.426V39.549 M34.831,39.549c-1.974,0-4.176,0.345-6.118,1.466
			c-5.051,2.916-6.433,9.977-6.433,9.977s2.578,0.884,5.738,0.884c1.974,0,4.176-0.345,6.118-1.466
			c5.05-2.916,6.433-9.977,6.433-9.977S37.991,39.549,34.831,39.549L34.831,39.549z"/>
	</g>
	<g>
		<path fill="#CF4193" d="M40.365,40.787c0.377,1.274,1.861,7.024-0.638,11.352c-2.499,4.329-8.222,5.92-9.513,6.23
			c-0.378-1.273-1.864-7.02,0.638-11.353C33.351,42.687,39.073,41.097,40.365,40.787 M40.569,40.433c0,0-7.061,1.382-9.976,6.432
			c-2.916,5.05-0.582,11.856-0.582,11.856s7.061-1.383,9.977-6.433C42.903,47.239,40.569,40.433,40.569,40.433L40.569,40.433z"/>
	</g>
	<g>
		<path fill="#CF4193" d="M40.569,40.841c0.964,0.913,5.124,5.148,5.124,10.151c0,4.998-4.16,9.237-5.124,10.151
			c-0.964-0.914-5.124-5.153-5.123-10.151C35.445,45.994,39.606,41.755,40.569,40.841 M40.569,40.433c0,0-5.424,4.728-5.423,10.559
			c0,5.832,5.423,10.559,5.423,10.559s5.424-4.727,5.424-10.559C45.993,45.16,40.569,40.433,40.569,40.433L40.569,40.433z"/>
	</g>
	<g>
		<path fill="#CF4193" d="M40.773,40.786c1.291,0.309,7.011,1.896,9.513,6.229c2.499,4.329,1.015,10.08,0.638,11.353
			c-1.291-0.309-7.011-1.897-9.513-6.23C38.912,47.811,40.396,42.06,40.773,40.786 M40.569,40.433c0,0-2.333,6.806,0.582,11.856
			c2.916,5.051,9.977,6.433,9.977,6.433s2.334-6.806-0.582-11.856C47.63,41.815,40.569,40.433,40.569,40.433L40.569,40.433z"/>
	</g>
	<g>
		<path fill="#CF4193" d="M46.308,39.849L46.308,39.849c2.32,0,4.328,0.48,5.967,1.426c4.329,2.499,5.919,8.222,6.229,9.513
			c-0.721,0.215-2.879,0.788-5.384,0.788c-2.321,0-4.329-0.48-5.968-1.426c-4.329-2.499-5.919-8.222-6.229-9.513
			C41.643,40.422,43.798,39.849,46.308,39.849 M46.307,39.549c-3.16,0-5.738,0.884-5.738,0.884s1.383,7.061,6.433,9.976
			c1.942,1.121,4.144,1.466,6.118,1.466c3.16,0,5.738-0.884,5.738-0.884s-1.382-7.061-6.432-9.977
			C50.483,39.894,48.282,39.549,46.307,39.549L46.307,39.549z"/>
	</g>
	<g>
		<path fill="#CF4193" d="M51.129,35.309c4.997,0,9.236,4.16,10.15,5.124c-0.914,0.964-5.153,5.123-10.151,5.123
			c-4.998,0-9.236-4.16-10.151-5.124C41.892,39.469,46.13,35.309,51.129,35.309 M51.128,35.009c-5.832,0-10.559,5.424-10.559,5.424
			s4.727,5.424,10.559,5.424c5.832,0,10.559-5.423,10.559-5.423S56.96,35.009,51.128,35.009L51.128,35.009z"/>
	</g>
	<g>
		<path fill="#CF4193" d="M53.12,29.29L53.12,29.29c2.506,0,4.664,0.573,5.385,0.788c-0.31,1.291-1.901,7.014-6.229,9.513
			c-1.639,0.946-3.647,1.426-5.968,1.426c-2.506,0-4.664-0.573-5.385-0.787c0.309-1.291,1.896-7.011,6.229-9.513
			C48.79,29.77,50.798,29.29,53.12,29.29 M53.119,28.99c-1.974,0-4.176,0.345-6.117,1.466c-5.051,2.916-6.433,9.977-6.433,9.977
			s2.578,0.884,5.738,0.884c1.974,0,4.176-0.345,6.118-1.466c5.05-2.916,6.433-9.976,6.433-9.976S56.28,28.99,53.119,28.99
			L53.119,28.99z"/>
	</g>
	<g>
		<path fill="#CF4193" d="M50.924,22.498c0.377,1.274,1.86,7.024-0.638,11.353c-2.499,4.328-8.221,5.919-9.512,6.229
			c-0.377-1.274-1.861-7.025,0.638-11.353C43.91,24.398,49.632,22.808,50.924,22.498 M51.128,22.144c0,0-7.061,1.382-9.977,6.433
			c-2.916,5.05-0.582,11.856-0.582,11.856S47.63,39.051,50.545,34C53.461,28.95,51.128,22.144,51.128,22.144L51.128,22.144z"/>
	</g>
	<g>
		<path fill="#CF4193" d="M40.569,19.723c0.964,0.914,5.123,5.153,5.123,10.151c0,4.998-4.16,9.237-5.124,10.151
			c-0.964-0.913-5.123-5.148-5.124-10.151C35.445,24.876,39.606,20.637,40.569,19.723 M40.569,19.315c0,0-5.424,4.727-5.424,10.559
			c0,5.832,5.424,10.559,5.424,10.559s5.424-4.728,5.424-10.559C45.993,24.042,40.569,19.315,40.569,19.315L40.569,19.315z"/>
	</g>
	<g>
		<path fill="#CF4193" d="M30.214,22.497c1.291,0.309,7.011,1.897,9.513,6.23c2.499,4.328,1.015,10.079,0.638,11.353
			c-1.292-0.31-7.014-1.901-9.513-6.229C28.353,29.522,29.837,23.771,30.214,22.497 M30.01,22.144c0,0-2.334,6.806,0.582,11.856
			c2.916,5.05,9.977,6.433,9.977,6.433s2.334-6.806-0.582-11.856C37.071,23.526,30.01,22.144,30.01,22.144L30.01,22.144z"/>
	</g>
	<g>
		<path fill="#CF4193" d="M28.018,29.29L28.018,29.29c2.321,0,4.329,0.48,5.969,1.426c4.328,2.499,5.919,8.222,6.229,9.513
			c-0.721,0.215-2.879,0.787-5.384,0.787c-2.321,0-4.329-0.48-5.968-1.426c-4.329-2.499-5.919-8.223-6.229-9.513
			C23.354,29.863,25.508,29.29,28.018,29.29 M28.018,28.99c-3.16,0-5.737,0.884-5.737,0.884s1.382,7.061,6.432,9.977
			c1.942,1.121,4.144,1.466,6.118,1.466c3.16,0,5.738-0.884,5.738-0.884s-1.382-7.061-6.432-9.977
			C32.195,29.335,29.993,28.99,28.018,28.99L28.018,28.99z"/>
	</g>
	<g>
		<path fill="#CF4193" d="M30.01,35.309c4.998,0,9.237,4.161,10.151,5.124c-0.913,0.964-5.148,5.123-10.151,5.123
			c-4.998,0-9.237-4.16-10.151-5.124C20.774,39.469,25.012,35.309,30.01,35.309 M30.01,35.009c-5.832,0-10.559,5.423-10.559,5.423
			s4.727,5.424,10.559,5.424c5.832,0,10.559-5.424,10.559-5.424S35.842,35.009,30.01,35.009L30.01,35.009z"/>
	</g>
</g>
</svg>
