<?xml version="1.0" encoding="utf-8"?>
<!-- Generator: Adobe Illustrator 17.0.2, SVG Export Plug-In . SVG Version: 6.00 Build 0)  -->
<!DOCTYPE svg PUBLIC "-//W3C//DTD SVG 1.1//EN" "http://www.w3.org/Graphics/SVG/1.1/DTD/svg11.dtd">
<svg version="1.1" id="Layer_1" xmlns="http://www.w3.org/2000/svg" xmlns:xlink="http://www.w3.org/1999/xlink" x="0px" y="0px"
	 width="81px" height="81px" viewBox="0 0 81 81" enable-background="new 0 0 81 81" xml:space="preserve">
<g>
	<path fill="#BA4699" d="M32.746,20.405L32.746,20.405c2.007,0,4.838,1.661,7.798,4.569c-1.31,1.11-2.822,2.59-4.608,4.511
		c-2.571,0.057-4.872,0.233-6.843,0.524c-0.144-5.065,0.774-8.553,2.473-9.361C31.905,20.487,32.302,20.405,32.746,20.405
		 M49.415,20.598c0.469,0,0.914,0.085,1.323,0.253c2.22,0.911,2.292,6.612,2.002,9.776c-2.767-0.522-4.883-0.798-7.195-0.938
		c-0.859-1.028-1.71-2.024-2.531-2.964c-0.526-0.602-1.056-1.176-1.579-1.71C44,22.941,46.904,20.598,49.415,20.598 M37.894,30.064
		c2.353,0,4.456,0.085,5.992,0.148l0.486,0.02c0.299,0.012,0.592,0.026,0.88,0.042c3.163,3.793,5.629,7.037,6.268,7.885
		c-0.297,1.481-0.603,2.796-0.91,3.912c-0.486,1.765-1.042,3.611-1.61,5.347c-1.544,0.833-2.934,1.525-4.246,2.112
		c-1.006,0.45-2.47,1.049-4.134,1.69c-0.312-0.152-0.682-0.329-1.099-0.529c-1.885-0.903-4.721-2.262-7.535-3.801
		c-0.207-0.778-1.297-4.952-2.072-9.433c1-1.333,1.904-2.458,2.686-3.347l0.406-0.461c0.897-1.02,2.007-2.283,3.199-3.57
		C36.777,30.068,37.342,30.064,37.894,30.064 M28.518,30.705c0.036,0.781,0.096,1.59,0.178,2.409
		c0.127,1.258,0.323,2.668,0.581,4.19c-1.643,2.203-3.025,4.255-3.709,5.292c-0.033,0.05-0.067,0.102-0.101,0.155
		c-4.253-3.339-6.441-6.362-5.863-8.116C20.182,32.886,23.18,31.565,28.518,30.705 M53.268,31.339
		c2.4,0.466,7.904,1.626,8.541,4.375c0.654,2.825-2.897,5.777-6.111,7.811c-1.677-3.025-3.51-5.476-3.528-5.5l-0.009-0.012
		c0.534-2.707,0.905-5.266,1.065-6.369l0.024-0.166C53.255,31.436,53.261,31.39,53.268,31.339 M25.625,43.629
		c1.465,1.102,3.428,2.332,5.841,3.661c0.156,0.664,0.919,3.837,1.874,6.423c-2.23,0.543-4.162,0.818-5.744,0.818
		c-1.934,0-3.299-0.406-4.058-1.207C21.811,51.501,23.547,47.029,25.625,43.629 M55.474,44.37c2.312,4.323,3.016,7.531,2.037,9.289
		c-0.589,1.057-1.836,1.593-3.706,1.593c-1.727,0-3.952-0.45-6.619-1.337c0.857-1.852,1.715-4.286,2.308-6.083
		c1.667-0.905,3.577-2.01,5.833-3.373C55.377,44.429,55.426,44.399,55.474,44.37 M40.592,51.873c1.155,0.554,3.31,1.535,5.761,2.391
		c-0.002,0.004-0.004,0.008-0.006,0.012c-0.244,0.486-0.49,1.025-0.749,1.595c-1.238,2.719-2.778,6.102-5.473,6.102
		c-2.895-0.032-4.777-4.794-5.901-7.638l-0.083-0.209C35.462,53.755,37.915,52.899,40.592,51.873 M32.746,20.105
		c-0.492,0-0.93,0.092-1.308,0.272c-1.982,0.942-2.821,4.929-2.633,9.979c0.071-0.011,0.142-0.022,0.214-0.033
		c2.28-0.344,4.731-0.494,7.051-0.541c1.589-1.713,3.323-3.469,4.92-4.79C37.627,21.623,34.742,20.105,32.746,20.105L32.746,20.105z
		 M49.415,20.298c-2.631,0-5.633,2.433-8.212,4.519c-0.071,0.057-0.142,0.116-0.214,0.175c0.586,0.587,1.186,1.23,1.798,1.931
		c0.904,1.035,1.781,2.065,2.61,3.058c2.722,0.158,5.007,0.502,7.609,1.002c0.237-2.257,0.551-9.3-2.155-10.41
		C50.389,20.383,49.909,20.298,49.415,20.298L49.415,20.298z M37.894,29.764c-0.595,0-1.205,0.005-1.824,0.018
		c-1.413,1.523-2.711,3.012-3.696,4.13c-0.871,0.989-1.83,2.201-2.779,3.468c0.844,4.927,2.078,9.506,2.133,9.711
		c3.486,1.913,7.028,3.557,8.767,4.402c0.035,0.017,0.072,0.035,0.11,0.053c1.634-0.628,3.192-1.26,4.27-1.743
		c1.356-0.607,2.785-1.32,4.371-2.179c0.618-1.881,1.191-3.803,1.651-5.475c0.353-1.281,0.668-2.691,0.942-4.064
		c-0.503-0.669-3.084-4.083-6.442-8.105c-0.331-0.019-0.669-0.036-1.015-0.05C42.842,29.87,40.515,29.764,37.894,29.764
		L37.894,29.764z M28.804,30.356c-5.444,0.842-8.817,2.162-9.484,4.184c-0.675,2.047,1.888,5.298,6.224,8.649
		c0.095-0.151,0.187-0.294,0.276-0.429c1.029-1.561,2.391-3.53,3.775-5.381c-0.246-1.436-0.459-2.902-0.6-4.297
		C28.901,32.149,28.837,31.236,28.804,30.356L28.804,30.356z M53.007,30.983c-0.019,0.184-0.038,0.337-0.055,0.452
		c-0.15,1.029-0.537,3.76-1.112,6.651c0.059,0.078,0.089,0.119,0.089,0.119s1.933,2.574,3.659,5.744
		c4.069-2.526,7.164-5.495,6.513-8.302c-0.672-2.901-6.106-4.088-9.045-4.654C53.04,30.989,53.023,30.986,53.007,30.983
		L53.007,30.983z M25.544,43.19c-1.749,2.789-4.317,8.132-2.223,10.341c0.931,0.983,2.553,1.301,4.276,1.301
		c2.359,0,4.907-0.597,6.124-0.903c0.007-0.002,0.013-0.003,0.02-0.005c-1.13-2.948-2.01-6.825-2.01-6.825s-0.001-0.002-0.002-0.007
		c-2.246-1.233-4.469-2.577-6.171-3.892C25.553,43.196,25.548,43.193,25.544,43.19L25.544,43.19z M55.588,43.948
		c-0.137,0.085-0.276,0.17-0.415,0.254c-2.239,1.353-4.178,2.476-5.926,3.422c-0.8,2.434-1.674,4.8-2.475,6.467
		c2.356,0.804,4.925,1.46,7.034,1.46c1.798,0,3.26-0.477,3.968-1.747C59.071,51.476,57.449,47.366,55.588,43.948L55.588,43.948z
		 M40.605,51.546c-2.672,1.027-5.548,2.042-6.865,2.377c0.034,0.088,0.068,0.175,0.102,0.261c1.178,2.974,3.092,8.054,6.28,8.089
		c0.013,0,0.026,0,0.039,0c3.423,0,5.006-4.984,6.454-7.862c0.052-0.103,0.104-0.21,0.157-0.32
		C44.128,53.189,41.754,52.101,40.605,51.546L40.605,51.546z"/>
</g>
<g>
	<g>
		<path fill="#BA4699" d="M52.46,2.465L52.46,2.465c0.441,0,0.876,0.074,1.292,0.22c4.016,1.412,4.451,8.467,1.109,17.975
			c-3.241,9.221-12.236,17.586-14.234,19.364c-0.446-2.636-2.23-14.787,1.013-24.011C44.622,7.53,48.667,2.465,52.46,2.465
			 M52.46,2.165c-3.572,0-7.833,4.444-11.103,13.748C37.649,26.461,40.425,40.6,40.425,40.6s11.012-9.292,14.719-19.84
			c3.708-10.548,2.515-17.019-1.293-18.358C53.403,2.244,52.938,2.165,52.46,2.165L52.46,2.165z"/>
	</g>
	<g>
		<path fill="#BA4699" d="M30.073,1.815c3.795,0,7.761,5.385,10.351,14.053c2.798,9.365,0.438,21.419-0.134,24.032
			c-1.911-1.871-10.496-10.656-13.294-20.021c-2.885-9.657-2.113-16.683,1.965-17.902C29.323,1.87,29.697,1.815,30.073,1.815
			 M30.073,1.515c-0.407,0-0.807,0.059-1.198,0.175c-3.867,1.155-5.367,7.562-2.167,18.275c3.2,10.713,13.756,20.519,13.756,20.519
			s3.447-13.99,0.247-24.702C37.835,6.153,33.69,1.515,30.073,1.515L30.073,1.515z"/>
	</g>
	<g>
		<path fill="#BA4699" d="M12.501,14.397c3.47,0,8.253,2.194,13.469,6.177c7.768,5.932,12.944,17.071,14.018,19.521
			c-2.646-0.391-14.755-2.451-22.523-8.383c-8.01-6.117-11.516-12.255-8.933-15.638C9.369,14.977,10.742,14.397,12.501,14.397
			 M12.501,14.097c-1.887,0-3.317,0.628-4.208,1.794c-2.449,3.207,0.103,9.273,8.989,16.059c8.886,6.786,23.19,8.515,23.19,8.515
			s-5.434-13.344-14.32-20.13C20.498,16.018,15.801,14.097,12.501,14.097L12.501,14.097z"/>
	</g>
	<g>
		<path fill="#BA4699" d="M15.752,32.864c0.425,0,0.859,0.005,1.302,0.016c9.771,0.233,20.507,6.203,22.815,7.554
			c-2.32,1.214-12.917,6.464-22.529,6.464c-0.207,0-0.415-0.002-0.62-0.007c-5.231-0.125-9.539-0.958-12.457-2.41
			c-2.638-1.313-4.008-3.038-3.962-4.991C0.397,35.464,6.462,32.864,15.752,32.864 M15.752,32.564
			c-10.32,0-15.658,3.044-15.751,6.918c-0.096,4.034,5.534,7.441,16.711,7.708c0.208,0.005,0.419,0.007,0.628,0.007
			c11.016,0,23.139-6.749,23.139-6.749s-12.24-7.601-23.417-7.868C16.616,32.569,16.18,32.564,15.752,32.564L15.752,32.564z"/>
	</g>
	<g>
		<path fill="#BA4699" d="M39.951,40.867c-1.189,2.395-6.888,13.273-14.933,18.83c-5.169,3.57-9.906,5.537-13.337,5.537
			c-1.964,0-3.45-0.648-4.296-1.874c-1.11-1.607-0.911-3.802,0.575-6.346c1.643-2.814,4.788-5.874,9.094-8.848
			C25.096,42.611,37.29,41.131,39.951,40.867 M40.453,40.52c0,0-14.37,1.045-23.57,7.399C7.684,54.273,4.845,60.21,7.138,63.53
			c0.896,1.297,2.443,2.003,4.543,2.003c3.277,0,7.901-1.718,13.507-5.59C34.388,53.59,40.453,40.52,40.453,40.52L40.453,40.52z"/>
	</g>
	<g>
		<path fill="#BA4699" d="M40.263,41.06c0.446,2.636,2.23,14.787-1.013,24.011c-2.982,8.483-7.027,13.548-10.82,13.548
			c-0.442,0-0.876-0.074-1.292-0.22c-4.016-1.412-4.451-8.467-1.109-17.975C29.27,51.203,38.265,42.838,40.263,41.06 M40.465,40.485
			c0,0-11.011,9.292-14.719,19.84c-3.708,10.548-2.515,17.019,1.292,18.358c0.449,0.158,0.914,0.237,1.392,0.237
			c3.572,0,7.833-4.444,11.103-13.748C43.241,54.623,40.465,40.485,40.465,40.485L40.465,40.485z"/>
	</g>
	<g>
		<path fill="#BA4699" d="M40.627,41.105c1.911,1.87,10.495,10.653,13.294,20.021c2.885,9.656,2.113,16.683-1.965,17.902
			c-0.362,0.108-0.736,0.163-1.112,0.163c-3.795,0-7.761-5.385-10.351-14.053C37.696,55.772,40.056,43.717,40.627,41.105
			 M40.453,40.52c0,0-3.447,13.99-0.247,24.702c2.877,9.629,7.021,14.267,10.638,14.267c0.407,0,0.807-0.059,1.198-0.175
			c3.867-1.155,5.367-7.562,2.167-18.275C51.009,50.327,40.453,40.52,40.453,40.52L40.453,40.52z"/>
	</g>
	<g>
		<path fill="#BA4699" d="M40.963,40.818c2.646,0.391,14.755,2.451,22.523,8.383c4.159,3.176,7.154,6.382,8.661,9.271
			c1.363,2.613,1.457,4.814,0.271,6.366c-0.838,1.097-2.21,1.677-3.969,1.677c-3.47,0-8.253-2.194-13.469-6.176
			C47.213,54.407,42.036,43.267,40.963,40.818 M40.478,40.448c0,0,5.434,13.344,14.32,20.13c5.654,4.317,10.351,6.238,13.651,6.238
			c1.887,0,3.317-0.628,4.208-1.795c2.449-3.207-0.103-9.273-8.989-16.058C54.782,42.177,40.478,40.448,40.478,40.448L40.478,40.448
			z"/>
	</g>
	<g>
		<path fill="#BA4699" d="M63.611,34.016c0.207,0,0.414,0.002,0.62,0.007c5.231,0.125,9.539,0.958,12.457,2.41
			c2.638,1.313,4.008,3.039,3.962,4.991c-0.096,4.025-6.161,6.625-15.451,6.625c-0.425,0-0.859-0.005-1.302-0.016
			C54.125,47.8,43.39,41.83,41.082,40.48C43.402,39.266,53.999,34.016,63.611,34.016 M63.611,33.716
			c-11.016,0-23.139,6.75-23.139,6.75s12.24,7.601,23.417,7.868c0.445,0.011,0.881,0.016,1.309,0.016
			c10.32,0,15.658-3.044,15.751-6.918c0.096-4.035-5.534-7.441-16.711-7.708C64.03,33.718,63.82,33.716,63.611,33.716L63.611,33.716
			z"/>
	</g>
	<g>
		<path fill="#BA4699" d="M69.236,15.771c1.964,0,3.45,0.648,4.296,1.874c1.11,1.607,0.911,3.802-0.575,6.346
			c-1.643,2.814-4.788,5.874-9.094,8.848c-8.042,5.555-20.236,7.035-22.897,7.299c1.189-2.395,6.888-13.274,14.933-18.83
			C61.069,17.737,65.805,15.771,69.236,15.771 M69.236,15.471c-3.277,0-7.901,1.718-13.507,5.59
			c-9.199,6.354-15.264,19.424-15.264,19.424s14.37-1.045,23.57-7.399c9.199-6.354,12.038-12.291,9.745-15.611
			C72.884,16.177,71.337,15.471,69.236,15.471L69.236,15.471z"/>
	</g>
</g>
<g>
	<g>
		<path fill="#BA4699" d="M62.079,7.699L62.079,7.699c0.972,0,1.824,0.271,2.531,0.805c3.397,2.565,1.669,9.419-4.403,17.463
			c-5.889,7.801-16.999,13.039-19.443,14.126c0.375-2.647,2.367-14.766,8.258-22.569C53.736,11.28,58.495,7.699,62.079,7.699
			 M62.079,7.399c-3.391,0-8.143,3.118-13.296,9.944c-6.736,8.924-8.386,23.237-8.386,23.237s13.314-5.508,20.05-14.432
			c6.736-8.924,7.565-15.452,4.344-17.883C64.034,7.693,63.121,7.399,62.079,7.399L62.079,7.399z"/>
	</g>
	<g>
		<path fill="#BA4699" d="M41.134,0.3l0.073,0.001c4.256,0.078,6.887,6.639,6.702,16.716c-0.179,9.772-6.088,20.541-7.426,22.856
			c-1.252-2.363-6.764-13.34-6.585-23.113C34.08,6.761,36.92,0.3,41.134,0.3 M41.134,0c-4.001,0-7.334,5.647-7.537,16.754
			c-0.205,11.179,6.874,23.728,6.874,23.728s7.533-12.282,7.737-23.461c0.205-11.179-2.962-16.947-6.997-17.021
			C41.186,0,41.16,0,41.134,0L41.134,0z"/>
	</g>
	<g>
		<path fill="#BA4699" d="M19.832,6.811c3.608,0,8.301,3.754,12.875,10.299c5.599,8.011,7.148,20.197,7.426,22.856
			c-2.402-1.175-13.312-6.814-18.913-14.828c-2.998-4.289-4.878-8.253-5.436-11.464c-0.505-2.903,0.074-5.029,1.675-6.148
			C18.139,7.051,18.937,6.811,19.832,6.811 M19.832,6.511c-0.961,0-1.816,0.261-2.544,0.77c-3.308,2.312-2.718,8.866,3.687,18.03
			c6.405,9.164,19.508,15.156,19.508,15.156s-1.125-14.364-7.53-23.528C27.957,9.79,23.237,6.511,19.832,6.511L19.832,6.511z"/>
	</g>
	<g>
		<path fill="#BA4699" d="M9.624,23.956c3.03,0,6.681,0.73,10.852,2.17c9.24,3.19,17.655,12.139,19.443,14.126
			c-1.476,0.26-5.943,0.961-11.178,0.961c-4.982,0-9.301-0.619-12.838-1.84C6.375,36.084,1.118,31.359,2.507,27.335
			C3.259,25.156,5.787,23.956,9.624,23.956 M9.624,23.656c-4.093,0-6.629,1.347-7.4,3.581c-1.317,3.815,3.012,8.77,13.58,12.419
			c4.121,1.423,8.783,1.857,12.936,1.857c6.499,0,11.755-1.062,11.755-1.062s-9.353-10.96-19.921-14.608
			C16.194,24.331,12.519,23.656,9.624,23.656L9.624,23.656z"/>
	</g>
	<g>
		<path fill="#BA4699" d="M26.663,39.282c6.104,0,11.547,1.054,13.202,1.408c-1.859,1.92-10.594,10.555-19.947,13.406
			c-3.884,1.184-7.321,1.784-10.214,1.784c-4.247,0-6.981-1.296-7.698-3.65c-1.241-4.072,4.186-8.601,13.826-11.54
			C18.898,39.756,22.541,39.282,26.663,39.282 M26.663,38.982c-3.592,0-7.43,0.358-10.918,1.421
			C5.05,43.663,0.542,48.457,1.719,52.318c0.729,2.39,3.467,3.862,7.985,3.862c2.778,0,6.229-0.556,10.301-1.797
			c10.695-3.26,20.442-13.87,20.442-13.87S34.085,38.982,26.663,38.982L26.663,38.982z"/>
	</g>
	<g>
		<path fill="#BA4699" d="M40.104,40.969c-0.376,2.648-2.369,14.769-8.258,22.569c-4.713,6.244-9.472,9.825-13.056,9.825
			c-0.972,0-1.824-0.271-2.532-0.805c-3.397-2.565-1.669-9.419,4.403-17.463C26.55,47.294,37.66,42.056,40.104,40.969
			 M40.471,40.482c0,0-13.313,5.508-20.05,14.432s-7.565,15.452-4.344,17.883c0.757,0.571,1.671,0.866,2.712,0.866
			c3.391,0,8.143-3.117,13.296-9.944C38.822,54.796,40.471,40.482,40.471,40.482L40.471,40.482z"/>
	</g>
	<g>
		<path fill="#BA4699" d="M40.437,41.122c1.252,2.362,6.764,13.337,6.586,23.113c-0.183,9.999-3.024,16.46-7.237,16.46l-0.073-0.001
			c-4.256-0.078-6.887-6.639-6.702-16.716C33.19,54.206,39.099,43.438,40.437,41.122 M40.448,40.513c0,0-7.533,12.282-7.737,23.461
			c-0.205,11.179,2.962,16.947,6.997,17.021c0.026,0,0.052,0.001,0.078,0.001c4.001,0,7.334-5.647,7.537-16.755
			C47.527,53.062,40.448,40.513,40.448,40.513L40.448,40.513z"/>
	</g>
	<g>
		<path fill="#BA4699" d="M40.844,40.951c2.402,1.176,13.314,6.817,18.913,14.828c5.774,8.26,7.25,15.174,3.761,17.612
			c-0.679,0.475-1.477,0.715-2.372,0.715c-3.608,0-8.301-3.754-12.875-10.299C42.671,55.796,41.123,43.611,40.844,40.951
			 M40.495,40.451c0,0,1.125,14.364,7.53,23.528c4.996,7.148,9.716,10.427,13.121,10.427c0.961,0,1.816-0.261,2.544-0.77
			c3.308-2.312,2.718-8.866-3.687-18.03C53.598,46.443,40.495,40.451,40.495,40.451L40.495,40.451z"/>
	</g>
	<g>
		<path fill="#BA4699" d="M52.238,39.704c4.982,0,9.301,0.619,12.838,1.84c9.526,3.289,14.784,8.014,13.395,12.038
			c-0.752,2.179-3.28,3.379-7.117,3.379c-3.03,0-6.681-0.73-10.852-2.17c-9.239-3.19-17.655-12.139-19.443-14.126
			C42.536,40.405,47.002,39.704,52.238,39.704 M52.238,39.404c-6.499,0-11.755,1.062-11.755,1.062s9.353,10.96,19.921,14.609
			c4.379,1.512,8.054,2.186,10.95,2.186c4.093,0,6.629-1.347,7.401-3.581c1.317-3.815-3.012-8.77-13.581-12.419
			C61.054,39.838,56.392,39.404,52.238,39.404L52.238,39.404z"/>
	</g>
	<g>
		<path fill="#BA4699" d="M71.215,25.115c4.247,0,6.981,1.296,7.698,3.65c1.241,4.072-4.186,8.601-13.826,11.54
			c-3.065,0.934-6.709,1.408-10.83,1.408c-6.104,0-11.547-1.054-13.202-1.408c1.859-1.92,10.594-10.555,19.947-13.406
			C64.885,25.715,68.322,25.115,71.215,25.115 M71.215,24.815c-2.778,0-6.23,0.556-10.302,1.797
			c-10.695,3.26-20.442,13.87-20.442,13.87s6.363,1.53,13.786,1.53c3.592,0,7.43-0.358,10.918-1.421
			c10.695-3.26,15.202-8.054,14.026-11.914C78.472,26.287,75.734,24.815,71.215,24.815L71.215,24.815z"/>
	</g>
</g>
</svg>
