<svg xmlns="http://www.w3.org/2000/svg" width="81.1" height="81.1"><path stroke="#000" stroke-miterlimit="10" d="M18.157 41.65c9.538-5.507 22.393-1.1 22.393-1.1s-2.611 13.336-12.15 18.844c-9.539 5.507-22.393 1.1-22.393 1.1s2.611-13.337 12.15-18.844zm3.551 11.05c5.507-9.539 18.843-12.149 18.843-12.149s4.407 12.855-1.1 22.393c-5.507 9.539-18.843 12.151-18.843 12.151s-4.408-12.857 1.1-22.395zm8.599 7.793c-.001-11.013 10.244-19.943 10.244-19.943s10.244 8.929 10.244 19.943c0 11.015-10.244 19.944-10.244 19.944s-10.245-8.929-10.244-19.944zm11.343 2.45c-5.507-9.538-1.1-22.393-1.1-22.393s13.336 2.611 18.844 12.15l1.1 22.394s-13.336-2.612-18.844-12.151zm11.05-3.55c-9.539-5.507-12.15-18.843-12.15-18.843s12.854-4.407 22.394 1.1c9.539 5.507 12.149 18.843 12.149 18.843s-12.854 4.408-22.393-1.1zm7.794-8.599c-11.014 0-19.943-10.244-19.943-10.244s8.928-10.244 19.943-10.244c11.014-.001 19.943 10.245 19.943 10.245s-8.929 10.243-19.943 10.243zm2.45-11.344c-9.539 5.507-22.393 1.1-22.393 1.1s2.611-13.336 12.15-18.843c9.538-5.508 22.393-1.1 22.393-1.1s-2.612 13.336-12.15 18.843zm-3.551-11.049c-5.507 9.539-18.843 12.15-18.843 12.15s-4.407-12.855 1.1-22.394c5.507-9.54 18.844-12.15 18.844-12.15s4.406 12.855-1.101 22.394zm-8.599-7.794c.001 11.014-10.243 19.943-10.243 19.943s-10.244-8.929-10.244-19.944l10.245-19.944s10.242 8.93 10.242 19.945zm-11.343-2.45c5.507 9.538 1.1 22.393 1.1 22.393s-13.336-2.611-18.843-12.15c-5.508-9.539-1.1-22.394-1.1-22.394s13.335 2.612 18.843 12.151zm-11.049 3.55c9.538 5.507 12.149 18.843 12.149 18.843s-12.854 4.406-22.393-1.1c-9.541-5.507-12.15-18.844-12.15-18.844s12.854-4.406 22.394 1.101zm-7.795 8.599c11.014 0 19.943 10.244 19.943 10.244s-8.929 10.243-19.943 10.244c-11.015 0-19.944-10.244-19.944-10.244s8.93-10.244 19.944-10.244z" fill="none"/><path stroke="#000" stroke-miterlimit="10" d="M28.854 41.125c4.982-2.876 11.696-.574 11.696-.574s-1.364 6.965-6.346 9.842c-4.982 2.876-11.696.575-11.696.575s1.364-6.967 6.346-9.843zm1.855 5.771c2.876-4.982 9.842-6.346 9.842-6.346s2.302 6.714-.574 11.696c-2.877 4.982-9.842 6.346-9.842 6.346s-2.303-6.714.574-11.696zm4.491 4.071c0-5.753 5.35-10.416 5.35-10.416s5.35 4.663 5.351 10.416c0 5.753-5.351 10.417-5.351 10.417s-5.35-4.664-5.35-10.417zm5.925 1.279c-2.876-4.982-.575-11.696-.575-11.696s6.965 1.363 9.842 6.346c2.877 4.982.574 11.696.574 11.696s-6.965-1.364-9.841-6.346zm5.771-1.854c-4.982-2.876-6.346-9.842-6.346-9.842s6.714-2.302 11.696.574l6.345 9.842s-6.713 2.302-11.695-.574zm4.071-4.491c-5.753 0-10.416-5.35-10.416-5.35s4.663-5.351 10.416-5.351l10.416 5.351s-4.663 5.35-10.416 5.35zm1.279-5.925c-4.982 2.876-11.696.574-11.696.574s1.363-6.966 6.346-9.842c4.982-2.877 11.696-.574 11.696-.574s-1.364 6.965-6.346 9.842zm-1.854-5.771c-2.876 4.982-9.841 6.346-9.841 6.346s-2.302-6.714.574-11.696c2.876-4.983 9.842-6.346 9.842-6.346s2.301 6.713-.575 11.696zm-4.491-4.071c0 5.753-5.35 10.416-5.35 10.416s-5.351-4.663-5.351-10.416l5.351-10.417s5.35 4.664 5.35 10.417zm-5.925-1.28c2.877 4.982.574 11.696.574 11.696s-6.965-1.364-9.842-6.346l-.574-11.696s6.965 1.364 9.842 6.346zm-5.771 1.854c4.982 2.876 6.345 9.842 6.345 9.842s-6.714 2.302-11.696-.575c-4.983-2.876-6.346-9.842-6.346-9.842s6.714-2.301 11.697.575zm-4.071 4.492c5.753 0 10.416 5.351 10.416 5.351s-4.663 5.35-10.416 5.35l-10.417-5.351s4.664-5.35 10.417-5.35z" fill="none"/></svg>