<?xml version="1.0" encoding="utf-8"?>
<!-- Generator: Adobe Illustrator 17.0.2, SVG Export Plug-In . SVG Version: 6.00 Build 0)  -->
<!DOCTYPE svg PUBLIC "-//W3C//DTD SVG 1.1//EN" "http://www.w3.org/Graphics/SVG/1.1/DTD/svg11.dtd">
<svg version="1.1" id="Layer_1" xmlns="http://www.w3.org/2000/svg" xmlns:xlink="http://www.w3.org/1999/xlink" x="0px" y="0px"
	 width="100px" height="100px" viewBox="0 0 100 100" enable-background="new 0 0 100 100" xml:space="preserve">
<title>circles</title>
<def>
	<style type="text/css">
			.lines {
				fill: none;
				stroke: #ffffff;
				stroke-width: .5;
			}
	</style>
</def>
<g>
	<circle cx="-41.62" cy="30" r="20"/>
	<circle cx="-21.62" cy="50" r="20"/>
	<circle cx="-41.62" cy="70" r="20"/>
	<circle cx="-61.62" cy="50" r="20"/>
	<circle cx="-56.62" cy="35" r="20"/>
	<circle cx="-26.62" cy="35" r="20"/>
	<circle cx="-26.62" cy="65" r="20"/>
	<circle cx="-56.62" cy="65" r="20"/>
</g>
	<g class="lines">
		<path d="M27.757-42.203c9.558-5.519,22.44-1.102,22.44-1.102
			s-2.616,13.364-12.175,18.883c-9.559,5.518-22.44,1.102-22.44,1.102S18.198-36.684,27.757-42.203z"/>
		<path d="M31.314-31.13c5.518-9.559,18.882-12.175,18.882-12.175
			s4.417,12.882-1.102,22.44C43.576-11.306,30.212-8.689,30.212-8.689S25.795-21.571,31.314-31.13z"/>
		<path d="M39.932-23.32c-0.001-11.037,10.265-19.985,10.265-19.985
			s10.265,8.947,10.266,19.985c0,11.038-10.266,19.985-10.266,19.985S39.931-12.282,39.932-23.32z"/>
		<path d="M51.299-20.865c-5.519-9.558-1.102-22.44-1.102-22.44
			S63.56-40.689,69.079-31.13c5.519,9.559,1.102,22.441,1.102,22.441S56.818-11.306,51.299-20.865z"/>
		<path d="M62.372-24.422c-9.559-5.519-12.175-18.882-12.175-18.882
			s12.881-4.416,22.44,1.102c9.559,5.518,12.174,18.883,12.174,18.883S71.93-18.904,62.372-24.422z"/>
		<path d="M70.182-33.039c-11.037,0-19.985-10.265-19.985-10.265
			s8.947-10.266,19.985-10.266c11.037-0.001,19.985,10.266,19.985,10.266S81.219-33.039,70.182-33.039z"/>
		<path d="M72.637-44.407c-9.559,5.518-22.44,1.102-22.44,1.102
			s2.616-13.364,12.175-18.883c9.558-5.52,22.44-1.102,22.44-1.102S82.195-49.926,72.637-44.407z"/>
		<path d="M69.079-55.48c-5.518,9.559-18.882,12.175-18.882,12.175
			s-4.416-12.882,1.102-22.44c5.518-9.559,18.883-12.175,18.883-12.175S74.598-65.039,69.079-55.48z"/>
		<path d="M60.462-63.29c0.001,11.037-10.265,19.985-10.265,19.985
			S39.932-52.252,39.931-63.29c0-11.038,10.266-19.985,10.266-19.985S60.462-74.328,60.462-63.29z"/>
		<path d="M49.095-65.745c5.519,9.558,1.102,22.44,1.102,22.44
			S36.833-45.921,31.314-55.48c-5.519-9.559-1.102-22.441-1.102-22.441S43.575-75.304,49.095-65.745z"/>
		<path d="M38.022-62.187c9.558,5.518,12.174,18.883,12.174,18.883
			s-12.881,4.416-22.44-1.102c-9.56-5.519-12.175-18.883-12.175-18.883S28.463-67.706,38.022-62.187z"/>
		<path d="M30.212-53.571c11.037,0,19.985,10.266,19.985,10.266
			S41.249-33.04,30.212-33.039c-11.038,0-19.986-10.266-19.986-10.266S19.174-53.571,30.212-53.571z"/>
		<path d="M38.476-42.729c4.992-2.882,11.72-0.576,11.72-0.576
			s-1.367,6.98-6.359,9.862c-4.993,2.882-11.721,0.576-11.721,0.576S33.483-39.847,38.476-42.729z"/>
		<path d="M40.334-36.946c2.882-4.993,9.862-6.359,9.862-6.359
			s2.307,6.728-0.576,11.72c-2.883,4.993-9.862,6.359-9.862,6.359S37.452-31.953,40.334-36.946z"/>
		<path d="M44.835-32.867c0-5.765,5.361-10.438,5.361-10.438
			s5.362,4.673,5.362,10.438c0,5.765-5.362,10.438-5.362,10.438S44.835-27.102,44.835-32.867z"/>
		<path d="M50.772-31.585c-2.882-4.992-0.576-11.72-0.576-11.72
			s6.98,1.366,9.862,6.359c2.883,4.993,0.576,11.721,0.576,11.721S53.655-26.592,50.772-31.585z"/>
		<path d="M56.556-33.443c-4.992-2.882-6.359-9.862-6.359-9.862
			s6.728-2.307,11.721,0.576c4.993,2.882,6.359,9.862,6.359,9.862S61.548-30.56,56.556-33.443z"/>
		<path d="M60.635-37.943c-5.765,0-10.438-5.362-10.438-5.362
			s4.673-5.362,10.438-5.362c5.765,0,10.438,5.362,10.438,5.362S66.4-37.943,60.635-37.943z"/>
		<path d="M61.917-43.881c-4.993,2.882-11.72,0.576-11.72,0.576
			s1.366-6.98,6.359-9.863c4.992-2.883,11.721-0.575,11.721-0.575S66.91-46.763,61.917-43.881z"/>
		<path d="M60.059-49.664c-2.882,4.993-9.862,6.359-9.862,6.359
			s-2.307-6.728,0.576-11.721c2.882-4.993,9.862-6.359,9.862-6.359S62.941-54.656,60.059-49.664z"/>
		<path d="M55.558-53.743c0,5.765-5.362,10.438-5.362,10.438
			s-5.361-4.673-5.362-10.438c0-5.765,5.362-10.438,5.362-10.438S55.558-59.508,55.558-53.743z"/>
		<path d="M49.621-55.025c2.883,4.992,0.576,11.721,0.576,11.721
			s-6.98-1.367-9.862-6.359c-2.883-4.993-0.576-11.721-0.576-11.721S46.738-60.018,49.621-55.025z"/>
		<path d="M43.838-53.167c4.992,2.882,6.359,9.862,6.359,9.862
			s-6.728,2.306-11.72-0.576c-4.993-2.882-6.359-9.863-6.359-9.863S38.845-56.05,43.838-53.167z"/>
		<path d="M39.759-48.667c5.765,0,10.438,5.362,10.438,5.362
			s-4.673,5.361-10.438,5.362c-5.765,0-10.439-5.362-10.439-5.362S33.994-48.667,39.759-48.667z"/>
		<path d="M41.366,56.27c0,0-2.06-7.578-2.684-13.756
		c-0.624-6.179,0.112-11.386,2.397-12.472c2.138-1.016,6.238,0.815,11.14,6.425c4.902,5.61,8.972,11.073,8.972,11.073
		s8.191,10.908,5.737,15.312c-2.454,4.405-14.152-0.905-16.959-2.269c-2.807-1.364-10.399-4.847-14.662-8.14
		s-6.784-6.488-6.122-8.499c0.663-2.011,4.052-3.314,9.519-4.139c5.466-0.826,11.938-0.51,15.081-0.385
		c3.143,0.125,5.627,0.486,8.513,1.042c2.885,0.556,8.219,1.721,8.878,4.568c0.66,2.847-2.608,5.865-6.801,8.398
		c-4.192,2.533-7.31,4.246-10.106,5.498c-2.797,1.252-8.884,3.529-10.95,4.049c-2.066,0.519-8.042,1.895-10.207-0.39
		c-2.166-2.285,0.751-7.989,2.453-10.571c1.702-2.582,4.33-6.298,6.433-8.685c2.103-2.387,5.659-6.495,8.666-8.927
		c3.007-2.432,6.598-5.344,9.47-4.166c2.873,1.178,2.278,9.17,2.061,10.661c-0.217,1.491-0.942,6.615-2.016,10.517
		c-1.074,3.903-2.777,9.198-4.204,12.035c-1.427,2.837-2.986,7.754-6.373,7.717c-3.129-0.035-5.007-5.02-6.164-7.94
		C42.282,60.306,41.366,56.27,41.366,56.27z"/>
		<path d="M64.347,30.418C60.708,40.771,49.9,49.891,49.9,49.891
		s-2.724-13.877,0.915-24.23S59.342,11.086,63.078,12.4C66.815,13.713,67.986,20.065,64.347,30.418z"/>
		<path d="M36.437,29.638c3.141,10.515,13.502,20.14,13.502,20.14
		s3.383-13.731,0.242-24.246c-3.141-10.515-7.822-14.965-11.617-13.831S33.296,19.123,36.437,29.638z"/>
		<path d="M27.185,41.402c8.722,6.66,22.761,8.357,22.761,8.357
		S44.612,36.662,35.89,30.002c-8.722-6.66-15.124-7.51-17.528-4.362S18.463,34.742,27.185,41.402z"/>
		<path d="M26.625,56.36c10.971,0.262,23.327-6.617,23.327-6.617
		s-12.014-7.461-22.985-7.723c-10.971-0.262-16.65,2.815-16.744,6.774C10.129,52.754,15.654,56.098,26.625,56.36z"/>
		<path d="M34.945,68.878c9.029-6.237,14.982-19.065,14.982-19.065
		s-14.105,1.025-23.134,7.262c-9.029,6.237-11.816,12.064-9.565,15.323C19.479,75.658,25.915,75.115,34.945,68.878z"/>
		<path d="M49.025,74.009c3.639-10.353,0.915-24.23,0.915-24.23
		s-10.808,9.12-14.447,19.473s-2.468,16.705,1.269,18.018C40.497,88.584,45.385,84.362,49.025,74.009z"/>
		<path d="M63.429,69.954c-3.141-10.515-13.502-20.14-13.502-20.14
		s-3.383,13.731-0.242,24.246s7.822,14.965,11.617,13.831S66.57,80.468,63.429,69.954z"/>
		<path d="M72.713,58.1c-8.722-6.66-22.761-8.357-22.761-8.357
		S55.286,62.84,64.008,69.5c8.722,6.66,15.124,7.509,17.528,4.361C83.94,70.713,81.435,64.76,72.713,58.1z"/>
		<path d="M73.273,43.142c-10.971-0.262-23.327,6.618-23.327,6.618
		s12.014,7.461,22.984,7.723c10.971,0.262,16.65-2.815,16.744-6.774C89.769,46.748,84.244,43.404,73.273,43.142z"/>
		<path d="M64.921,30.714c-9.029,6.237-14.982,19.065-14.982,19.065
		s14.105-1.025,23.134-7.262c9.029-6.237,11.816-12.064,9.565-15.323C80.387,23.934,73.951,24.477,64.921,30.714z"/>
		<path d="M69.552,35.706c-6.612,8.759-19.679,14.165-19.679,14.165
		s1.619-14.049,8.231-22.808c6.612-8.759,12.551-11.297,15.712-8.91S76.164,26.948,69.552,35.706z"/>
		<path d="M43.198,26.487c-0.201,10.972,6.747,23.29,6.747,23.29
		s7.394-12.055,7.594-23.027c0.201-10.972-2.907-16.634-6.867-16.706C46.712,9.97,43.398,15.515,43.198,26.487z"/>
		<path d="M30.809,34.884c6.287,8.995,19.148,14.876,19.148,14.876
		s-1.104-14.099-7.391-23.093c-6.287-8.995-12.129-11.748-15.376-9.479S24.522,25.89,30.809,34.884z"/>
		<path d="M25.733,48.966c10.373,3.582,24.235,0.78,24.235,0.78
		s-9.18-10.757-19.553-14.338c-10.373-3.582-16.718-2.375-18.011,1.369C11.111,40.52,15.36,45.384,25.733,48.966z"/>
		<path d="M29.858,63.42c10.497-3.2,20.065-13.614,20.065-13.614
		s-13.75-3.307-24.247-0.107c-10.497,3.2-14.922,7.905-13.767,11.694C13.064,65.182,19.361,66.619,29.858,63.42z"/>
		<path d="M41.714,72.584c6.612-8.759,8.231-22.808,8.231-22.808
		s-13.067,5.407-19.679,14.165s-7.425,15.166-4.264,17.553C29.164,83.881,35.103,81.343,41.714,72.584z"/>
		<path d="M56.67,73.095c0.201-10.972-6.747-23.289-6.747-23.289
		s-7.394,12.055-7.594,23.027c-0.201,10.972,2.907,16.634,6.868,16.706C53.156,89.612,56.469,84.068,56.67,73.095z"/>
		<path d="M69.116,64.621c-6.287-8.995-19.148-14.876-19.148-14.876
		s1.104,14.099,7.391,23.093c6.287,8.995,12.129,11.748,15.376,9.479S75.403,73.616,69.116,64.621z"/>
		<path d="M74.192,50.54c-10.373-3.582-24.235-0.78-24.235-0.78
		s9.18,10.757,19.553,14.339c10.373,3.581,16.718,2.375,18.011-1.369C88.814,58.986,84.565,54.122,74.192,50.54z"/>
		<path d="M70.01,36.163c-10.497,3.2-20.065,13.614-20.065,13.614
		s13.75,3.307,24.247,0.107s14.922-7.905,13.767-11.694C86.804,34.4,80.507,32.963,70.01,36.163z"/>
	</g>
</svg>
