<?xml version="1.0" encoding="UTF-8"?><svg xmlns="http://www.w3.org/2000/svg" height="20px" width="20px" viewBox="0 0 34 35" version="1.1"><path d="M6.39893848,33.050809 C5.02584196,34.4239055 2.81048583,34.4231842 1.44365081,33.0563492 C0.0795970273,31.6922954 0.0792962237,29.4709563 1.44919101,28.1010615 L12.0502525,17.5 L1.44919101,6.89893848 C0.0760944872,5.52584196 0.0768157928,3.31048583 1.44365081,1.94365081 C2.8077046,0.579597027 5.02904369,0.579296224 6.39893848,1.94919101 L17,12.5502525 L27.6010615,1.94919101 C28.974158,0.576094487 31.1895142,0.576815793 32.5563492,1.94365081 C33.920403,3.3077046 33.9207038,5.52904369 32.550809,6.89893848 L21.9497475,17.5 L32.550809,28.1010615 C33.9239055,29.474158 33.9231842,31.6895142 32.5563492,33.0563492 C31.1922954,34.420403 28.9709563,34.4207038 27.6010615,33.050809 L17,22.4497475 L6.39893848,33.050809 Z" fill="#F7F7F7"/></svg>