<?xml version="1.0" encoding="UTF-8"?><svg xmlns="http://www.w3.org/2000/svg" width="15px" height="12px" viewBox="0 0 22 18" version="1.1"><path d="M19.0668199,4.94860534 L19.0679965,4.94860534 C19.0762325,5.13299074 19.0809388,5.31737614 19.0809388,5.50409553 C19.0809388,11.175697 14.8040751,17.7155437 6.98100293,17.7155437 C4.5796057,17.7155437 2.34410607,17.004843 0.461580068,15.786499 C0.794551855,15.8261768 1.13222996,15.8460158 1.47579095,15.8460158 C3.46773878,15.8460158 5.30202505,15.159822 6.75745297,14.0091638 C4.89610539,13.9741539 3.32654933,12.7336369 2.7853231,11.0286555 C3.04534701,11.0788363 3.31125381,11.1056773 3.58539666,11.1056773 C3.97366764,11.1056773 4.34899627,11.0531624 4.70549963,10.9551347 C2.76061495,10.56069 1.29459782,8.82653369 1.29459782,6.74694647 L1.29459782,6.69326465 C1.86759168,7.0141886 2.52412262,7.20790997 3.22065724,7.2300829 C2.07937585,6.45986541 1.32871861,5.14699469 1.32871861,3.65790755 C1.32871861,2.87135212 1.53814963,2.13381053 1.90406562,1.50013159 C4.00190553,4.09669812 7.13513475,5.80518055 10.6695773,5.98489796 C10.5966294,5.67097598 10.5589789,5.34305005 10.5589789,5.00695515 C10.5589789,2.63678589 12.4626833,0.714743157 14.8111345,0.714743157 C16.0347764,0.714743157 17.1395839,1.23639045 17.9149493,2.06962574 C18.8832736,1.87707136 19.7939455,1.51997053 20.6151975,1.02749814 C20.2975213,2.02994787 19.6233416,2.87135212 18.7456139,3.40233539 C19.6056929,3.29847273 20.4257683,3.06740748 21.1881914,2.72664459 C20.6187273,3.58672079 19.8974845,4.34293432 19.0668199,4.94860534 L19.0668199,4.94860534 Z" fill="#BA4699"/></svg>
