<?xml version="1.0" encoding="UTF-8"?><svg xmlns="http://www.w3.org/2000/svg" width="10px" height="11px" viewBox="0 0 20 22" version="1.1"><path d="M17.9079674,18.6833097 C15.1165388,19.6295631 9.66496249,21.4713281 8.64688367,21.7332497 C7.62880486,21.9951714 6.57791816,22.4345124 5.98678515,20.6771991 C5.98678515,20.6771991 0.96215461,5.40225436 0.502400916,4.05047095 C0.0426472213,2.69868754 -0.405185291,1.88377509 0.633730965,1.45675205 C3.03215461,0.470959426 5.5269822,-0.786335505 5.98678515,0.645692145 C6.39816446,1.92681196 10.7815142,16.0558304 10.7815142,16.0558304 C10.7815142,16.0558304 15.9374748,14.1886691 17.3496423,13.7831391 C18.7618098,13.3776092 19.2462433,13.1072221 19.6156521,15.1011115 C19.985061,17.0950009 20.699396,17.7370562 17.9079674,18.6833097 L17.9079674,18.6833097 Z" fill="#FFFFFF"/></svg>
