<?xml version="1.0" encoding="utf-8"?>
<svg xmlns="http://www.w3.org/2000/svg" version="1.1" height="64px" width="64px" viewBox="0 0 28 28">
    <def>
        <style>
            .spiral {
                fill: none;
                stroke: #ba4699;
                stroke-width: 0.35;
                stroke-miterlimit: 10;
            }
            .emblem {
                fill: #FFFFFF;
            }
        </style>
    </def>
    <g class="spiral">
        <path d="M19.531,16.189 c-2.954-1.616-5.761-2.418-5.761-2.418s0.772,2.547,2.497,5.72c1.808,3.325,3.631,4.577,3.631,4.577 c1.175,0.862,2.833,0.764,3.894-0.298c1.066-1.068,1.157-2.737,0.281-3.911C24.074,19.858,22.879,18.02,19.531,16.189z"/>
        <path d="M19.975,12.997 c-3.367,0.077-6.198,0.786-6.198,0.786s1.942,1.82,5.023,3.705c3.228,1.975,5.433,2.148,5.433,2.148 c1.448,0.159,2.835-0.754,3.223-2.205c0.39-1.458-0.366-2.949-1.712-3.528C25.744,13.904,23.79,12.909,19.975,12.997z"/>
        <path d="M18.737,10.002 c-2.877,1.75-4.975,3.78-4.975,3.78s2.592,0.605,6.203,0.697c3.783,0.097,5.779-0.856,5.779-0.856 c1.334-0.587,2.078-2.071,1.689-3.522c-0.392-1.457-1.791-2.371-3.247-2.199C24.186,7.903,21.996,8.019,18.737,10.002z"/>
        <path d="M16.199,8.022 c-1.616,2.954-2.418,5.761-2.418,5.761s2.547-0.772,5.72-2.497c3.325-1.808,4.577-3.631,4.577-3.631 c0.862-1.175,0.764-2.833-0.298-3.894c-1.068-1.066-2.737-1.157-3.911-0.281C19.868,3.479,18.03,4.674,16.199,8.022z"/>
        <path d="M12.997,7.584 c0.077,3.367,0.786,6.198,0.786,6.198s1.82-1.942,3.705-5.023c1.975-3.228,2.148-5.433,2.148-5.433 c0.159-1.448-0.754-2.835-2.205-3.223c-1.458-0.39-2.949,0.366-3.528,1.712C13.904,1.815,12.909,3.769,12.997,7.584z"/>
        <path d="M9.996,8.803c1.75,2.877,3.78,4.975,3.78,4.975 s0.605-2.592,0.697-6.203c0.097-3.783-0.856-5.779-0.856-5.779c-0.587-1.334-2.071-2.078-3.522-1.689 C8.639,0.499,7.725,1.899,7.897,3.354C7.897,3.354,8.013,5.543,9.996,8.803z"/>
        <path d="M8.01,11.366 c2.954,1.616,5.761,2.418,5.761,2.418s-0.772-2.547-2.497-5.72C9.466,4.739,7.642,3.487,7.642,3.487 C6.467,2.625,4.809,2.722,3.748,3.785C2.682,4.853,2.591,6.522,3.467,7.696C3.467,7.696,4.662,9.534,8.01,11.366z"/>
        <path d="M7.584,14.562 c3.367-0.077,6.198-0.786,6.198-0.786s-1.942-1.82-5.023-3.705C5.531,8.095,3.326,7.922,3.326,7.922 C1.877,7.763,0.49,8.677,0.102,10.128c-0.39,1.458,0.366,2.949,1.712,3.528C1.815,13.655,3.769,14.649,7.584,14.562z"/>
        <path d="M8.803,17.535 c2.877-1.75,4.975-3.78,4.975-3.78s-2.592-0.605-6.203-0.697c-3.783-0.097-5.779,0.856-5.779,0.856 c-1.334,0.587-2.078,2.071-1.689,3.522c0.392,1.457,1.791,2.371,3.247,2.199C3.354,19.634,5.543,19.518,8.803,17.535z"/>
        <path d="M11.376,19.595 c1.616-2.954,2.418-5.761,2.418-5.761s-2.547,0.772-5.72,2.497c-3.325,1.808-4.577,3.631-4.577,3.631 c-0.862,1.175-0.764,2.833,0.298,3.894c1.068,1.066,2.737,1.157,3.911,0.281C7.706,24.138,9.544,22.943,11.376,19.595z"/>
        <path d="M14.553,19.968 c-0.077-3.367-0.786-6.198-0.786-6.198s-1.82,1.942-3.705,5.023c-1.975,3.228-2.148,5.433-2.148,5.433 c-0.159,1.448,0.754,2.835,2.205,3.223c1.458,0.39,2.949-0.366,3.528-1.712C13.647,25.737,14.641,23.783,14.553,19.968z"/>
        <path d="M17.556,18.749 c-1.75-2.877-3.78-4.975-3.78-4.975s-0.605,2.592-0.697,6.203c-0.097,3.783,0.856,5.779,0.856,5.779 c0.587,1.334,2.071,2.078,3.522,1.689c1.457-0.392,2.371-1.791,2.199-3.247C19.656,24.198,19.54,22.009,17.556,18.749z"/>
        <path d="M9.336,14.001 c1.892-1.092,4.441-0.218,4.441-0.218s-0.518,2.645-2.41,3.737c-1.892,1.092-4.441,0.218-4.441,0.218S7.444,15.094,9.336,14.001z"/>
        <path d="M10.04,16.193 c1.092-1.892,3.737-2.41,3.737-2.41s0.874,2.549-0.218,4.441c-1.092,1.892-3.737,2.41-3.737,2.41S8.948,18.085,10.04,16.193z"/>
        <path d="M11.746,17.738 c0-2.184,2.032-3.955,2.032-3.955s2.032,1.771,2.032,3.955c0,2.185-2.032,3.955-2.032,3.955S11.746,19.923,11.746,17.738z"/>
        <path d="M13.995,18.224 c-1.092-1.892-0.218-4.441-0.218-4.441s2.645,0.518,3.737,2.41c1.092,1.892,0.218,4.441,0.218,4.441S15.088,20.116,13.995,18.224z"/>
        <path d="M16.187,17.52 c-1.892-1.092-2.41-3.737-2.41-3.737s2.549-0.874,4.441,0.218c1.892,1.092,2.409,3.737,2.409,3.737S18.079,18.612,16.187,17.52z"/>
        <path d="M17.732,15.815 c-2.184,0-3.955-2.032-3.955-2.032s1.771-2.032,3.955-2.032c2.184,0,3.955,2.032,3.955,2.032S19.917,15.815,17.732,15.815z"/>
        <path d="M18.218,13.565 c-1.892,1.092-4.441,0.218-4.441,0.218s0.518-2.645,2.41-3.737c1.892-1.092,4.441-0.218,4.441-0.218S20.11,12.473,18.218,13.565z"/>
        <path d="M17.514,11.374 c-1.092,1.892-3.737,2.41-3.737,2.41s-0.874-2.549,0.218-4.441c1.092-1.892,3.737-2.41,3.737-2.41S18.606,9.482,17.514,11.374z"/>
        <path d="M15.809,9.828c0,2.184-2.032,3.955-2.032,3.955 s-2.032-1.771-2.032-3.955c0-2.184,2.032-3.955,2.032-3.955S15.809,7.643,15.809,9.828z"/>
        <path d="M13.559,9.342 c1.092,1.892,0.218,4.441,0.218,4.441s-2.645-0.518-3.737-2.41C8.948,9.482,9.822,6.932,9.822,6.932S12.467,7.45,13.559,9.342z"/>
        <path d="M11.368,10.046 c1.892,1.092,2.409,3.737,2.409,3.737s-2.549,0.874-4.441-0.218c-1.892-1.092-2.409-3.737-2.409-3.737S9.476,8.954,11.368,10.046z"/>
        <path d="M9.822,11.752c2.184,0,3.955,2.032,3.955,2.032 s-1.771,2.032-3.955,2.032c-2.185,0-3.955-2.032-3.955-2.032S7.638,11.752,9.822,11.752z"/>
    </g>
    <polygon class="emblem" points="13.777,4.703 5.524,22.514 6.466,22.514 13.777,6.385 21.087,22.514 22.03,22.514 "/>
</svg>
