<svg aria-labelledby="abookapart" xmlns="http://www.w3.org/2000/svg" viewBox="0 0 460.079 60.454"><defs><style>.cls-1{fill:#fff;}.cls-2{fill:#999;}</style></defs><title id="abookapart">A Book Apart</title><path class="cls-1" d="M85.971 32.857c-.482 0-.967.417-1.244 1.108l-1.525 3.6c-.967 2.217-1.8 4.293-1.8 5.609 0 2.146 3.877 1.035 3.877 2.353 0 .484-.275.761-1.246.761-1.037 0-1.66-.276-4.914-.276a42.961 42.961 0 0 0-4.711.276c-.553 0-.76-.209-.76-.553 0-1.384 3.254-.624 4.5-3.395l12.395-27.21a1.172 1.172 0 0 1 1.037-.83c.348 0 .623.275.832.828l10.662 27.423c1.387 3.251 4.084 1.87 4.084 3.046 0 .623-.344.69-1.523.69-1.451 0-2.975-.276-5.328-.276-3.326 0-5.125.276-5.957.276s-1.037-.209-1.037-.623c0-1.455 4.152-.415 4.152-2.008 0-1.246-.484-2.77-2.283-8.1l-.482-1.523a1.512 1.512 0 0 0-1.385-1.176zm6.509-2.493c.416 0 .555 0 .555-.206a9.64 9.64 0 0 0-.693-2.563l-2.008-5.815c-.068-.275-.207-.553-.414-.553s-.416.207-.553.482l-2.355 6.023a8.957 8.957 0 0 0-.9 2.493c0 .068.066.139.275.139zM154.1 27.8c0 .762 6.1 2.146 6.1 8.584 0 6.165-5.539 9.625-16.758 9.625-5.539 0-9.693.276-11.078.276-1.039 0-1.521-.276-1.521-.761 0-.83 1.242-.83 2.836-1.039a2.084 2.084 0 0 0 2.01-2.284v-21.254c0-2.146-.139-3.324-1.453-3.807-1.941-.764-3.254-.346-3.254-1.107 0-.557.205-.9 1.037-.9 1.869 0 4.086.212 6.785.07 3.115-.138 5.471-.347 9.209-.347 5.4 0 9.693 2.91 9.693 7.479-.001 3.876-3.606 5.188-3.606 5.465zm-13.293-.415c0 .829.623.9 4.43.9 5.609 0 7.756-2.492 7.756-5.817 0-4.431-2.561-6.094-8.309-6.094-3.463 0-3.877.279-3.877.969v10.046zm0 15.164c0 1.247 1.246 1.937 4.986 1.937 6.508 0 9.277-3.6 9.277-7.407 0-4.639-3.463-7.271-9.555-7.271-4.361 0-4.709.139-4.709 1.385v11.36zM182.977 14.3c9.691 0 17.029 6.925 17.029 16.409 0 9.349-7.338 16.41-17.447 16.41-9.969 0-17.172-7.062-17.172-16.41 0-9.482 7.203-16.409 17.59-16.409zm-.418 31.019c7.754 0 11.633-5.262 11.633-14.61 0-9.484-4.986-14.611-11.215-14.611-6.371 0-11.494 5.127-11.494 14.611-.001 9.351 3.876 14.612 11.076 14.612zM223.205 14.3c9.69 0 17.029 6.925 17.029 16.409 0 9.349-7.339 16.41-17.447 16.41-9.969 0-17.172-7.062-17.172-16.41 0-9.482 7.203-16.409 17.59-16.409zm-.418 31.019c7.758 0 11.632-5.262 11.632-14.61 0-9.484-4.985-14.611-11.214-14.611-6.371 0-11.494 5.127-11.494 14.611 0 9.351 3.877 14.612 11.076 14.612zM253.874 28.288c0 .553.142.83.348.83a4.1 4.1 0 0 0 1.11-.83l9.35-7.825c1.381-1.177 2.769-2.217 2.769-2.84s-.765-.691-1.593-.691c-1.176-.066-2.563.068-2.563-.9 0-.485.482-.9 1.452-.9 1.594 0 3.257.279 5.609.279 2.839 0 4.292-.279 5.262-.279.828 0 1.246.212 1.246.835 0 .553-.828.691-1.939.9a9.376 9.376 0 0 0-3.67 1.59l-11.835 8.862c-.211.205-.418.348-.418.553 0 .276.207.347.418.553l13.358 12.4c3.951 3.671 6.161 3.948 6.161 4.848 0 .693-.552.623-1.311.623-1.388 0-3.393-.276-5.956-.276-3.464 0-4.986.276-6.027.276-.552 0-.963-.276-.963-.761 0-1.8 3.526-.277 3.526-1.729 0-.624-.828-1.526-2.7-3.258l-9.83-8.86c-.277-.277-.764-.765-1.041-.765a.788.788 0 0 0-.765.831v9.07c0 3.534 1.183 3.6 2.841 3.81 1.317.139 1.869.418 1.869.9 0 .552-.276.761-1.317.761-1.587 0-3.6-.276-5.879-.276s-4.5.276-6.233.276c-.693 0-.969-.276-.969-.761 0-.623.346-.9 1.939-1.039 1.935-.137 2.628-.97 2.628-2.491v-22.579c0-1.8-.623-2.425-2.628-2.56-1.316-.07-1.594-.348-1.594-.832 0-.624.348-.9 1.312-.9 1.04 0 2.356.279 5.885.279 3.258 0 4.363-.279 5.4-.279.693 0 1.041.347 1.041.835 0 .691-.836.967-2.358.967-1.316 0-1.94.556-1.94 2.632v8.724zM313.282 32.857a1.521 1.521 0 0 0-1.247 1.108l-1.522 3.6c-.971 2.217-1.8 4.293-1.8 5.609 0 2.146 3.874 1.035 3.874 2.353 0 .484-.275.761-1.246.761-1.035 0-1.657-.276-4.916-.276a43.065 43.065 0 0 0-4.709.276c-.553 0-.758-.209-.758-.553 0-1.384 3.251-.624 4.5-3.395l12.392-27.21a1.178 1.178 0 0 1 1.042-.828c.347 0 .623.275.828.828l10.666 27.423c1.382 3.251 4.081 1.87 4.081 3.046 0 .623-.341.69-1.523.69-1.452 0-2.976-.276-5.326-.276-3.329 0-5.127.276-5.957.276s-1.04-.209-1.04-.623c0-1.455 4.156-.415 4.156-2.008 0-1.246-.488-2.77-2.286-8.1l-.482-1.522a1.515 1.515 0 0 0-1.388-1.176zm6.508-2.493c.418 0 .553 0 .553-.206a9.465 9.465 0 0 0-.693-2.563l-2-5.815c-.07-.275-.2-.553-.418-.553s-.41.207-.552.482l-2.352 6.023a8.994 8.994 0 0 0-.9 2.493c0 .068.065.139.277.139zM341.187 19.493c0-2.423-.9-2.493-4.015-2.837-.624-.068-.83-.209-.83-.762 0-.418.482-.765 1.381-.765 1.247 0 3.464.279 6.233.279 3.321 0 5.539-.279 9.554-.279 4.986 0 10.107 2.216 10.107 8.449a9.925 9.925 0 0 1-9.76 10.318 21.849 21.849 0 0 1-7.55-1.04v9.484c0 1.524.488 2.011 2.081 2.147 2.212.209 2.628.486 2.628.968 0 .623-.205.832-1.04.832-2.281 0-3.945-.276-6.3-.276s-4.71.276-6.232.276c-.765 0-1.105-.209-1.105-.761 0-.971 1.24-.9 2.423-1.039 1.246-.137 2.422-.346 2.422-1.937v-23.057zm5.121 10.524c0 1.112.97 1.8 4.086 1.8 4.434 0 8.1-2.978 8.1-8.033 0-4.64-3.669-7.129-8.931-7.129-2.563 0-3.258.623-3.258 2.284zM373.8 32.857a1.519 1.519 0 0 0-1.246 1.108l-1.522 3.6c-.971 2.217-1.8 4.293-1.8 5.609 0 2.146 3.875 1.035 3.875 2.353 0 .484-.276.761-1.247.761-1.035 0-1.658-.276-4.915-.276a43.1 43.1 0 0 0-4.71.276c-.553 0-.758-.209-.758-.553 0-1.384 3.251-.624 4.5-3.395l12.394-27.212a1.176 1.176 0 0 1 1.041-.828c.347 0 .623.275.829.828l10.659 27.424c1.381 3.251 4.079 1.87 4.079 3.046 0 .623-.34.69-1.521.69-1.452 0-2.976-.276-5.328-.276-3.328 0-5.127.276-5.956.276s-1.04-.209-1.04-.623c0-1.455 4.157-.415 4.157-2.008 0-1.246-.489-2.77-2.288-8.1l-.481-1.522a1.513 1.513 0 0 0-1.388-1.176h-7.334zm6.509-2.493c.418 0 .553 0 .553-.206a9.446 9.446 0 0 0-.694-2.563l-2-5.815c-.07-.275-.206-.553-.418-.553s-.412.207-.553.482l-2.352 6.023a8.994 8.994 0 0 0-.9 2.493c0 .068.066.139.277.139zM415.27 30.435c0 .415.348.694.971 1.8l5.538 9.486a5.1 5.1 0 0 0 3.946 2.769c.835.139 1.316.277 1.316.9 0 .414-.347.623-1.041.623-1.522 0-5.051.276-6.367.276-.488 0-.829-.209-1.317-1.108l-6.716-12.048a4.229 4.229 0 0 0-3.881-2.352c-1.586 0-2.146.553-2.146 2.076v9.555c0 1.246.623 1.94 2.081 2.077 2.146.209 2.905.416 2.905 1.109 0 .552-.277.69-1.381.69-1.8 0-3.188-.276-6.1-.276-3.321 0-4.979.276-6.785.276-.135 0-.829-.139-.829-.623 0-.9 1.247-1.038 2.493-1.177s2.493-.484 2.493-2.147v-23.886c0-1.314-.418-1.455-1.8-1.732-1.112-.2-2.218-.066-2.218-.758s.348-.835 1.247-.835c1.316 0 3.394.279 6.232.279 3.181 0 5.886-.279 7.892-.279 5.955 0 9.277 3.325 9.277 7.479.005 6.925-5.81 6.718-5.81 7.826zm-6.438-13.779c-2.77 0-3.258.344-3.258 1.246v10.245c0 1.111.56 1.387 3.6 1.387 4.914 0 7.2-2.286 7.2-6.231.001-4.363-2.768-6.647-7.542-6.647zM446.914 41.441c0 2.146 1.522 2.911 3.045 3.048s3.046.209 3.046 1.109c0 .623-.693.69-1.105.69l-7.407-.276s-4.916.276-7.409.276c-.559 0-.97-.276-.97-.761 0-.9 1.452-.9 2.84-1.039a2.819 2.819 0 0 0 2.834-3.048v-18.969c0-4.639-.482-4.983-3.046-4.983-8.585 0-8.308 5.539-10.036 5.539-.694 0-.765-.276-.765-.694 0-.553.348-1.246 1.665-5.121 1.1-3.462 1.381-3.88 2-3.88.765 0 1.458 2.634 3.533 2.634h17.728a13.034 13.034 0 0 0 5.121-.835c.9-.411.9-1.381 1.522-1.381.693 0 .553.828.553 4.362 0 3.875-.553 4.5-1.105 4.5-.765 0-.694-.971-1.452-2.629-.693-1.454-1.94-2.493-6.374-2.493-3.81 0-4.221.345-4.221 4.983v18.97z"/><circle class="cls-1" cx="30.227" cy="30.227" r="30.227"/><path class="cls-2" d="M53.736 2.752a.23.23 0 0 1 .01.047 5.112 5.112 0 0 1-.336 2c-.276 1.053-.69 2.016-1.047 3.037-.65 1.867-1.243 3.762-2.072 5.559-.228.5-.474.98-.739 1.457l-.646 1.127a22.872 22.872 0 0 1-1.569 2.533c-.6.791-1.353 1.436-2.021 2.162a12.311 12.311 0 0 1-3.492 2.543c-.643.342-1.257.734-1.863 1.135a3.208 3.208 0 0 1-1.83.746c-.422-.018-.107-2.834-.091-3.172a18.352 18.352 0 0 1 .325-3.969 14.965 14.965 0 0 1 .738-2.723 14.207 14.207 0 0 1 1.23-2.16 12.421 12.421 0 0 1 1.61-1.7c1.647-1.521 3.5-2.8 5.247-4.2.523-.422 1.049-.844 1.6-1.229 1.421-1 2.583-2.451 4.112-3.287.191-.109.741-.246.834.094zM30.015 13.273a40.2 40.2 0 0 1 1.253 4.053 24.491 24.491 0 0 1 .393 4.309c.027.85.031 1.7 0 2.549a16.421 16.421 0 0 1-.3 2.52c-.078.414-.168.824-.262 1.234a5.836 5.836 0 0 1-.168.752c-.2.549-.314 1.188-.51 1.742a16.689 16.689 0 0 1-1.1 2.474 17.623 17.623 0 0 1-1.558 2.387 32.881 32.881 0 0 0-1.984 3c-.16.259-.588 1.015-.965.942-.217-.041-.26-.415-.325-.576-.256-.639-.525-1.275-.785-1.914s-.588-1.214-.845-1.839a23.835 23.835 0 0 1-.772-2.408 16.7 16.7 0 0 1-.461-1.868 9.736 9.736 0 0 1 .3-4.061 20.008 20.008 0 0 1 .874-2.34c.872-2.051 1.844-4.037 2.834-6.033.474-.953.893-1.932 1.389-2.873.479-.91 1.006-1.793 1.469-2.711.157-.314.377-.842.8-.832.379.008.465.484.523.773a6.2 6.2 0 0 0 .2.72zM26.111 43.009c1.788.089 3.564.327 5.344.518 1.107.118 2.223.115 3.334.129.391.005 2.373-.223 2.336.428-.027.463-.753.857-1.094 1.06-.592.352-1.229.621-1.85.918q-1.251.6-2.5 1.189c-.938.441-1.877.882-2.823 1.3-.531.237-1.064.47-1.6.692-.454.188-.913.364-1.38.517a11.622 11.622 0 0 1-5.955.338 15.341 15.341 0 0 1-5.1-1.685c-.287-.175-.582-.334-.877-.492a2.6 2.6 0 0 1-.766-.456c-.271-.312.049-.632.326-.785.441-.245.855-.527 1.285-.792.91-.562 1.8-1.152 2.737-1.665a11.192 11.192 0 0 1 1.67-.737 10.787 10.787 0 0 1 3.212-.63c1.1-.033 2.191.095 3.286.133l.415.02zM54.638 23.648a6.994 6.994 0 0 1-2.417 3.379c-1.119 1.047-2.113 2.2-3.195 3.281a29.19 29.19 0 0 1-3.689 3.349 20.729 20.729 0 0 1-4 2.146c-.8.333-1.612.633-2.429.918a23.517 23.517 0 0 1-4.778 1.241l-2.485.36c-.518.067-1.293.215-1.641-.3-.586-.87.625-1.994 1.16-2.555.918-.96 1.822-1.932 2.762-2.871a33.49 33.49 0 0 1 6.506-5.268 25.151 25.151 0 0 1 4.148-1.77 64.233 64.233 0 0 1 8.684-2.619c.363-.074.906-.2 1.222.064a.626.626 0 0 1 .152.645z"/></svg>