<svg aria-labelledby="harvest-snaps" xmlns="http://www.w3.org/2000/svg" viewBox="0 0 375.088 85.977"><defs><style>.cls-1{fill:#595959;}.cls-2{fill:#fff;}</style></defs><title id="harvest-snaps">Harvest Snaps</title><path class="cls-1" d="M89.847 36.616a3.126 3.126 0 0 0 .462-2.293l-1.116-6.538a2.991 2.991 0 0 0-1.193-1.971 2.657 2.657 0 0 0-2.123-.524l-7.5 1.317.214 1.259 5.937-1.044a2.662 2.662 0 0 1 2.123.525 2.991 2.991 0 0 1 1.191 1.97l1.116 6.539a3.138 3.138 0 0 1-.175 1.738 2.77 2.77 0 0 0 1.064-.978zM117.349 52.46l.347-.041 1.813-38.967-1.28.149-1.674 35.972.794 2.887zM103.076 35.78a3.02 3.02 0 0 1 1.409-.99l-5.201-18.99-1.709.2 5.442 19.877.059-.097zM131.935 26.146l.339 5.88.175-.111a3.056 3.056 0 0 1 1.233-.3l-.4-7-.3-5.352-.4-7.009-1.427.088.487 8.454zM8.647 57.6a3.325 3.325 0 0 1 1.2-.649l-2.341-7.135-5.822-16.631-1.684.562 6.162 17.6 2.163 6.6a3.037 3.037 0 0 1 .322-.347zM95.5 43.854l.018.044.177-.233-.195.189zM26.048 48.919l-7.127-21.489-1.668.557 7.127 21.489 1.668-.557zM43.226 46.843a2.694 2.694 0 0 1 .374-.059 2.015 2.015 0 0 0 .317-.046l-1.524-20.013-1.434.352 1.526 20.031a3.905 3.905 0 0 1 .741-.265zM140.824 20.225l13.583-.841-.083-1.444-13.583.841.083 1.444zM50.954 32.196l-.339.083.372 4.766 6.529 15.711 1.797-.442-8.359-20.118zM71.242 40.189a2.917 2.917 0 0 1 .3-.242 3.067 3.067 0 0 1 1.193-.434l-2.02-11.558-1.209-7.084-1.56.274 1.425 8.343zM142.047 41.423l7.846-.486-.083-1.444-7.846.486.083 1.444zM316.988 43.051l3.235-11.832 1.741-6.413-.865-.234-2.22 8.18-2.779 10.179a3.46 3.46 0 0 1 .888.12zM287.714 37.189a2.287 2.287 0 0 1 .363.1 2.3 2.3 0 0 0 .306.093l6.986-18.459-.711-.142-6.963 18.4zM301.03 26.962l-.341-.068-1.053 2.832-.778 18.795 1.27.254.902-21.813zM176.116 19.891a2.677 2.677 0 0 0-.748-1.851 2.225 2.225 0 0 0-1.712-.758l-1.958.037a3.028 3.028 0 0 0-2.26 1.054 3.45 3.45 0 0 0-.594.926 2.951 2.951 0 0 1 1.51-.447l1.958-.037a2.226 2.226 0 0 1 1.712.758 2.676 2.676 0 0 1 .748 1.851l.073 4.93 7.778-.146-.023-1.508-6.411.12zM333.792 47.132l-.108.3.238-.127a2.875 2.875 0 0 0 1.214-1.7l1.9-7.02a2.687 2.687 0 0 0-.222-2.058 2.4 2.4 0 0 0-1.529-1.232l-7.561-2.042-.479 1.766 6.7 1.809a2.4 2.4 0 0 1 1.529 1.232 2.686 2.686 0 0 1 .222 2.058zM345.4 50.708a8.368 8.368 0 0 0-.366 4.532 8.273 8.273 0 0 0 2.1 3.99 12.083 12.083 0 0 0 2.5 2.055q1.391.858 2.817 1.7.45.292 1.137.7t1.389.857a2.387 2.387 0 0 0-.738.176q-.294.132-.52.253a1.246 1.246 0 0 0-.421.322 4.023 4.023 0 0 1 2.009 3.724l-1.26 3.58a3.882 3.882 0 0 1-.166.37 3.539 3.539 0 0 0 1.51-1.9l1.26-3.58a4.023 4.023 0 0 0-2.009-3.724 1.233 1.233 0 0 1 .421-.321c.151-.082.324-.165.52-.253a2.359 2.359 0 0 1 .738-.176q-.7-.45-1.389-.858t-1.137-.7q-1.428-.837-2.817-1.7a12.078 12.078 0 0 1-2.5-2.054 8.276 8.276 0 0 1-2.1-3.991 8.368 8.368 0 0 1 .366-4.532l.055.02 3.425-9.726a8.98 8.98 0 0 1 1.07-2.115 8.988 8.988 0 0 0-.851.879 8.88 8.88 0 0 0-1.567 2.764l-3.425 9.725zM225.4 33.41a12.358 12.358 0 0 0 3.161 1.565q1.676.549 3.385 1.063.547.194 1.372.448c.549.169 1.106.352 1.675.547a2.537 2.537 0 0 0-.716.427c-.179.16-.335.308-.469.446a1.467 1.467 0 0 0-.348.494 4.065 4.065 0 0 1 2.025 1.323 4.66 4.66 0 0 1 1.082 2.289l-.345 7.161a4.665 4.665 0 0 1-.491 1.8 3.7 3.7 0 0 0 .643-.522 4.351 4.351 0 0 0 1.192-2.812l.346-7.16a4.665 4.665 0 0 0-1.083-2.29 4.065 4.065 0 0 0-2.025-1.323 1.479 1.479 0 0 1 .348-.493c.134-.139.29-.286.469-.447a2.514 2.514 0 0 1 .716-.426c-.569-.2-1.126-.379-1.675-.548s-1.007-.318-1.371-.448q-1.71-.515-3.385-1.062a12.351 12.351 0 0 1-3.162-1.566 9.411 9.411 0 0 1-3.274-3.887 10.642 10.642 0 0 1-.868-5.257h.063l.872-12.089a11.283 11.283 0 0 1 .858-3.623 10.563 10.563 0 0 1 1.08-1.945q-.3.27-.58.571a9.93 9.93 0 0 0-1.844 2.907 11.277 11.277 0 0 0-.858 3.623l-.873 12.089-.062-.005a10.643 10.643 0 0 0 .868 5.257 9.4 9.4 0 0 0 3.274 3.893zM239.757 12.554a3.354 3.354 0 0 0-.611-2.251 2.338 2.338 0 0 0-1.746-1.077l-2.091-.172a3.077 3.077 0 0 0-2.516.987 4.039 4.039 0 0 0-.738 1.039 2.939 2.939 0 0 1 1.91-.493l2.091.172a2.339 2.339 0 0 1 1.749 1.076 3.359 3.359 0 0 1 .611 2.252l-.441 8.494 8.308.683.118-1.634-7.082-.581zM254.044 32.472l2.374-18.838-1.132-.148-2.4 19.027a3.14 3.14 0 0 1 1.158-.041zM270.943 43.856l3.705-27.845-1.121-.146-3.083 23.17.499 4.821zM339.163 54.676l.2-.294a7.843 7.843 0 0 1-1.154.86 8.177 8.177 0 0 1-2.834 1.069 6.883 6.883 0 0 1-3.052-.136l-.082.306-10.081-2.724-.48 1.766 9.216 2.491.083-.306a6.883 6.883 0 0 0 3.052.136 8.13 8.13 0 0 0 5.13-3.168zM250.251 59.908l3.218-23.108a4.92 4.92 0 0 0-.651-1.933 2.71 2.71 0 0 0-.885-.881 2.346 2.346 0 0 0-1.347.511 2.786 2.786 0 0 0-.676.677 2.954 2.954 0 0 1 1.564 1.225 4.93 4.93 0 0 1 .65 1.934l-3.217 23.11 7.711 1.006.223-1.679zM194.012 57.052l.611-23.259a5.574 5.574 0 0 0-.827-1.881 2.368 2.368 0 0 0-1.2-.878 2.452 2.452 0 0 0-.466.128 2.387 2.387 0 0 0-.8.521 2.75 2.75 0 0 0-.6.747 2.554 2.554 0 0 1 1.718 1.015 5.574 5.574 0 0 1 .827 1.881l-.611 23.258 7.777.156.036-1.559zM202.729 17.33l-.037 1.559 6.237.125.037-1.559-6.237-.125zM240.339 58.287a7.146 7.146 0 0 1-3.077.717l-.558-.046-.123-.011-8.123-.668h-.062a6.9 6.9 0 0 1-3.13-1.041 8.756 8.756 0 0 1-2.472-2.329 10.518 10.518 0 0 1-1.555-3.262 10.929 10.929 0 0 1-.382-3.837l.534-7.414-1.226-.1-.653 9.048a10.932 10.932 0 0 0 .383 3.837 10.5 10.5 0 0 0 1.555 3.261 8.747 8.747 0 0 0 2.472 2.33 6.9 6.9 0 0 0 3.13 1.041h.062l8.123.668.123.01.558.047a7.132 7.132 0 0 0 3.082-.719 8.438 8.438 0 0 0 2.57-1.915 8.962 8.962 0 0 0 .744-.94 8.377 8.377 0 0 1-1.975 1.323zM278.724 63.659l8.184-22.181-.069.05a6.524 6.524 0 0 0-.542-2.01 2.474 2.474 0 0 0-.7-.872 2.677 2.677 0 0 0-.526.042 2.316 2.316 0 0 0-.9.369 2.717 2.717 0 0 0-.72.63 2.8 2.8 0 0 1 1.5 1.364 6.509 6.509 0 0 1 .542 2.01l.069-.051-8.182 22.182 7.68 1.531.632-1.675zM272.923 62.864l-4.431-.578-3.28-.428-3.223-31.222-.846 6.359 2.725 26.396 3.28.428 4.43.578 3.28.427.224-1.679-2.159-.281zM362.158 51.849l1.642-4.649a2.683 2.683 0 0 0-.059-2 2.227 2.227 0 0 0-1.34-1.31l-1.846-.649a3.012 3.012 0 0 0-2.481.2 3.422 3.422 0 0 0-1.564 1.673l.22-.14a3.012 3.012 0 0 1 2.481-.2l1.846.649a2.225 2.225 0 0 1 1.34 1.309 2.686 2.686 0 0 1 .059 2l-1.639 4.653 7.333 2.579.628-1.784zM357.683 81.757a7.834 7.834 0 0 1-2.733.951 7.182 7.182 0 0 1-2.928-.159l-.492-.173-.109-.038-7.169-2.522-.055-.02a6.868 6.868 0 0 1-2.591-1.615 7.936 7.936 0 0 1-1.718-2.515 8.666 8.666 0 0 1-.688-3.059 8.53 8.53 0 0 1 .493-3.247l1.935-5.494-.716-.251-2.563 7.278a8.678 8.678 0 0 0 .195 6.3 7.924 7.924 0 0 0 1.718 2.516 6.868 6.868 0 0 0 2.591 1.615l.055.02 7.169 2.522.109.037.492.174a7.181 7.181 0 0 0 2.928.158 7.812 7.812 0 0 0 2.733-.95 8.366 8.366 0 0 0 2.284-1.945c.171-.206.331-.418.482-.638a7.917 7.917 0 0 1-1.422 1.055zM309.77 69.738l6.074-22.474a6.523 6.523 0 0 0-.407-2.043 2.315 2.315 0 0 0-.486-.763 2.453 2.453 0 0 0-1.466.33 2.7 2.7 0 0 0-.76.581 2.517 2.517 0 0 1 1.368 1.384 6.529 6.529 0 0 1 .407 2.047l-6.074 22.474 7.5 2.027.48-1.766zM299.321 67.767l.442-10.424-9.672-1.929-.632 1.675 8.96 1.787-.442 10.424 7.738 1.543.071-1.786-6.465-1.29zM77.425 67.243l-3.956-23.434a5.213 5.213 0 0 0-1.2-1.68 2.62 2.62 0 0 0-1.853-.669l.046-.112a2.045 2.045 0 0 0-.945.8 2.775 2.775 0 0 0-.446.849 2.62 2.62 0 0 1 1.854.668 5.229 5.229 0 0 1 1.2 1.681l3.956 23.433 7.667-1.348-.214-1.258zM95.837 63.644l-7.708-17.256c-3.084.628-6.173 1.139-6.173 1.139l.216 1.264c1.186-.209 2.9-.522 4.613-.871l7.708 17.257 7.539-1.064-.54-1.266zM66.572 69.841l-3.984-9.62-9.594 2.358.086 1.181 8.164-2.006 4.24 9.88 7.674-1.887-.581-1.382-6.005 1.476zM18.715 84.056l-7.415-22.674a5.632 5.632 0 0 0-1.537-1.59 2.819 2.819 0 0 0-2.07-.414 3.039 3.039 0 0 1 .186-.632 2.681 2.681 0 0 0-.574.384 2.561 2.561 0 0 0-.619.813 2.952 2.952 0 0 0-.337.968 2.811 2.811 0 0 1 2.069.414 5.631 5.631 0 0 1 1.538 1.589l7.544 23.063 7.918-2.643-.465-1.359zM193.406 29.665l.066-.036a3.086 3.086 0 0 1 1.254-.2l.225-12.259-7.486-.15.163-6.909-1.307-.026-.2 8.468 7.486.15zM35.968 78.296l-7.098-20.767-9.336 3.117.333.974 7.659-2.558 7.223 21.155 7.918-2.643-.448-1.365-6.251 2.087zM46.142 74.862l-1.842-23.796-.042.075a6.49 6.49 0 0 0-1.338-1.589 2.788 2.788 0 0 0-1.936-.6 2.794 2.794 0 0 1 .1-.28 2.724 2.724 0 0 0-.389.221 2.351 2.351 0 0 0-.664.716 2.751 2.751 0 0 0-.387.876 2.788 2.788 0 0 1 1.936.6 6.49 6.49 0 0 1 1.338 1.589l.042-.075 1.838 24.182 7.619-1.873-.117-1.561zM122.959 60.332l-3.346.388-2.308.267-3.4.395-1.961.227-6.344-22.623a4.913 4.913 0 0 0-1.1-1.717 2.923 2.923 0 0 0-1.71-.789 2.786 2.786 0 0 0-1.056.833 4.074 4.074 0 0 0-.392.681 2.952 2.952 0 0 1 1.814.808 4.913 4.913 0 0 1 1.1 1.717l6.344 22.623 1.961-.227 3.4-.395 2.308-.268 3.346-.387 2.02-.234.065-1.385zM180.111 56.229a7.2 7.2 0 0 1-2.8.875l-.523.009h-.115l-7.6.143h-.058a6.877 6.877 0 0 1-2.993-.607 7.906 7.906 0 0 1-2.483-1.755 8.637 8.637 0 0 1-2.368-5.835l-.092-6.2-1.366.026.114 7.71a8.473 8.473 0 0 0 .662 3.211 8.579 8.579 0 0 0 1.706 2.624 7.922 7.922 0 0 0 2.483 1.755 6.877 6.877 0 0 0 2.993.607h.058l7.6-.142h.115l.523-.01a7.209 7.209 0 0 0 2.8-.874 7.893 7.893 0 0 0 2.233-1.847 8.069 8.069 0 0 0 .534-.729 7.89 7.89 0 0 1-1.423 1.039zM160.67 33.606a8.24 8.24 0 0 0 3.354 3 12 12 0 0 0 3.063 1.049q1.6.318 3.232.6.525.117 1.31.26t1.6.318a2.42 2.42 0 0 0-.633.422l-.4.419a1.236 1.236 0 0 0-.284.448 4.007 4.007 0 0 1 3.176 2.785l.057 3.792a3.683 3.683 0 0 1-.323 1.586 3.21 3.21 0 0 0 .783-.637 3.543 3.543 0 0 0 .884-2.482l-.057-3.792a3.818 3.818 0 0 0-1.188-1.842 3.858 3.858 0 0 0-1.988-.943 1.244 1.244 0 0 1 .284-.448c.114-.128.247-.268.4-.418a2.4 2.4 0 0 1 .633-.423q-.816-.174-1.6-.317t-1.309-.261q-1.63-.283-3.232-.6a12 12 0 0 1-3.064-1.048 8.083 8.083 0 0 1-4.581-7.374h.059l-.153-10.3a8.88 8.88 0 0 1 .508-3.14 8.651 8.651 0 0 1 .928-1.864 7.945 7.945 0 0 0-.79.778 8.387 8.387 0 0 0-1.482 2.619 8.855 8.855 0 0 0-.508 3.139l.153 10.3h-.059a8.323 8.323 0 0 0 1.227 4.374zM135.271 59.072l-.487-8.455-.85-14.647a5.577 5.577 0 0 0-.977-1.808 2.472 2.472 0 0 0-1.548-.826 2.522 2.522 0 0 0-.3.111 2.388 2.388 0 0 0-.751.584 2.75 2.75 0 0 0-.536.793 2.562 2.562 0 0 1 1.795.871 5.567 5.567 0 0 1 .977 1.808l.85 14.647.487 8.455 22.769-1.411-.083-1.444z"/><path class="cls-2" d="M12.341 59.069a5.67 5.67 0 0 0-1.543-1.6 2.846 2.846 0 0 0-2.078-.422 2.933 2.933 0 0 1 .338-.967 2.564 2.564 0 0 1 .622-.81 3.3 3.3 0 0 1 1.2-.645l-2.347-7.136-6.187-17.625 7.954-2.614 7.481 22.494 9.374-3.082-7.485-22.494 7.95-2.613 8.369 24.307 2.834 8.621 6.24 18.98-7.95 2.613-7.127-20.794-9.374 3.083 7.127 20.794-7.95 2.613zm51.5-.969l-9.633 2.322.77 10.413-7.65 1.844-1.85-23.8-.042.076a6.541 6.541 0 0 0-1.344-1.595 2.821 2.821 0 0 0-1.944-.6 2.713 2.713 0 0 1 .389-.874 2.336 2.336 0 0 1 .667-.714 3.341 3.341 0 0 1 1.2-.515 2.457 2.457 0 0 1 .376-.058 2.067 2.067 0 0 0 .319-.045l-1.622-21.2 2.04-.492 3.286-.793 2.324-.559 3.4-.82 1.926-.465 19.1 45.659-7.706 1.858zm-3.288-7.92l-8.4-20.149-.34.082 1.708 21.761zm36.675 11.467l7.571-1.035s-5.787-13.512-7.91-18.757a7.889 7.889 0 0 0 1.611-1.806 8.651 8.651 0 0 0 1.19-2.9 8.541 8.541 0 0 0 .058-3.28l-2.142-12.522a8.553 8.553 0 0 0-1.148-3.074 8.664 8.664 0 0 0-2.086-2.336 7.92 7.92 0 0 0-2.718-1.362 6.846 6.846 0 0 0-3.042-.152l.043.249-.158-.229-17.925 3.072 1.428 8.348 2.028 11.566a3.078 3.078 0 0 0-1.2.43 2.372 2.372 0 0 0-.684.662 2.734 2.734 0 0 0-.447.847 2.642 2.642 0 0 1 1.86.675 5.246 5.246 0 0 1 1.206 1.685l3.973 23.449 7.7-1.319-3.15-18.38s3.1-.5 6.2-1.116zm-15.37-24.517l-2.158-12.586 7.526-1.29a2.69 2.69 0 0 1 2.132.533 3.006 3.006 0 0 1 1.2 1.975l1.12 6.542a3.107 3.107 0 0 1-.464 2.292 2.646 2.646 0 0 1-1.827 1.243zm39.2-26.972l7.763-.868-2.331 48.92-2.029.226-3.359.375-2.318.26-3.418.381-1.969.22-6.371-22.647a4.935 4.935 0 0 0-1.1-1.721 2.984 2.984 0 0 0-1.822-.815 4.118 4.118 0 0 1 .394-.679 3.017 3.017 0 0 1 1.415-.986l-5.59-20.348 7.763-.868 10.745 38.935.347-.04zm13.442 22.142a2.586 2.586 0 0 0-1.8-.877 2.721 2.721 0 0 1 .539-.791 2.384 2.384 0 0 1 .754-.582 3.085 3.085 0 0 1 1.238-.293l-.405-7.005-.306-5.354-.489-8.456 22.869-1.322.49 8.457-15.073.873.739 12.747 9.311-.539.49 8.456-9.311.54.589 10.159 15.072-.873.49 8.457-22.87 1.325-.49-8.457-.854-14.65a5.586 5.586 0 0 0-.983-1.815zm46.6-3.475a8.642 8.642 0 0 1 3.448 3.175 9.061 9.061 0 0 1 1.26 4.659h.116l.154 10.3a8.887 8.887 0 0 1-.506 3.136 8.35 8.35 0 0 1-1.477 2.615 7.877 7.877 0 0 1-2.246 1.835 7.247 7.247 0 0 1-2.815.864l-.525.007h-.115l-7.637.114h-.057a6.918 6.918 0 0 1-3.005-.618 8 8 0 0 1-2.494-1.764 8.629 8.629 0 0 1-1.712-2.63 8.46 8.46 0 0 1-.665-3.214l-.115-7.711 7.81-.117.073 4.929a2.611 2.611 0 0 0 .78 1.854 2.324 2.324 0 0 0 1.747.764l1.967-.023a2.949 2.949 0 0 0 2.24-1.045 3.519 3.519 0 0 0 .888-2.479l-.056-3.792a3.844 3.844 0 0 0-1.194-1.848 3.888 3.888 0 0 0-2-.949 1.23 1.23 0 0 1 .285-.447q.171-.192.4-.417a2.4 2.4 0 0 1 .635-.421q-.819-.177-1.608-.323t-1.315-.265q-1.638-.291-3.245-.616a12.161 12.161 0 0 1-3.077-1.059 8.117 8.117 0 0 1-4.6-7.391h.059l-.154-10.3a8.838 8.838 0 0 1 .51-3.137 8.326 8.326 0 0 1 1.489-2.614 7.919 7.919 0 0 1 2.264-1.836 7.365 7.365 0 0 1 2.835-.864l.528-.008h.059l7.635-.114h.117a6.836 6.836 0 0 1 2.982.62 7.894 7.894 0 0 1 2.475 1.764 8.644 8.644 0 0 1 1.7 2.63 8.514 8.514 0 0 1 .66 3.214l.116 7.711-7.81.117-.074-4.93a2.68 2.68 0 0 0-.751-1.854 2.242 2.242 0 0 0-1.719-.764l-1.96.017a3.035 3.035 0 0 0-2.27 1.046 3.462 3.462 0 0 0-.917 2.479l.1 6.7c0 .211.16.376.472.5a5.9 5.9 0 0 0 1.137.3c.446.079.9.145 1.368.2s.873.125 1.223.2q1.688.291 3.377.645a12.341 12.341 0 0 1 3.21 1.158zm23.658-21.563l7.575.179-.2 8.469-7.575-.179-.942 39.875-7.81-.185.613-23.257a5.593 5.593 0 0 0-.829-1.884 2.579 2.579 0 0 0-1.726-1.021 2.747 2.747 0 0 1 .6-.745 2.4 2.4 0 0 1 .8-.518 3.113 3.113 0 0 1 1.259-.192l.225-12.258-7.516-.178.2-8.468 7.517.178zm39.367 19.355a9.868 9.868 0 0 1 3.354 4.092 11.572 11.572 0 0 1 .874 5.6l.124.011-.877 12.08a11.265 11.265 0 0 1-.857 3.62 9.914 9.914 0 0 1-1.838 2.9 8.447 8.447 0 0 1-2.582 1.906 7.173 7.173 0 0 1-3.089.706l-.56-.049-.124-.01-8.157-.7h-.062a6.969 6.969 0 0 1-3.143-1.053 8.816 8.816 0 0 1-2.482-2.339 10.523 10.523 0 0 1-1.561-3.267 10.9 10.9 0 0 1-.385-3.839l.656-9.045 8.342.714-.443 8.493a3.28 3.28 0 0 0 .644 2.256 2.445 2.445 0 0 0 1.787 1.086l2.1.18a3 3 0 0 0 2.5-.98 4.324 4.324 0 0 0 1.2-2.807l.346-7.16a4.667 4.667 0 0 0-1.087-2.293 4.1 4.1 0 0 0-2.033-1.331 1.467 1.467 0 0 1 .349-.492c.135-.138.292-.285.471-.445a2.556 2.556 0 0 1 .719-.424q-.857-.3-1.682-.553t-1.377-.454q-1.716-.521-3.4-1.075a12.478 12.478 0 0 1-3.174-1.577 9.455 9.455 0 0 1-3.288-3.9 10.626 10.626 0 0 1-.872-5.26l.063.005.876-12.085a11.209 11.209 0 0 1 .861-3.621 9.909 9.909 0 0 1 1.851-2.9 8.5 8.5 0 0 1 2.6-1.9 7.309 7.309 0 0 1 3.112-.7l.565.048.062.006 8.156.7.124.011a6.887 6.887 0 0 1 3.119 1.05 8.781 8.781 0 0 1 2.462 2.338 10.549 10.549 0 0 1 1.548 3.266 10.981 10.981 0 0 1 .38 3.837l-.656 9.046-8.342-.713.443-8.493a3.357 3.357 0 0 0-.614-2.254 2.359 2.359 0 0 0-1.756-1.083l-2.1-.18a3.088 3.088 0 0 0-2.527.978 4.235 4.235 0 0 0-1.229 2.8l-.593 10.57q-.027.37.453.635a6.028 6.028 0 0 0 1.182.475q.7.21 1.44.384a12.3 12.3 0 0 1 1.283.371q1.772.525 3.537 1.123a12.68 12.68 0 0 1 3.307 1.695zm8.152 31.87l3.23-23.1a4.926 4.926 0 0 0-.653-1.936 2.975 2.975 0 0 0-1.57-1.231 2.75 2.75 0 0 1 .678-.675 2.385 2.385 0 0 1 .851-.428 3.091 3.091 0 0 1 1.272-.053l2.6-20.51 3.467.463 4.275.571 3.467.463 3.164 30.46 3.942-29.511 7.741 1.035-6.4 47.93-3.294-.439-4.449-.594-3.293-.44-3.238-31.236-4.047 30.265zm49.716-2.38l-9.713-1.965-3.7 9.763-7.713-1.56 8.218-22.152-.07.051a6.516 6.516 0 0 0-.544-2.013 2.821 2.821 0 0 0-1.507-1.369 2.717 2.717 0 0 1 .722-.628 2.324 2.324 0 0 1 .906-.365 3.31 3.31 0 0 1 1.3.038 2.552 2.552 0 0 1 .365.106 2.19 2.19 0 0 0 .308.095l7.65-20.108 2.057.416 3.314.671 2.342.474 3.428.693 1.942.394-1.979 49.452-7.77-1.573zm.366-8.567l.905-21.81-.343-.069-7.646 20.445zm15.781-1.452a6.569 6.569 0 0 0-.409-2.045 2.539 2.539 0 0 0-1.373-1.39 2.7 2.7 0 0 1 .762-.578 2.371 2.371 0 0 1 .9-.312 3.09 3.09 0 0 1 1.267.116l3.248-11.821 2.229-8.171 17.546 4.785.114.031a6.953 6.953 0 0 1 2.714 1.429 7.963 7.963 0 0 1 1.9 2.386 8.662 8.662 0 0 1 .917 3 8.492 8.492 0 0 1-.253 3.272l-3.36 12.319a8.495 8.495 0 0 1-1.443 2.948 8.127 8.127 0 0 1-5.152 3.149 6.94 6.94 0 0 1-3.064-.147l-.083.3-10.116-2.759-4.907 18-7.536-2.056zm21.283-8.606a2.682 2.682 0 0 0-.224-2.059 2.412 2.412 0 0 0-1.535-1.238l-7.592-2.071-3.359 12.319 7.648 2.086a2.288 2.288 0 0 0 1.931-.325 2.862 2.862 0 0 0 1.219-1.7zm26.23 19.823a8.648 8.648 0 0 1 2.127 4.173 9.048 9.048 0 0 1-.44 4.807l.11.039-3.438 9.712a8.892 8.892 0 0 1-1.567 2.766 8.332 8.332 0 0 1-2.293 1.936 7.86 7.86 0 0 1-2.744.941 7.261 7.261 0 0 1-2.94-.17l-.5-.175-.109-.038-7.2-2.549-.055-.02a6.954 6.954 0 0 1-2.6-1.625 8 8 0 0 1-1.725-2.522 8.619 8.619 0 0 1-.69-3.061 8.477 8.477 0 0 1 .494-3.245l2.574-7.269 7.363 2.607-1.645 4.647a2.614 2.614 0 0 0 .085 2.009 2.333 2.333 0 0 0 1.373 1.324l1.855.657a2.942 2.942 0 0 0 2.464-.2 3.517 3.517 0 0 0 1.695-2.015l1.265-3.575a3.827 3.827 0 0 0-.476-2.147 3.886 3.886 0 0 0-1.541-1.585 1.228 1.228 0 0 1 .422-.32l.522-.251a2.384 2.384 0 0 1 .741-.173q-.7-.452-1.394-.863t-1.142-.706q-1.432-.843-2.828-1.7a12.167 12.167 0 0 1-2.515-2.065 8.108 8.108 0 0 1-1.742-8.529l.055.02 3.438-9.713a8.82 8.82 0 0 1 1.571-2.763 8.323 8.323 0 0 1 2.3-1.934 7.926 7.926 0 0 1 2.761-.933 7.381 7.381 0 0 1 2.96.175l.5.177.056.019 7.2 2.549.11.039a6.855 6.855 0 0 1 2.581 1.617 7.925 7.925 0 0 1 1.707 2.516 8.644 8.644 0 0 1 .679 3.057 8.516 8.516 0 0 1-.5 3.244l-2.574 7.269-7.363-2.607 1.65-4.652a2.677 2.677 0 0 0-.06-2 2.241 2.241 0 0 0-1.345-1.314l-1.854-.656a3.028 3.028 0 0 0-2.491.19 3.458 3.458 0 0 0-1.723 2.005l-2.236 6.316c-.07.2.02.41.269.633a5.985 5.985 0 0 0 .962.675q.588.342 1.213.664t1.076.616q1.481.859 2.941 1.779a12.341 12.341 0 0 1 2.611 2.197zM369.714 74.968a3.373 3.373 0 1 1-3.4 3.355 3.354 3.354 0 0 1 3.4-3.355zm0 6.249a2.878 2.878 0 1 0-2.786-2.894 2.782 2.782 0 0 0 2.786 2.894zm-1.314-4.851h1.524c.938 0 1.38.37 1.38 1.127a1.013 1.013 0 0 1-1.037 1.073l1.128 1.74h-.66l-1.072-1.695h-.649v1.695h-.614zm.614 1.749h.639c.541 0 1.037-.027 1.037-.649 0-.523-.45-.6-.865-.6h-.811z"/></svg>