<svg aria-labelledby="invision" xmlns="http://www.w3.org/2000/svg" viewBox="0 0 788.484 264"><defs><style>.cls-1{fill:#fff;}</style></defs><title id="invision">Invision</title><path class="cls-1" d="M371.7 204.948h25.267v-110.248h-25.267zm92.3-65.148c-12.949-4.183-24.855-7.521-24.855-15.453v-.419c0-6.473 5.639-11.068 15.453-11.068a48.413 48.413 0 0 1 15.683 3.041v-.014l.159.075c.476.169.96.358 1.443.54 4 1.264 14.777 2.953 23.861-11.155-11.7-7.73-26.726-12.534-40.517-12.534-21.922 0-39.254 12.736-39.254 33.622v.419c0 21.088 18.166 27.77 34.453 32.365 12.95 3.966 24.646 6.888 24.646 15.449v.416c0 7.311-6.267 11.905-17.125 11.905a54.689 54.689 0 0 1-23-5.618c-2.267-.956-14.061-4.99-24.145 9.351a77.457 77.457 0 0 0 46.524 16.315c22.963 0 40.926-11.48 40.926-34.666v-.416c-.011-19.835-18.177-27.146-34.252-32.155zm-161.2 35.911l-29.653-81.011h-27.147l45.315 111.082h22.76l45.104-111.082h-26.519zm312.79-83.311c-33.828 0-58.889 26.1-58.889 57.842 0 31.527 24.848 57.214 58.47 57.214 34.041 0 59.1-26.1 59.1-57.633-.001-31.741-24.856-57.423-58.681-57.423zm0 93.133c-19.632 0-33.622-16.081-33.622-35.71 0-19.416 12.946-35.291 33.2-35.291 19.835 0 33.828 16.078 33.828 35.71.004 19.415-12.946 35.287-33.406 35.287zm133.636-93.133c-17.125 0-27.354 8.98-34.456 19.419v-17.119h-25.264v110.248h25.264v-62.231c0-17.121 10.233-27.351 24.852-27.351 15.037 0 23.6 9.811 23.6 26.933v62.649h25.267v-70.163c-.005-25.685-14.414-42.385-39.263-42.385zm-234.286 112.548h25.271v-110.248h-25.271zM264 23.932a23.932 23.932 0 0 0-23.932-23.932h-216.136a23.932 23.932 0 0 0-23.932 23.932v216.136a23.932 23.932 0 0 0 23.932 23.932h216.136a23.932 23.932 0 0 0 23.932-23.932zm-176.032 27.601a15.892 15.892 0 1 1-16.126 15.886 15.94 15.94 0 0 1 16.126-15.886zm107.894 152.017c-16.364 0-24.189-9.718-24.189-23a42.064 42.064 0 0 1 1.659-11.858l7.827-27.985a28.43 28.43 0 0 0 1.186-8.538c0-9.009-5.455-14.466-14.23-14.466-11.148 0-18.5 8-22.293 23.417l-15.18 60.88h-26.561l4.767-19.133c-7.807 12.825-18.65 20.769-32.026 20.769-16.127 0-23.717-9.291-23.717-23.286a54.567 54.567 0 0 1 1.424-11.938l12.094-49.412h-18.734l5.692-21h45.06l-17.788 70.562a44.671 44.671 0 0 0-1.66 10.854c0 4.513 2.22 5.832 5.694 6.615 2.114.474 18.968.143 28.145-20.253l11.682-46.778h-18.973l5.692-21h40.554l-5.216 23.842c7.113-13.283 21.344-25.9 35.336-25.9 14.941 0 27.275 10.644 27.275 31.04a60.117 60.117 0 0 1-2.609 17.3l-7.591 27.265a31.485 31.485 0 0 0-1.182 7.346c0 4.741 1.9 7.111 5.457 7.111s8.063-2.614 13.281-17.074l10.434 4.029c-6.172 21.583-17.317 30.591-31.31 30.591z"/></svg>