<?xml version="1.0" encoding="utf-8"?>
<!-- Generator: Adobe Illustrator 23.1.1, SVG Export Plug-In . SVG Version: 6.00 Build 0)  -->
<svg version="1.1" id="Layer_1" xmlns="http://www.w3.org/2000/svg" xmlns:xlink="http://www.w3.org/1999/xlink" x="0px" y="0px"
	 viewBox="0 0 2102.3 570.2" style="enable-background:new 0 0 2102.3 570.2;" xml:space="preserve">
<style type="text/css">
	.st0{fill:#FFFFFF;}
</style>
<path class="st0" d="M536.5,289.2L402.3,396.3V289.2h-41.9V504h41.9v-60.9l48.3-38.4c7.6,9.5,14.5,18.3,21.1,26.9
	c36.9,47.3,59.2,75.9,94.1,75.9c6.4,0,12.9-0.9,20.6-2.9l2.5-0.6l-1.1-38.1l-3.8,0.8c-2.7,0.6-5.3,1.2-8.1,1.2
	c-21.8,0-51.5-28.4-93.4-89.2l112-89.4h-58V289.2z M725.9,337.8c-18,0-42.9,4.8-62.7,26.5l-1.3-23.1h-40.1v163.1h41.9V417
	c9.9-29,33.8-39.3,51.3-39.3c14.7,0,30.6,9,30.6,28.7v97.9h42.5V401.5C788.1,364,762.5,337.8,725.9,337.8z M904.9,330.3
	c-52.2,0-86,34.5-86,87.8c0,51.6,34.9,86.3,86.9,86.3c52.4,0,86.3-34.5,86.3-87.8C992.1,364.9,957.1,330.3,904.9,330.3z
	 M905.5,463.8c-26.8,0-44.1-18.8-44.1-47.9c0-27.6,16.7-44.7,43.5-44.7c27.2,0,44.7,18.8,44.7,47.8
	C949.6,446.6,932.7,463.8,905.5,463.8L905.5,463.8z M1217.8,449l-2.8,6.1c-16.6-43.6-30-79.3-42-111.8l-0.8-2.1h-42.1l-0.8,2.1
	c-13.6,36.8-27.6,74.7-41.8,112l-2.9-6.1l-8.8-23.1c-10.3-27.1-21-55.1-31.3-82.8l-0.8-2.1h-43.1l66.2,163.1h41l43.3-108
	c5.4,13.3,10.7,26.7,16.1,40c8.7,21.7,17.7,44.1,26.7,66l0.8,2h41l66.2-163.1h-43L1217.8,449z M1416,337.5
	c-19.5,0-37.8,6.7-51.3,18.7v-66.6h-41.9v214.8h39.4l0.3-2.9c0.4-3.8,0.8-7.7,1.3-11.5c12.6,12.4,29.8,19.1,49.1,19.1
	c39.8,0,80-29.6,80-86.3c0-26.5-8-48.6-23.1-63.9C1456.1,345.1,1437,337.5,1416,337.5L1416,337.5z M1406.3,470
	c-26,0-41.6-17.7-41.6-47.2c0-28.8,14.8-45.3,40.6-45.3c27.2,0,44.7,18.8,44.7,47.8C1450.1,452.9,1433.3,470,1406.3,470z
	 M1521.1,340.9h41.9V504h-41.9V340.9z M1541.2,267.9c-16.4,0-27.4,11.1-27.4,27.7c0,15.7,11.6,27,27.7,27c15.9,0,27-11.4,27-27.7
	C1568.6,279.3,1557.1,267.9,1541.2,267.9L1541.2,267.9z M1668,464c-18.4,0-23.4-6.4-23.4-29.7V289.2h-41.9v146.4
	c0,47.3,18.6,70.3,56.8,70.3c5.9,0,15.5-0.7,20.7-1.3l2.9-0.3v-41.5l-3.8,0.6C1677.8,463.7,1670.6,464,1668,464L1668,464z
	 M1730.9,267.9c-16.4,0-27.4,11.1-27.4,27.7c0,15.7,11.6,27,27.7,27c15.9,0,27-11.4,27-27.7C1758.3,279.3,1746.8,267.9,1730.9,267.9
	L1730.9,267.9z M1710.8,340.9h41.9V504h-41.9V340.9z M1868.6,464c-18.4,0-24.4-6.4-24.4-29.7v-54.2h30.5v-39.2h-29.5l-1-51.7h-39.9
	v51.7h-21.9v39.2h21.9v55.5c0,47.3,18.6,70.3,56.8,70.3c5.9,0,15.5-0.7,20.7-1.3l2.9-0.3v-41.5l-3.8,0.6
	C1879.4,463.7,1871.2,464,1868.6,464L1868.6,464z M2059.3,340.9l-0.9,1.7l-25.2,48c-11.6,22.1-23.5,44.8-35.4,67.2
	c-17.8-38-35.5-76.8-52.7-114.3l-1.2-2.6h-44.2l76.4,156.7l-38.4,72.5h43.7l120.9-229.3h-43L2059.3,340.9z M300,150
	C300,67.3,232.7,0,150,0S0,67.3,0,150c0,76.7,57.8,140.1,132.2,148.9v187.2c0,9.8,8,17.8,17.8,17.8s17.8-8,17.8-17.8V298.9
	C242.2,290.1,300,226.7,300,150z M167.8,262.8v-39l48.1-48.1c7-7,7-18.2,0-25.2s-18.2-7-25.2,0l-22.9,22.9v-16l35.2-35.2
	c7-7,7-18.2,0-25.2c-7-6.9-18.2-7-25.2,0l-40.4,40.4l-0.2,0.2c-0.8,0.8-1.5,1.6-2.1,2.5c-0.3,0.5-0.5,1-0.8,1.5
	c-0.1,0.2-0.2,0.3-0.3,0.5l-24.9-24.9c-7-7-18.2-7-25.2,0s-7,18.2,0,25.2l48.1,48.1v72.3C77.3,254.2,35.4,207,35.4,150
	C35.6,86.8,86.8,35.6,150,35.6S264.4,86.8,264.4,150C264.4,207.1,222.5,254.3,167.8,262.8L167.8,262.8z"/>
</svg>
