<svg aria-labelledby="mozilla" xmlns="http://www.w3.org/2000/svg" viewBox="0 0 1792.137 387.219"><defs><style>.cls-1{fill:#fff;}</style></defs><title id="mozilla">Mozilla</title><path class="cls-1" d="M975.501 327.306h-81l138.694-158.108-5.551-37.724h-219.682l-8.874 87.653 51.593 5.55 11.095-38.838h78.216l-137.575 158.107 7.21 37.725h218.574l15.533-87.652-56.581-5.545-11.652 38.832zM1096.13 291.798h74.892v89.874h-74.892zM1096.131 131.475h74.892v89.874h-74.892zM429.939 213.03c0-59.364-41.054-86.544-85.988-86.544-39.389 0-67.682 20.521-81.551 53.808-12.2-36.611-45.49-53.808-81.55-53.808-34.947 0-61.024 16.09-76 42.712v-37.724h-104.85v54.365h33.287v141.467h-33.287v54.365h152.562v-54.365h-47.712v-87.1c0-34.952 13.868-59.359 48.263-59.359 28.294 0 42.719 16.641 42.719 59.91v140.91h104.844v-54.361h-33.282v-87.1c0-34.952 13.869-59.359 48.264-59.359 28.293 0 42.712 16.641 42.712 59.91v140.91h104.85v-54.361h-33.281zM628.61 126.484c-89.869 0-134.252 60.468-134.252 133.7 0 79.886 53.258 127.036 130.371 127.036 79.881 0 137.575-50.479 137.575-130.365-.004-69.903-43.826-130.371-133.694-130.371zm-1.665 205.816c-38.832 0-58.8-33.288-58.8-76.557 0-47.156 22.742-74.335 59.359-74.335 33.838 0 61.018 22.742 61.018 73.222-.002 47.711-24.41 77.67-61.577 77.67zM1781.046 339.507c-11.652 0-17.2-4.988-17.2-19.413v-108.731c0-57.143-45.486-84.88-99.3-84.88-41.053 0-63.24 4.994-107.066 22.749l-9.75 57.551 57.143 6.1 8.081-28.156c11.652-6.1 23.3-7.209 38.275-7.209 40.5 0 41.054 30.509 41.054 56.029v8.324a327.221 327.221 0 0 0-41.054-2.222c-57.138 0-116.491 14.425-116.491 76 0 52.15 41.048 71.568 77.1 71.568 40.5 0 66.018-24.412 80.443-49.933 3.329 30.515 21.64 49.933 54.922 49.933a96.655 96.655 0 0 0 44.934-11.652l-.551-37.724a37.755 37.755 0 0 1-10.54 1.666zm-143.13-3.324c-21.635 0-29.4-12.765-29.4-28.85 0-27.185 22.192-34.4 47.713-34.4 11.646 0 24.407 1.665 36.054 3.33-1.667 41.609-28.847 59.92-54.367 59.92zM1326.038 0l-108.168 381.67h70.449l108.174-381.67h-70.455zM1471.387 0l-108.174 381.67h70.455l108.174-381.67h-70.455z"/></svg>