<svg aria-labelledby="netlify" xmlns="http://www.w3.org/2000/svg" viewBox="0 0 146.593 38.852"><defs><style>.cls-1,.cls-2{fill:#fff;}.cls-1{fill-rule:evenodd;}</style></defs><title id="netlify">Netlify</title><path class="cls-1" d="M53.241 12.149l.123 2.2a6.816 6.816 0 0 1 5.525-2.55q5.926 0 6.032 6.8v12.57h-4.26v-12.322a3.927 3.927 0 0 0-.78-2.681 3.279 3.279 0 0 0-2.552-.87 4.1 4.1 0 0 0-3.84 2.338v13.535h-4.262v-19.02h4.014zm24.378 19.372a8.8 8.8 0 0 1-6.567-2.557 9.29 9.29 0 0 1-2.517-6.812v-.527a11.433 11.433 0 0 1 1.1-5.089 8.361 8.361 0 0 1 3.078-3.49 8.13 8.13 0 0 1 4.42-1.247 7.438 7.438 0 0 1 5.988 2.478q2.115 2.48 2.114 7.014v1.723h-12.4a5.723 5.723 0 0 0 1.565 3.726 4.708 4.708 0 0 0 3.464 1.371 5.764 5.764 0 0 0 4.77-2.373l2.3 2.2a7.684 7.684 0 0 1-3.042 2.645 9.508 9.508 0 0 1-4.27.94zm-.508-16.294a3.584 3.584 0 0 0-2.832 1.23 6.38 6.38 0 0 0-1.379 3.428h8.12v-.317a5.2 5.2 0 0 0-1.14-3.243 3.559 3.559 0 0 0-2.769-1.098zm16.765-7.7v4.623h3.35v3.164h-3.35v10.617a2.346 2.346 0 0 0 .43 1.573 1.99 1.99 0 0 0 1.535.483 6.5 6.5 0 0 0 1.49-.176v3.305a10.447 10.447 0 0 1-2.806.4q-4.91 0-4.91-5.431v-10.772h-3.124v-3.164h3.122v-4.623h4.263zm11.137 23.643h-4.262v-27h4.262zm9.172 0h-4.262v-19.02h4.262zm-4.525-23.96a2.271 2.271 0 0 1 .622-1.634 2.353 2.353 0 0 1 1.78-.65 2.384 2.384 0 0 1 1.79.65 2.257 2.257 0 0 1 .63 1.635 2.2 2.2 0 0 1-.63 1.608 2.4 2.4 0 0 1-1.79.642 2.368 2.368 0 0 1-1.78-.642 2.216 2.216 0 0 1-.622-1.608zm10.663 23.96v-15.857h-2.894v-3.164h2.894v-1.74a6.542 6.542 0 0 1 1.753-4.887 6.711 6.711 0 0 1 4.91-1.722 9.827 9.827 0 0 1 2.386.316l-.105 3.34a8.339 8.339 0 0 0-1.631-.14q-3.052 0-3.052 3.146v1.687h3.858v3.164h-3.858v15.856h-4.261zm17.87-6.117l3.858-12.9h4.542l-7.54 21.9q-1.737 4.8-5.893 4.8a7.615 7.615 0 0 1-2.052-.317v-3.3l.807.053a4.138 4.138 0 0 0 2.429-.589 3.905 3.905 0 0 0 1.289-1.977l.613-1.635-6.664-18.938h4.595z"/><path class="cls-2" d="M27.758 13.306l-.014-.006a.059.059 0 0 1-.023-.013.109.109 0 0 1-.028-.093l.773-4.726 3.625 3.626-3.77 1.6a.092.092 0 0 1-.033.006h-.015a.1.1 0 0 1-.02-.017 1.721 1.721 0 0 0-.495-.377zm5.258-.288l3.876 3.876c.8.806 1.208 1.208 1.355 1.674a1.885 1.885 0 0 1 .054.209l-9.263-3.923-.015-.006-.08-.07.081-.071.012-.005zm5.127 7a7.3 7.3 0 0 1-1.25 1.427l-4.37 4.369-5.652-1.174-.03-.006-.1-.062a1.707 1.707 0 0 0-.655-1.193.1.1 0 0 1-.01-.092.032.032 0 0 1 0-.014l1.063-6.526v-.022l.06-.108a1.73 1.73 0 0 0 1.16-.665l.027-.027a.131.131 0 0 1 .1.014l9.65 4.082zm-6.625 6.8l-7.186 7.186 1.23-7.56v-.01a.136.136 0 0 1 .006-.029l.061-.044h.012a1.849 1.849 0 0 0 .7-.517.153.153 0 0 1 .09-.06.141.141 0 0 1 .029 0l5.06 1.04zm-8.707 8.707l-.81.81-8.955-12.935-.01-.014a.088.088 0 0 1-.026-.06.067.067 0 0 1 .022-.042l.01-.013.075-.123.02-.035a.143.143 0 0 1 .051-.06.121.121 0 0 1 .073 0l9.921 2.046a.163.163 0 0 1 .076.033.073.073 0 0 1 .019.043 1.756 1.756 0 0 0 1.028 1.175v.078a.264.264 0 0 0-.015.045c-.119.753-1.19 7.291-1.479 9.056zm-1.692 1.695a3.761 3.761 0 0 1-1.347 1.03 2 2 0 0 1-1.206 0c-.466-.148-.869-.55-1.674-1.356l-8.992-8.994 2.349-3.643a.15.15 0 0 1 .04-.047.1.1 0 0 1 .091 0 2.434 2.434 0 0 0 1.638-.083h.075a.169.169 0 0 1 .028.032zm-14.088-10.186l-2.062-2.063 4.074-1.738a.093.093 0 0 1 .033-.007l.072.065.13.184.013.016-.008.05-2.25 3.493zm-2.976-2.976l-2.61-2.61c-.445-.448-.766-.766-.99-1.043l7.936 1.646.03.005.1.063-.109.092-.023.01zm-4.055-4.995a1.99 1.99 0 0 1 .09-.495c.148-.466.55-.868 1.356-1.674l3.34-3.34q2.308 3.346 4.627 6.687l.026.106a2.776 2.776 0 0 0-.395.528.151.151 0 0 1-.05.062.055.055 0 0 1-.042 0l-8.952-1.875zm5.68-6.4l4.49-4.491c.423.185 1.96.834 3.333 1.414 1.04.44 1.988.84 2.286.97a.11.11 0 0 1 .07.054.1.1 0 0 1 0 .06 2 2 0 0 0 .523 1.828l-.026.11-.014.021-4.56 7.063a.138.138 0 0 1-.043.05.116.116 0 0 1-.086 0 2.314 2.314 0 0 0-.543-.074 2.991 2.991 0 0 0-.522.063.067.067 0 0 1-.054 0 .2.2 0 0 1-.045-.051zm5.4-5.4l5.814-5.814c.806-.806 1.206-1.209 1.673-1.356a2 2 0 0 1 1.206 0c.466.147.869.55 1.674 1.355l1.26 1.26-4.136 6.4a.146.146 0 0 1-.041.048.1.1 0 0 1-.09 0 2.1 2.1 0 0 0-1.92.37h-.1c-.54-.235-4.74-2.01-5.341-2.265zm12.505-3.677l3.815 3.814-.92 5.7v.015a.161.161 0 0 1-.008.038l-.05.03a1.839 1.839 0 0 0-.548.273l-.02.017a.063.063 0 0 1-.04.025.105.105 0 0 1-.043-.007l-5.818-2.472-.011-.005-.081-.071a2.194 2.194 0 0 0-.31-.915l-.035-.141zm-3.934 8.605l5.454 2.31.076.058a.11.11 0 0 1 0 .057 1.356 1.356 0 0 0-.03.263v.153l-.075.069h-.011c-.864.369-12.13 5.173-12.147 5.173a.064.064 0 0 1-.052-.017l.027-.11.014-.02 4.482-6.94.008-.012.1-.089.045.007a2.09 2.09 0 0 0 .283.027 2.025 2.025 0 0 0 1.69-.9.164.164 0 0 1 .034-.04.1.1 0 0 1 .102.011zm-6.246 9.185l12.28-5.237a.054.054 0 0 1 .035.017 1.662 1.662 0 0 0 .179.154l.027.017.052.056a.1.1 0 0 1 0 .025l-1.051 6.463v.026l-.061.107a1.728 1.728 0 0 0-1.373.847v.008a.139.139 0 0 1-.05.057.112.112 0 0 1-.07 0l-9.804-2.016-.163-.52z"/></svg>