<svg aria-labelledby="oreilly" xmlns="http://www.w3.org/2000/svg" viewBox="0 0 475.887 82.322"><defs><style>.cls-1{fill:#fff;}</style></defs><title id="oreilly">O’Reilly</title><path class="cls-1" d="M239.376 14.843v-13.092h-54.623v78.57h54.623v-13.098h-41.532v-19.639h39.531v-13.098h-39.531v-19.643h41.532zM279.907 80.321v-78.569h13.095v65.471h37.776v13.098h-50.871zM341.451 80.321v-78.569h13.101v65.471h37.773v13.098h-50.874zM253.117 1.752h13.092v78.569h-13.092zM21.245 21.717a27.841 27.841 0 1 0 19.678-8.145 27.739 27.739 0 0 0-19.678 8.145m-21.245 19.683a40.924 40.924 0 1 1 40.923 40.922 40.928 40.928 0 0 1-40.923-40.922"/><path class="cls-1" d="M122.32 34.487v-19.644h26.38a9.822 9.822 0 0 1 0 19.644zm32.951 12.123a22.909 22.909 0 0 0-6.571-44.858h-39.475v78.569h13.1v-32.735h18.24l19.755 32.735h15.274zM99.944 10.113a9.64 9.64 0 1 1-9.638-9.639 9.641 9.641 0 0 1 9.638 9.639"/><path class="cls-1" d="M450.703 1.752h-15.914l-20.153 29.17-20.155-29.17h-15.914l29.505 42.72v35.849h13.101v-35.819l29.53-42.75zM466.2 17.828a8.14 8.14 0 1 1 8.135-8.137 8.141 8.141 0 0 1-8.135 8.137m0-17.828a9.69 9.69 0 1 0 9.689 9.691 9.694 9.694 0 0 0-9.689-9.691M463.851 6.327h3.815a1.234 1.234 0 0 1 0 2.468h-3.815zm6.692 1.232a2.873 2.873 0 0 0-2.877-2.879h-5.452v9.874h1.637v-4.111h2.766l1.981 4.111h1.831l-2.029-4.207a2.873 2.873 0 0 0 2.139-2.788"/></svg>