<svg aria-labelledby="rise-bar" xmlns="http://www.w3.org/2000/svg" viewBox="0 0 190.553 87.795"><defs><style>.cls-1{fill:#fff;}</style></defs><title id="rise-bar">rise</title><path class="cls-1" d="M87.115 31.347c-2.227-2.218-5.466-2.554-8.447-1.819-6.089 1.5-11.058 7.4-14.119 12.51-.278.465-1.1 1.446-1.109 1.983.092-4.127.226-8.368.2-13.467-5.647-.881-12.173.282-15.915-.411-2.142 1.565-1.02 6.958-.615 9.8.086.605 6.8-.734 7.35-.82.671-.1 1.011 15.883.99 17.266q-.062 4.231-.167 8.461a73.491 73.491 0 0 0-.094 8.222c.085.971.466 2.274-.1 3.157-.622.974-2.588.96-3.587 1.1a16.5 16.5 0 0 1-4.341.191c-.413-.053-3.192-.35-2.908.578.725 2.371 1.663 5.4.813 8.158 3.908 1.092 8.9.636 13.879.2 4.818-.416 9.721.457 13.88 0-.779-3.352.409-7.873 0-10.2-2.383-.385-5.385 1.39-8.167.611-1.292-.361-.855-2.784-.83-3.7.114-4.09-.119-8.188-.184-12.277-.052-3.216-.12-6.553 1.128-9.567a25.563 25.563 0 0 1 6.307-8.5c.863-.819 1.631-1.73 2.537-2.507.5-.425.85-.855 1.443-.763 1.73.269 2.476 2.421 3.767 3.359 3.29 2.393 8.79-.092 10.119-3.6a7.451 7.451 0 0 0-1.83-7.965zm-39.609.265c.5-.085.45.379 1.039.207.06.542-1.405.724-1.039-.207zm2.7 6.024c.358.191 1.11-.006 1.041.623-.364-.189-1.117.005-1.041-.623zm1.041-4.155v-1.041c.634-.315.634 1.36 0 1.041zm-4.782 49.635c.291-.628-.1-.738 0-1.658.379.055.835 1.72 0 1.658zm.418 2.5c.254-.635.793.145 1.038.2-.021.399-.775-.161-1.038-.205zm3.742-1.868a1.321 1.321 0 0 1 1.033.207c-.014.612-1.24.551-1.033-.212zm2.489.207a.665.665 0 0 1 1.039-.207c-.253.292-.794.469-1.039.202zm3.323-42.366c-.9-.694.021-3.2-.829-3.948 1.326.259.666 2.515.829 3.943zm4.572 2.49c.442-.019.1 2.528.207 3.534-.736-.393.084-2.268-.207-3.539zm-2.286-11.224v-.415h.831c.209.626-.463.37-.831.415zm.622 17.451v-1.042c.636-.313.636 1.361 0 1.042zm.622 26.584c.167.039.21.209.419.208-.039.17-.209.209-.209.415-.171-.037-.206-.206-.419-.206.042-.172.213-.207.209-.417zm.21 4.774c.026-.594.867-.382 1.454-.413.163.789-.981.262-1.454.413zm11.008-.206c.7-.213.321.647.415 1.037-.407-.163-.746-.725-.415-1.037zm.207 3.112c.686.071.4 1.28-.414 1.041l.414-1.041zm10.179-47.97c.174-.726.823-.969 1.456-1.245.023.921-.683 1.119-1.456 1.245zm5.193-3.74c.547-.06.533.439.621.834-.302-.186-.659-.319-.621-.839z" transform="translate(-44.238)"/><path class="cls-1" d="M128.655 66.318c-.148.516-.2.855.208 1.244.279-.262.36-1.234-.208-1.244zM128.862 67.765c-.06.469.05.777.409.827-.041-.365.213-1.035-.409-.827z"/><path class="cls-1" d="M157.194 54.406c-4.091-.781-8.079-2.145-12.093-3.266-2.7-.754-6.266-2.387-6.082-5.76.425-7.827 13.933-12.293 19.754-7.874-.506-.385-1.735 2.285-1.8 2.639a5.017 5.017 0 0 0 .767 3.2 10.763 10.763 0 0 0 5.373 4.655c7.643 2.726 10.412-9.665 5.586-13.8-.413-.354-.825-.707-1.254-1.04-4.7-3.645-11.23-4.265-16.982-3.912-5.394.331-11.942 1.575-15.981 5.425a18.483 18.483 0 0 0-5.156 8.772c-.48 2.546.112 6.771 1.635 8.983 2.209 3.23 7.412 4.524 10.906 5.714a99.794 99.794 0 0 1 12.212 4.518 17.8 17.8 0 0 1 5.952 4.368c2 2.41 3.611 7.551 1.05 10.078-2 1.971-5.694 2.388-8.353 2.206a27 27 0 0 1-12.582-4.031c.164-3.871 1.034-7.61-3.674-9.081a6.671 6.671 0 0 0-5.928 1.13c-7.165 5.02-1.01 15.72 5.4 17.576 13.415 3.883 32.939 3.9 36.92-13.15 2.543-10.869-6.59-15.616-15.67-17.35zm6.235-21.678c-.525.054-.862-.073-.8-.6.148.316.978-.05.8.6zm-1.4 7.634a1.255 1.255 0 0 0 0 1c.535.695-1.194-1.032-.004-1zm-6.43-6.429c-.076.34.151.379.405.405-.872.476-1.129-.181-2.419 0 .576-.597.936-.232 2.015-.405zm-13.051-1.607c.354.048.46.348.4.8h-.6c-.09-.415.135-.526.196-.8zm-11.666 16.481a14.618 14.618 0 0 1-.2-2.416 7.129 7.129 0 0 1 1.208 2.416c-.383-.382-.512-.024-1.008 0zm1.4-2.013a1.145 1.145 0 0 1-.6-1.2.984.984 0 0 0 .6.2zm.2 4.627c.159-.465.705.343 1 .4-.314.634-.625-.413-.994-.4zm2.01 1.61h-.4c.038-.175-.077-.189-.2-.2-.076-.394.917-.297.608.2zm1.408-10.254c-.559-.86.746-1.325.808-2.213a2.005 2.005 0 0 1-.802 2.213zm4.022 7.029c.486.116 1.034.179 1 .81-.641.053-.957-.238-.994-.81zm17.465 5.837c-1.081-.586 1.572.573 0 0zm3.023 8.038c.195-.613.676.094.8.2-.043.476-.526-.231-.794-.2zm1.812 3.013c-.5-.169-.642-.7-1.009-1 .198-.316 1.203.26 1.015 1zm-28.937 12.253c.709.59 1.377.79 1.011 2.009.607.933 2.167.912 3.016 1.607a3.73 3.73 0 0 1-4.027-3.616zm4.427-3.814c1.84.238 2.623 1.533 4.228 2a4.844 4.844 0 0 1-4.228-2zm8.246 9.24c.764-.787 1.414.031 3.008-.2-.499.873-2.598.227-3.008.2zm13.055-1.208c.178-.425.59-.614 1.2-.6-.113.487-.758.442-1.2.6zM228.3 57.531c-1.123-7.156-1.9-14.981-6-21.175-4.834-7.3-14.779-8.929-22.9-7.286-19.33 3.909-27.595 28.969-18.1 45.216 5.94 10.16 16.559 14.708 28.016 13.239a42.27 42.27 0 0 0 11.955-3.684 12.061 12.061 0 0 0 5.141-4.921c1.663-3 3.3-7.717.557-10.574-1.517-1.583-7.778-3.177-9.082-.4-.638 1.357-2.17 2.74-2.25 4.687-.06 1.6.975 2.5 1.229 3.674-10.682 9.338-29.034-.195-29.184-14.072-.012-1.125 15.058-.242 16.455-.187 5.373.208 10.579-.745 15.937-1.006 1.115-.054 8.294.693 8.834-.44.564-1.185-.422-1.873-.608-3.071zm-6.642 13.79c.593.283-.049 1.008-.2 1.224-.583-.273.153-.906.198-1.224zm-3.065 0c.823.269-.052.422 0 1.022-.593-.169.27-.516-.002-1.022zm-1.628 9.187a6.424 6.424 0 0 1-2.25 1.022c.574-.659.943-.812 2.248-1.022zm-5.312 1.228c-.345.614-.749.228-1.429.2.085-.453 1.002-.08 1.427-.2zm-14.707 3.264c-.258.62-.7-.223-1.224 0 .202-.577.861.058 1.224 0zm-4.289-7.354c-.2.516-.9-.162-.816-.61.271.203.397.552.816.611zm.4 5.513c-1.039-.455-2.218-.772-2.65-1.836.579.924 2.333.664 2.654 1.837zm17.977-45.743c-1.936.245-4.778-1.16-6.738-.408 2.086-1.014 4.744-.563 6.742.409zm-14.904-5.516c.2.612-.457.36-.82.408a.891.891 0 0 1 .82-.408zm-1.026.408c-.446.779-1.489.955-2.245 1.428.219-1 1.341-1.114 2.241-1.425zm-1.426 6.741c.182.261-.617 1.284-1.433 1.226.227-.663.997-.775 1.433-1.223zm-1.642-1.839c.247.034.178.374.209.612-.335.058-.349-.193-.614-.2.049-.222.405-.142.405-.409zm-3.059 7.148c.956.08-.192 1.01-.205 1.429-.632-.387.328-.887.205-1.426zm-.613-7.763c.446.326-.527.958-.82 1.227-.582-.464.837-.647.82-1.222zm-1.427 8.175c.806-.071.328 1.535-.205 1.429.122-.424-.255-1.341.205-1.426zm-5.921 13.479c-.422-2.326.691-4.883 1.018-7.148.171 2.078-.934 4.653-1.018 7.151zm1.018-10.621c-.516-.332.363-.984.408-1.429.471.292-.233 1.113-.408 1.432zm1.632 16.344c.712.86.509 2.619.823 3.878-.889-.671-.68-2.45-.823-3.875zm1.228-7.562c-.241-.031-.174-.373-.2-.609.341-.073.387.157.4.409-.172-.036-.186.081-.2.203zm-1.43-12.052c.063-1.369 1.737-2.894 2.246-4.492.3.176.3.657.408 1.019a22.935 22.935 0 0 0-2.654 3.476zm2.452 27.37c.662.15.62 1.008 1.021 1.428-.505.497-.837-.921-1.021-1.425zm.2-16.745c.045-.855.757.234 1.029-.406.737.439-.598.475-1.027.409zm8.373 4.088c.153-.46 1.143-.082 1.639-.2-.347.67-1.142.313-1.637.203zm22.173-6.847c-9.415-.923-18.624 1.214-29.592 1.017 1.15-8.284 6.961-15.639 17.348-15.1 7.267.38 13.911 4.883 12.246 14.086zm3.364-17.059c1.021.476.324 1.17 0 0zm2.444 14.914c-.191-2.049-1.095-3.4-1.426-5.309.816.335.523 1.787 1.228 2.245a15.689 15.689 0 0 0 .613 3.263c-.179.397-.123-.212-.413-.196zM122.593 79.179c.048-1.3 1.1-2.771-.206-3.67-2.018.266-4.352 1.881-7.349 1.836-.9-11-1.536-32.3-1.2-45.017.068-2.544.748-7.932-.432-11.513-4.981-2.732-11.956.442-17.754-.406-.938-.138-.728 9.061-.816 9.8-.042.354 6.307-.109 6.842 0 1.264.246 2.028.638 2.127 2.021.1 1.33 0 12.469.028 13.8.03 1.389.041 2.778.064 4.166.122 7.569.435 15.14.435 22.71.008.408.229 4.625.1 4.654-2.894.639-6.79.01-8.777.814.5 1.815 1.09 5.846.611 8.16 2.359 1.073 5.246.325 8.166.2a143.474 143.474 0 0 1 17.957.207c.772-2.214.103-5.267.204-7.762zm-21.988-53.633v-.391a.362.362 0 0 1 .262.391c.167-.157.2-.052.389 0-.112.379-.42-.08-.651 0zm0-3.253c-.178-.182-.28-.643-.129-.78a.974.974 0 0 1 .908.258c-.198.235-.76.108-.779.522zm8.587 43.623c-.516-.041.094-.406-.259-.524.22-.454.331.255.259.524zm-.39-10.41c-.006-.054-.121-.189-.131-.131.157-.752.271 1.294.129.131zm-.522 5.984c.469 1.428.088 3.584.132 5.206-.634-1.832-.025-3.362-.132-5.206zm-.65-11.709c-.041 1.073 1.046 2.833.128 3.512a28.01 28.01 0 0 1-.128-3.512zm-.13 17.956c-.248.283-.081-.95-.129-1.3.249-.282.08.949.129 1.3zm-5.983 16.517c.257.089.347.347.39.649-.257-.09-.349-.346-.391-.649zm3.382-1.3c.3-.006.382.225.779.131-.002.196-.964.284-.778-.133zm-1.039-.779c.277-.546 1.309-.336 2.08-.392-.181.642-1.349.3-2.081.39zm2.34-36.037c.293.042.077 1.691 0 2.212-.4-.622.117-1.442 0-2.212zm0 11.447c-.219.377-.109-.663-.132-.911.218-.374.105.667.132.911zm.258 13.663a68.391 68.391 0 0 1-.258-11.32c.094 3.689.492 7.736.26 11.32zm0-50.128c.017-.286.551-.052.779-.13-.108.464-.319.018-.777.13zm.649 8.068c.269 0 .509 1.342 0 1.559.158-.384-.084-.882.002-1.559zm0 55.194a7.57 7.57 0 0 1 2.734-.382 6.373 6.373 0 0 1-2.732.382zm3.125-33.3c-.181.413-.13-.46-.13-.648.18-.418.13.457.132.647zm.778 17.565a1.05 1.05 0 0 1-.256-.781c.384-.006.44.605.258.78zm2.214 16.253a.417.417 0 0 1 .651-.129c.025.283-.461.063-.651.129zm.26-1.43c-.378-.143.167-.42.391-.39.203.464-.442.081-.391.393zm.521-2.728c.026-.109.129-.134.129-.263h.261c.061.281-.187.251-.39.266zm.78-.134c.032-.23.225-.3.521-.258-.033.231-.225.298-.521.261zm1.565.134c.426.246.172.986.257 1.816-.242-.465-.818-1.331-.257-1.813z" transform="translate(-44.238)"/><path class="cls-1" d="M68.329 5.259c-1.46-2.249-3.028-5.331-6.2-5.258-3.953.094-7.97 5.146-7.7 9.387.125 1.943 1.66 3.067 2.628 4.693 6.13 3.271 12.368-1.929 11.272-8.822zm-6.144 7.7c.121-.208.458-.2.706-.282.147.471-.436.217-.706.279zm2.827-8.187c.459-.038.676.166.7.562-.207-.216-.8-.044-.7-.565zm.423 6.494c-.432-.14.161-.379.139-.566.433.138-.162.375-.139.563z"/><path class="cls-1" d="M227.256 35.467a3.6 3.6 0 0 1 .3-1.464 3.84 3.84 0 0 1 2-2 3.745 3.745 0 0 1 2.928 0 3.84 3.84 0 0 1 2 2 3.72 3.72 0 0 1 0 2.927 3.831 3.831 0 0 1-2 2.005 3.734 3.734 0 0 1-2.928 0 3.831 3.831 0 0 1-2-2.005 3.6 3.6 0 0 1-.3-1.463zm.668 0a3.045 3.045 0 0 0 .243 1.2 3.1 3.1 0 0 0 1.65 1.651 3.126 3.126 0 0 0 2.412 0 3.107 3.107 0 0 0 1.651-1.651 3.124 3.124 0 0 0 0-2.411 3.161 3.161 0 0 0-.665-.987 3.123 3.123 0 0 0-.986-.663 3.114 3.114 0 0 0-2.412 0 3.094 3.094 0 0 0-1.65 1.65 3.05 3.05 0 0 0-.243 1.211zm1.651-2.177h1.661a1.68 1.68 0 0 1 1.15.334 1.23 1.23 0 0 1 .369.962 1.139 1.139 0 0 1-.29.85 1.218 1.218 0 0 1-.734.334l1.115 1.823h-.831l-1.073-1.762h-.578v1.762h-.789zm.789 1.873h.578l.364-.016a1.072 1.072 0 0 0 .33-.076.543.543 0 0 0 .237-.182.646.646 0 0 0 0-.668.551.551 0 0 0-.237-.182.992.992 0 0 0-.33-.071l-.364-.01h-.578z" transform="translate(-44.238)"/></svg>