<svg aria-labelledby="sketch" xmlns="http://www.w3.org/2000/svg" viewBox="0 0 377.966 86"><defs><style>.cls-1,.cls-6{fill:#fff;}.cls-1,.cls-2,.cls-3,.cls-4,.cls-5{fill-rule:evenodd;}.cls-2{fill:#fdb300;}.cls-3{fill:#8e8e8e;}.cls-4{fill:#c4c4c4;}.cls-5{fill:#d8d8d8;}</style></defs><title id="sketch">sketch</title><path class="cls-1" d="M128.189 56.862l-.073-.972h-8.116l.045 1.093c.5 12.177 8.709 20.243 23.309 20.243 13.925 0 23.394-7.235 23.394-18.186 0-5.922-2.054-10.112-5.969-12.974-3.011-2.2-6.612-3.442-12.583-4.737l-1.313-.28-1.3-.272c-10.844-2.277-14.283-4.248-14.283-10.129 0-6.081 4.973-9.954 13.314-9.954 8.115 0 13.244 4.956 13.482 12.758l.032 1.018h8.056l-.024-1.07c-.281-12.161-8.441-20.346-21.63-20.346-12.927 0-21.462 7.778-21.462 17.85 0 5.905 2.052 10.017 5.973 12.764 2.987 2.093 6.447 3.2 12.551 4.435l.939.188.934.185c5.776 1.142 8.324 1.848 10.649 3.2 2.886 1.678 4.318 4.075 4.318 7.788 0 6.447-5.42 10.122-14.91 10.122-9.085-.004-14.722-4.56-15.333-12.724zm55.569-44.862v-1.05h-8.064v65.1h8.064v-12.283l8.488-8.267 15.159 20.132.315.418h10.031l-1.279-1.685-18.513-24.385 17.074-16.992 1.8-1.794h-10.96l-.308.31-21.807 21.964zm75.348 44.394h.986l.062-.985.043-.8.03-.79.013-.739c0-13.179-8.729-22.89-21.63-22.89-12.877 0-22.05 10.337-22.05 23.394 0 13.436 8.758 23.478 22.134 23.478 10.114 0 17.928-6 20.743-15.1l.421-1.36h-8.382l-.248.7c-1.768 4.982-6.554 8.289-12.45 8.289-7.708 0-13.082-5.294-14.05-13.188zm-34.134-6.972c1.361-7.068 6.56-11.76 13.638-11.76 7.295 0 12.33 4.538 13.431 11.76zm61.728-11.088h1.05v-7.14h-9.828v-12.18h-8.064v12.18h-8.148v7.14h8.148v25.158c0 8.253 4.281 12.726 12.138 12.726a25.972 25.972 0 0 0 3.546-.22 10.564 10.564 0 0 0 1.271-.238l.769-.214v-7.477l-1.273.277-.3.06c-.25.046-.528.093-.826.137a17.822 17.822 0 0 1-2.218.2h-.212c-3.442 0-4.83-1.617-4.83-5.67v-24.739zm25.074 38.724c11.162 0 19.043-7.058 21.026-17.058l.248-1.254h-8.133l-.208.78c-1.695 6.379-6.3 10.056-12.929 10.056-8.276 0-13.986-6.529-13.986-15.918 0-9.462 5.7-16 13.986-16 6.632 0 11.234 3.677 12.929 10.056l.208.78h8.133l-.248-1.254c-1.979-9.995-9.86-17.058-21.022-17.058-12.966 0-22.134 10.41-22.134 23.478-.004 12.994 9.177 23.392 22.13 23.392zm36.12-65.058v-1.05h-8.064v65.1h8.064v-26.334c0-7.7 4.689-12.222 11.8-12.222 6.794 0 10.206 3.933 10.206 11.382v27.174h8.064v-28.35c0-10.522-6.516-17.514-17.262-17.514a17.656 17.656 0 0 0-12.81 4.933z"/><path class="cls-2" d="M20.9 2.831l27-2.831 27 2.831 20.9 27.835-47.9 55.334-47.9-55.334z"/><path class="cls-3" d="M19.403 30.666l28.5 55.334-47.903-55.334h19.403zM76.404 30.666l-28.5 55.334 47.903-55.334h-19.403z"/><path class="cls-4" d="M19.403 30.666h57l-28.5 55.334-28.5-55.334z"/><path class="cls-5" d="M47.903 0l-27 2.831-1.5 27.835 28.5-30.666zM47.903 0l27 2.831 1.5 27.835-28.5-30.666z"/><path class="cls-4" d="M95.807 30.666l-20.903-27.835 1.5 27.835h19.403zM0 30.666l20.903-27.835-1.5 27.835h-19.403z"/><path class="cls-6" d="M47.903 0l-28.5 30.666h57l-28.5-30.666z"/></svg>