<?xml version="1.0" encoding="UTF-8" standalone="no"?>
<svg width="434px" height="252px" viewBox="0 0 434 252" version="1.1" xmlns="http://www.w3.org/2000/svg" xmlns:xlink="http://www.w3.org/1999/xlink" xmlns:sketch="http://www.bohemiancoding.com/sketch/ns">
    <title>Artifact Logo</title>
    <description>Created with Sketch (http://www.bohemiancoding.com/sketch)</description>
    <defs></defs>
    <g id="Page-1" stroke="none" stroke-width="1" fill="none" fill-rule="evenodd" sketch:type="MSPage">
        <g id="logo-no-background" sketch:type="MSLayerGroup" transform="translate(0.000000, 1.000000)">
            <path d="M206.645795,246.474972 C212.086937,243.30812 216.095852,238.025584 219,231.401557 C203.801185,196.70634 219,125 219,125 C219,125 196.6202,194.760845 166.265571,217.145717 C165.49488,224.347052 166.351571,230.944382 169.493872,236.430478 C172.867711,242.330367 178.656161,246.561735 185.926453,249.531702 C193.692899,250.626251 200.804422,249.878754 206.645795,246.474972 L206.645795,246.474972 Z M269.509182,236.430478 C272.648369,230.944382 273.505113,224.347052 272.734374,217.145717 C242.377872,194.760845 220,125 220,125 C220,125 235.193136,196.703003 220,231.401557 C222.901019,238.025584 226.910181,243.304783 232.351659,246.474972 C238.200008,249.878754 245.31197,250.626251 253.078895,249.531702 C260.349636,246.561735 266.135135,242.32703 269.509182,236.430478 L269.509182,236.430478 Z M220.001524,231 C235.748095,196.432398 220.001524,125 220.001524,125 C220.001524,125 204.248095,196.435722 220.001524,231 L220.001524,231 Z M311.239328,178.215254 C273.90033,174.142828 220,125 220,125 C220,125 268.646436,179.446996 272.677726,217.17368 C278.470227,221.449727 284.55351,224 290.828444,224 C297.572594,224 304.095354,221.055837 310.274462,216.185616 C315.08888,209.946793 318,203.360813 318,196.551183 C318,190.212219 315.475487,184.066862 311.239328,178.215254 L311.239328,178.215254 Z M273,217 C268.944047,179.344403 220,125 220,125 C220,125 242.490591,194.650527 273,217 L273,217 Z M341.474972,137.351668 C338.30812,131.913494 333.028921,127.901021 326.39822,125 C291.70634,140.196455 220,125 220,125 C220,125 289.760845,147.377889 312.14238,177.734413 C319.347052,178.505151 325.944382,177.648407 331.430478,174.50591 C337.330367,171.13186 341.565072,165.34305 344.531702,158.068995 C345.626251,150.305373 344.878754,143.196713 341.474972,137.351668 L341.474972,137.351668 Z M220,125 C220,125 273.758945,173.944047 311,178 C288.895951,147.490591 220,125 220,125 L220,125 Z M331.433815,74.4906 C325.944382,71.3516088 319.347052,70.4949189 312.14238,71.265609 C289.764182,101.620216 220,124 220,124 C220,124 291.703003,108.804504 326.39822,124 C333.025584,121.095854 338.30812,117.083635 341.474972,111.645804 C344.878754,105.801128 345.626251,98.6863016 344.531702,90.9165541 C341.558398,83.6495744 337.32703,77.8644367 331.433815,74.4906 L331.433815,74.4906 Z M326,125 C291.434638,109.25 220,125 220,125 C220,125 291.437963,140.75 326,125 L326,125 Z M272.677726,32.8294278 C268.646436,70.5481641 220,125 220,125 C220,125 273.897026,75.8588287 311.239328,71.7832024 C315.475487,65.9317914 318,59.7866415 318,53.447891 C318,46.6351529 315.085576,40.0460568 310.264549,33.8041067 C304.088745,28.9373883 297.56929,26 290.828444,26 C284.55351,26 278.470227,28.5501871 272.677726,32.8294278 L272.677726,32.8294278 Z M311,71 C273.75565,75.0590228 220,124 220,124 C220,124 288.899247,101.507495 311,71 L311,71 Z M232.351668,3.52288015 C226.910186,6.69295113 222.901021,11.9719535 220,18.6024073 C235.193147,53.2963314 220,125 220,125 C220,125 242.377889,55.238417 272.734413,32.8577159 C273.505151,25.6499756 272.648407,19.0562279 269.50591,13.5703367 C266.13186,7.67066775 260.339742,3.43612031 253.068995,0.466264344 C245.305373,-0.624907456 238.193405,0.122561911 232.351668,3.52288015 L232.351668,3.52288015 Z M220,125 C220,125 268.944047,70.6489335 273,33 C242.490591,55.3461413 220,125 220,125 L220,125 Z M169.4906,13.5691596 C166.351609,19.0551088 165.494919,25.6489261 166.265609,32.8567426 C196.620216,55.2343431 219,125 219,125 C219,125 203.804504,53.295574 219,18.6012833 C216.095854,11.9740965 212.086942,6.69503835 206.645804,3.52493388 C200.801128,0.121242772 193.686302,-0.626234491 185.916554,0.468285787 C178.649574,3.43817313 172.864437,7.6727653 169.4906,13.5691596 L169.4906,13.5691596 Z M220.000762,18 C204.249048,52.5642779 220.000762,124 220.000762,124 C220.000762,124 235.749048,52.5642779 220.000762,18 L220.000762,18 Z M166.320746,217.17368 C170.3519,179.450334 219,125 219,125 C219,125 165.101487,174.142828 127.757139,178.215254 C123.524428,184.066862 121,190.212219 121,196.551183 C121,203.364151 123.914326,209.95347 128.73519,216.19563 C134.910786,221.059175 141.430021,224 148.17064,224 C154.445362,224 160.52844,221.449727 166.320746,217.17368 L166.320746,217.17368 Z M219,125 C219,125 170.055698,179.347735 166,217 C196.507495,194.650527 219,125 219,125 L219,125 Z M108.56916,174.50591 C114.055109,177.648407 120.648926,178.505151 127.853406,177.734413 C150.234343,147.377889 220,125 220,125 C220,125 148.295574,140.196455 113.601283,125 C106.974097,127.901021 101.691701,131.913494 98.5249339,137.351668 C95.1212428,143.200021 94.3737655,150.311989 95.4682858,158.082227 C98.4381731,165.346357 102.672765,171.135168 108.56916,174.50591 L108.56916,174.50591 Z M128,178 C165.244948,173.944047 219,125 219,125 C219,125 150.102448,147.490591 128,178 L128,178 Z M98.5261463,111.645804 C101.692882,117.086942 106.971888,121.095854 113.602345,124 C148.29629,108.801196 220,124 220,124 C220,124 150.238376,101.620216 127.854325,71.265609 C120.653255,70.4949189 114.056166,71.3516088 108.570272,74.4906 C102.670599,77.8677444 98.4360495,83.6561898 95.4661918,90.9297848 C94.3750194,98.6929169 95.1224892,105.801128 98.5261463,111.645804 L98.5261463,111.645804 Z M113,125.000762 C147.564278,140.749048 219,125.000762 219,125.000762 C219,125.000762 147.564278,109.249048 113,125.000762 L113,125.000762 Z" id="Stroke-1" stroke="#AA4288" stroke-width="0.8" sketch:type="MSShapeGroup"></path>
            <path d="M127.82609,71.7832024 C165.551502,75.8554907 220,125 220,125 C220,125 170.858829,70.5515021 166.783202,32.8294278 C160.931791,28.5501871 154.786641,26 148.447891,26 C141.635153,26 135.046057,28.9440642 128.804107,33.8141205 C123.940726,40.0527327 121,46.6384908 121,53.447891 C121,59.7866415 123.550187,65.9317914 127.82609,71.7832024 L127.82609,71.7832024 Z M220,124 C220,124 165.654233,75.0556984 128,71 C150.348664,101.507495 220,124 220,124 L220,124 Z M166,33 C170.059023,70.6522652 219,125 219,125 C219,125 196.507495,55.3428095 166,33 L166,33 Z M179.807377,126.996091 C196.927994,117.061373 220,125.011149 220,125.011149 C220,125.011149 215.313239,149.070648 198.192623,159.005366 C181.072006,168.936749 158,160.990308 158,160.990308 C158,160.990308 162.686761,136.93081 179.807377,126.996091 L179.807377,126.996091 Z M184.997599,146.80621 C194.932417,129.68651 218.988821,125 218.988821,125 C218.988821,125 226.938676,148.070771 217.003859,165.190471 C207.069041,182.310171 183.012637,187 183.012637,187 C183.012637,187 175.059445,163.92591 184.997599,146.80621 L184.997599,146.80621 Z M201,160.998331 C200.99666,141.119802 219.49833,125 219.49833,125 C219.49833,125 237.99666,141.116463 238,160.998331 C238,180.883537 219.49833,197 219.49833,197 C219.49833,197 200.99666,180.883537 201,160.998331 L201,160.998331 Z M220.996049,165.190471 C211.061415,148.070771 219.011124,125 219.011124,125 C219.011124,125 243.067082,129.68651 253.005052,146.80621 C262.939685,163.92591 254.986641,187 254.986641,187 C254.986641,187 230.930682,182.310171 220.996049,165.190471 L220.996049,165.190471 Z M241.807377,159.006336 C224.686761,149.071358 220,125.011228 220,125.011228 C220,125.011228 243.072006,117.061244 260.192623,126.996222 C277.313239,136.931201 282,160.987994 282,160.987994 C282,160.987994 258.927994,168.937978 241.807377,159.006336 L241.807377,159.006336 Z M255.498354,143 C235.892624,143 220,124.49833 220,124.49833 C220,124.49833 235.892624,106 255.498354,106 C275.104085,105.99666 291,124.49833 291,124.49833 C291,124.49833 275.104085,143 255.498354,143 L255.498354,143 Z M260.192623,123.003859 C243.072006,132.938676 220,124.988821 220,124.988821 C220,124.988821 224.686761,100.932417 241.807377,90.9975991 C258.927994,81.0594454 282,89.0126372 282,89.0126372 C282,89.0126372 277.313239,113.069041 260.192623,123.003859 L260.192623,123.003859 Z M253.003685,103.192623 C243.071859,120.313239 219.011284,125 219.011284,125 C219.011284,125 211.061152,101.927994 220.996315,84.8073773 C230.931477,67.6834413 254.988716,63 254.988716,63 C254.988716,63 262.938848,86.072006 253.003685,103.192623 L253.003685,103.192623 Z M238,89.0016691 C238.00334,108.880198 219.50167,125 219.50167,125 C219.50167,125 201.00334,108.883537 201,89.0016691 C201,69.1164634 219.50167,53 219.50167,53 C219.50167,53 238,69.1164634 238,89.0016691 L238,89.0016691 Z M217.003859,84.8073773 C226.938676,101.927994 218.988821,125 218.988821,125 C218.988821,125 194.932417,120.313239 184.997599,103.192623 C175.059445,86.072006 183.012637,63 183.012637,63 C183.012637,63 207.069041,67.6867605 217.003859,84.8073773 L217.003859,84.8073773 Z M198.192623,90.9963148 C215.313239,100.928141 220,124.988716 220,124.988716 C220,124.988716 196.927994,132.938848 179.807377,123.003685 C162.683441,113.068523 158,89.011284 158,89.011284 C158,89.011284 181.072006,81.0611522 198.192623,90.9963148 L198.192623,90.9963148 Z M183.501646,106 C203.107376,106 219,124.49833 219,124.49833 C219,124.49833 203.107376,142.99666 183.501646,143 C163.892624,143 148,124.49833 148,124.49833 C148,124.49833 163.895915,106 183.501646,106 L183.501646,106 Z" id="Stroke-2" stroke="#AA4288" stroke-width="0.8" sketch:type="MSShapeGroup"></path>
            <path d="M97.0538462,114.678212 L77.0098901,114.678212 L77.0098901,141 L74,141 L74,74 L102.417582,74 C116.342857,74 122.92967,84.3355523 123.025275,94.4833075 C123.117582,105.777967 116.438462,115.348916 101.006593,114.678212 L125,141 L120.954945,141 L97.0538462,114.678212 L97.0538462,114.678212 Z M101.654784,112 C113.980527,112 120,105.058102 120,94.6469453 C120,85.7761799 114.07283,77 102.406394,77 L77,77 L77,112 L101.654784,112 L101.654784,112 Z" id="Fill-3" fill="#FFFFFF" sketch:type="MSShapeGroup"></path>
            <path d="M129,74 L182,74 L182,76.9645127 L156.976852,76.9645127 L156.976852,141 L153.933136,141 L153.933136,76.9645127 L129,76.9645127 L129,74" id="Fill-4" fill="#FFFFFF" sketch:type="MSShapeGroup"></path>
            <path d="M196,74 L198.742,74 L198.742,141 L196,141 L196,74 Z" id="Fill-5" fill="#FFFFFF" sketch:type="MSShapeGroup"></path>
            <path d="M216,74 L260,74 L260,76.9602159 L219.090448,76.9602159 L219.090448,106.113655 L249.504649,106.113655 L249.504649,109.07387 L219.090448,109.07387 L219.090448,141 L216,141 L216,74" id="Fill-6" fill="#FFFFFF" sketch:type="MSShapeGroup"></path>
            <path d="M375,130.999706 C368.430075,137.666569 359.574524,141 351.002591,141 C329.097281,141 317.098576,125.57412 317.005149,107.475489 C316.718194,89.5737279 328.429944,73 351.002591,73 C359.667951,73 368.430075,76.240002 375,82.9068649 L372.907901,84.9055891 C366.811785,78.8093135 358.903851,75.9530399 351.002591,75.9530399 C330.715571,75.9530399 319.954775,90.2410815 320.048202,107.38206 C320.241729,124.142647 331.095952,138.050297 351.002591,138.050297 C358.903851,138.050297 366.811785,135.000491 372.811137,129.094411 L375,130.999706" id="Fill-7" fill="#FFFFFF" sketch:type="MSShapeGroup"></path>
            <path d="M381,74 L434,74 L434,76.9645127 L408.976852,76.9645127 L408.976852,141 L405.933136,141 L405.933136,76.9645127 L381,76.9645127 L381,74" id="Fill-8" fill="#FFFFFF" sketch:type="MSShapeGroup"></path>
            <path d="M32.0016834,74 L0,141 L3.65300647,141 L32.0016834,80.32815 L60.3469935,141 L64,141 L32.0016834,74" id="Fill-9" fill="#FFFFFF" sketch:type="MSShapeGroup"></path>
            <path d="M283.998317,74 L252,141 L255.653006,141 L283.998317,80.32815 L312.346994,141 L316,141 L283.998317,74" id="Fill-10" fill="#FFFFFF" sketch:type="MSShapeGroup"></path>
            <path d="M85,182.721233 C83.5314885,184.277464 81.6327743,185 79.5723298,185 C74.2643401,185 72.019523,181.074685 72.0001154,177.086843 C71.9807077,173.078159 74.4098974,169 79.5723298,169 C81.5098593,169 83.3471159,169.788537 84.8156274,171.344768 L83.0204207,173.206687 C82.0823847,172.223621 80.8176534,171.761615 79.5723298,171.761615 C76.1210044,171.761615 74.6330853,174.523231 74.6524929,177.086843 C74.6719006,179.629614 76.0401392,182.283543 79.5723298,182.283543 C80.8176534,182.283543 82.2247074,181.734694 83.1627433,180.727312 L85,182.721233" id="Fill-11" fill="#FFFFFF" sketch:type="MSShapeGroup"></path>
            <path d="M118.999531,177.066001 C118.956553,181.033 116.642321,185 111.511337,185 C106.377047,185 104,181.123317 104,177.086843 C104,172.244464 107.335801,169 111.570846,169 C116.559669,169.045158 119.039204,173.078159 118.999531,177.066001 L118.999531,177.066001 Z M112.014704,183 C115.607952,183 116.957578,180.208104 116.998998,177.623015 C117.043871,174.991572 115.58379,172.064182 112.076835,172 C108.832212,172 106.916503,174.517342 107.002796,177.644408 C107.068379,180.233063 108.418005,183 112.014704,183 L112.014704,183 Z" id="Fill-12" fill="#FFFFFF" sketch:type="MSShapeGroup"></path>
            <path d="M148.191649,179.091712 L148.191649,169 L151,169 L151,184 L148.720954,184 L140.808351,174.013587 L140.808351,184 L138,184 L138,169 L140.275674,169 L148.191649,179.091712" id="Fill-13" fill="#FFFFFF" sketch:type="MSShapeGroup"></path>
            <path d="M170,184 L170,169 L180,169 L180,171.72449 L172.624449,171.72449 L172.624449,175.823129 L178.327032,175.823129 L178.327032,178.442177 L172.624449,178.442177 L172.624449,184 L170,184" id="Fill-14" fill="#FFFFFF" sketch:type="MSShapeGroup"></path>
            <path d="M211,184 L200,184 L200,169 L211,169 L211,171.741168 L202.750832,171.741168 L202.750832,175.192255 L210.703961,175.192255 L210.703961,177.828125 L202.750832,177.828125 L202.750832,181.214674 L211,181.214674 L211,184" id="Fill-15" fill="#FFFFFF" sketch:type="MSShapeGroup"></path>
            <path d="M243,184 L239.833078,184 L235.576176,178.994348 L232.768149,178.994348 L232.768149,184 L230,184 L230,169 C232.326176,169 234.655675,169.02374 236.981851,169.02374 C240.441207,169.044088 242.265593,171.397694 242.265593,173.988695 C242.265593,176.04047 241.341769,178.115985 238.553681,178.692516 L243,183.810084 L243,184 L243,184 Z M233,172 L233,176 L237.38321,176 C239.215309,176 240,174.997877 240,174.001415 C240,172.999292 239.194568,172 237.38321,172 L233,172 L233,172 Z" id="Fill-16" fill="#FFFFFF" sketch:type="MSShapeGroup"></path>
            <path d="M272,184 L261,184 L261,169 L272,169 L272,171.741168 L263.750832,171.741168 L263.750832,175.192255 L271.703961,175.192255 L271.703961,177.828125 L263.750832,177.828125 L263.750832,181.214674 L272,181.214674 L272,184" id="Fill-17" fill="#FFFFFF" sketch:type="MSShapeGroup"></path>
            <path d="M302.190921,179.091712 L302.190921,169 L305,169 L305,184 L302.723735,184 L294.805707,174.013587 L294.805707,184 L292,184 L292,169 L294.272892,169 L302.190921,179.091712" id="Fill-18" fill="#FFFFFF" sketch:type="MSShapeGroup"></path>
            <path d="M336,182.721233 C334.531493,184.277464 332.632785,185 330.572347,185 C325.264374,185 323.019564,181.074685 323.000157,177.086843 C322.977515,173.078159 325.406697,169 330.572347,169 C332.50987,169 334.347121,169.788537 335.815628,171.344768 L334.020427,173.206687 C333.082394,172.223621 331.817667,171.761615 330.572347,171.761615 C327.121033,171.761615 325.633118,174.523231 325.652526,177.086843 C325.671933,179.629614 327.040168,182.283543 330.572347,182.283543 C331.817667,182.283543 333.224716,181.734694 334.162749,180.727312 L336,182.721233" id="Fill-19" fill="#FFFFFF" sketch:type="MSShapeGroup"></path>
            <path d="M367,184 L356,184 L356,169 L367,169 L367,171.741168 L358.750832,171.741168 L358.750832,175.192255 L366.703961,175.192255 L366.703961,177.828125 L358.750832,177.828125 L358.750832,181.214674 L367,181.214674 L367,184" id="Fill-20" fill="#FFFFFF" sketch:type="MSShapeGroup"></path>
        </g>
    </g>
</svg>