<?xml version="1.0" encoding="UTF-8" standalone="no"?>
<svg version="1.1" xmlns="http://www.w3.org/2000/svg" xmlns:xlink="http://www.w3.org/1999/xlink" width="400px" height="400px" viewBox="0 0 400 400">
	<def>
		<style type="text/css">
			.circle--spirals {
				fill: none;
				stroke: #FFFFFF;
				stroke-linecap: round;
				stroke-linejoin: round;
				stroke-width: .75;
				stroke-dasharray: .75,1.5;
			}
			@media (min-width: 600px) {
				.circle--spirals {
					stroke-width: .5;
					stroke-dasharray: .5, 1;
				}
			}
			@media (min-width: 920px) {
				.circle--spirals {
					stroke-width: .25;
					stroke-dasharray: .25, .5;
				}
			}
		</style>
	</def>
<!-- 	<g class="guide-lines">
	  <line x1="200" y1="0" x2="200" y2="400" stroke="#dddddd" />
	  <line x1="110" y1="0" x2="290" y2="400" stroke="#dddddd" />
	  <line x1="290" y1="0" x2="110" y2="400" stroke="#dddddd" />
	  <line x1="0" y1="35" x2="400" y2="365" stroke="#dddddd" />
	  <line x1="0" y1="365" x2="400" y2="35" stroke="#dddddd" />
	  <line x1="0" y1="250" x2="400" y2="150" stroke="#dddddd" />
	  <line x1="0" y1="150" x2="400" y2="250" stroke="#dddddd" />
		<circle fill="none" stroke="#dddddd" cx="200" cy="200" r="200"/>
		<circle fill="none" stroke="#dddddd" cx="200" cy="200" r="180"/>
		<circle fill="none" stroke="#dddddd" cx="200" cy="200" r="160"/>
		<circle fill="none" stroke="#dddddd" cx="200" cy="200" r="140"/>
		<circle fill="none" stroke="#dddddd" cx="200" cy="200" r="120"/>
		<circle fill="none" stroke="#dddddd" cx="200" cy="200" r="100"/>
		<circle fill="none" stroke="#dddddd" cx="200" cy="200" r="50"/>
	</g> -->
	<g>
		<circle class="circle--spirals" cx="200" cy="100" r="100" />
		<circle class="circle--spirals" cx="242" cy="110" r="100" />
		<circle class="circle--spirals" cx="276" cy="136" r="100" />
		<circle class="circle--spirals" cx="296" cy="176" r="100" />
		<circle class="circle--spirals" cx="298" cy="220" r="100" />
		<circle class="circle--spirals" cx="276" cy="266" r="100" />
		<circle class="circle--spirals" cx="238" cy="292" r="100" />
		<circle class="circle--spirals" cx="200" cy="300" r="100" />
		<circle class="circle--spirals" cx="158" cy="290" r="100" />
		<circle class="circle--spirals" cx="124" cy="264" r="100" />
		<circle class="circle--spirals" cx="102" cy="220" r="100" />
		<circle class="circle--spirals" cx="102" cy="178" r="100" />
		<circle class="circle--spirals" cx="124" cy="136" r="100" />
		<circle class="circle--spirals" cx="158" cy="110" r="100" />
	</g>
</svg>
