<?xml version="1.0" encoding="UTF-8" standalone="no"?>
<svg width="44px" height="35px" viewBox="0 0 44 35" version="1.1" xmlns="http://www.w3.org/2000/svg" xmlns:xlink="http://www.w3.org/1999/xlink" xmlns:sketch="http://www.bohemiancoding.com/sketch/ns">
    <title>menu</title>
    <description>Created with Sketch (http://www.bohemiancoding.com/sketch)</description>
    <defs></defs>
    <g id="Page-3" stroke="none" stroke-width="1" fill="none" fill-rule="evenodd" sketch:type="MSPage">
        <path d="M3.50783502,7 L40.492165,7 C42.4294888,7 44,5.42906336 44,3.5 C44,1.56700338 42.4340167,0 40.492165,0 L3.50783502,0 C1.57051123,0 0,1.57093664 0,3.5 C0,5.43299662 1.5659833,7 3.50783502,7 Z M3.50783502,21 L40.492165,21 C42.4294888,21 44,19.4290634 44,17.5 C44,15.5670034 42.4340167,14 40.492165,14 L3.50783502,14 C1.57051123,14 0,15.5709366 0,17.5 C0,19.4329966 1.5659833,21 3.50783502,21 Z M3.50783502,35 L40.492165,35 C42.4294888,35 44,33.4290634 44,31.5 C44,29.5670034 42.4340167,28 40.492165,28 L3.50783502,28 C1.57051123,28 0,29.5709366 0,31.5 C0,33.4329966 1.5659833,35 3.50783502,35 Z" id="Rectangle-2" fill="#F7F7F7" sketch:type="MSShapeGroup"></path>
    </g>
</svg>